TW-Sung-Ext-B-98_1.sfdir
StartChar: exclam
Encoding: 33 33 4
Width: 512
Flags: W
LayerCount: 2
Back
Fore
SplineSet
268 143 m 1,0,-1
 248 143 l 1,1,-1
 200 622 l 2,2,3
 198 641 198 641 206 654 c 256,4,5
 214 667 214 667 224 673 c 256,6,7
 234 679 234 679 256 680 c 0,8,9
 278 680 278 680 287 674 c 0,10,11
 298 668 298 668 306 654 c 0,12,13
 314 641 314 641 312 622 c 2,14,-1
 268 143 l 1,0,-1
240 67 m 1,15,16
 272 67 272 67 287 59 c 256,17,18
 302 51 302 51 311 35 c 256,19,20
 320 19 320 19 320 2 c 0,21,22
 320 -14 320 -14 311 -30 c 0,23,24
 303 -45 303 -45 288 -53 c 0,25,26
 274 -61 274 -61 256 -61 c 256,27,28
 238 -61 238 -61 224 -53 c 0,29,30
 208 -45 208 -45 200 -30 c 256,31,32
 192 -15 192 -15 192 2 c 256,33,34
 192 19 192 19 200 35 c 256,35,36
 208 51 208 51 224 58 c 2,37,-1
 240 67 l 1,15,16
268 143 m 1,38,-1
 248 143 l 1,39,-1
 200 622 l 2,40,41
 198 641 198 641 206 654 c 256,42,43
 214 667 214 667 224 673 c 0,44,45
 236 679 236 679 256 680 c 0,46,47
 278 680 278 680 288 674 c 0,48,49
 298 667 298 667 306 654 c 256,50,51
 314 641 314 641 312 622 c 2,52,-1
 268 143 l 1,38,-1
240 67 m 1,53,54
 272 67 272 67 287 59 c 256,55,56
 302 51 302 51 311 35 c 256,57,58
 320 19 320 19 320 2 c 0,59,60
 320 -14 320 -14 311 -30 c 0,61,62
 302 -45 302 -45 288 -53 c 256,63,64
 274 -61 274 -61 256 -61 c 256,65,66
 238 -61 238 -61 224 -53 c 0,67,68
 209 -45 209 -45 200 -30 c 0,69,70
 192 -15 192 -15 192 2 c 256,71,72
 192 19 192 19 200 34 c 0,73,74
 209 50 209 50 240 67 c 1,53,54
EndSplineSet
EndChar
StartChar: quotedbl
Encoding: 34 34 5
Width: 512
Flags: W
LayerCount: 2
Back
Fore
SplineSet
234 753 m 2,0,-1
 201 499 l 2,1,2
 199 487 199 487 189 487 c 256,3,4
 179 487 179 487 178 499 c 2,5,-1
 145 753 l 2,6,7
 142 779 142 779 153 797 c 0,8,9
 165 815 165 815 189 815 c 256,10,11
 213 815 213 815 225 797 c 256,12,13
 237 779 237 779 234 753 c 2,0,-1
373 753 m 2,14,-1
 341 499 l 2,15,16
 339 487 339 487 328 487 c 0,17,18
 318 487 318 487 317 499 c 2,19,-1
 283 753 l 2,20,21
 279 779 279 779 292 797 c 0,22,23
 303 815 303 815 327 815 c 256,24,25
 351 815 351 815 363 797 c 256,26,27
 375 779 375 779 373 753 c 2,14,-1
234 753 m 2,28,-1
 201 499 l 2,29,30
 199 487 199 487 189 487 c 256,31,32
 179 487 179 487 178 499 c 2,33,-1
 145 753 l 2,34,35
 142 779 142 779 153 797 c 0,36,37
 165 815 165 815 189 815 c 256,38,39
 213 815 213 815 225 797 c 256,40,41
 237 779 237 779 234 753 c 2,28,-1
373 753 m 2,42,-1
 341 499 l 2,43,44
 339 487 339 487 329 487 c 0,45,46
 318 487 318 487 317 499 c 2,47,-1
 283 753 l 2,48,49
 279 779 279 779 291 797 c 256,50,51
 303 815 303 815 327 815 c 256,52,53
 351 815 351 815 363 797 c 0,54,55
 376 779 376 779 373 753 c 2,42,-1
EndSplineSet
EndChar
StartChar: numbersign
Encoding: 35 35 6
Width: 512
Flags: W
LayerCount: 2
Back
Fore
SplineSet
172 125 m 1,0,-1
 146 -43 l 1,1,-1
 108 -43 l 1,2,-1
 135 125 l 1,3,-1
 36 125 l 1,4,-1
 47 193 l 1,5,-1
 146 193 l 1,6,-1
 182 423 l 1,7,-1
 75 423 l 1,8,-1
 86 490 l 1,9,-1
 192 490 l 1,10,-1
 220 663 l 1,11,-1
 258 663 l 1,12,-1
 230 490 l 1,13,-1
 338 490 l 1,14,-1
 365 663 l 1,15,-1
 403 663 l 1,16,-1
 376 490 l 1,17,-1
 476 490 l 1,18,-1
 464 423 l 1,19,-1
 365 423 l 1,20,-1
 328 193 l 1,21,-1
 446 193 l 1,22,-1
 434 125 l 1,23,-1
 318 125 l 1,24,-1
 292 -43 l 1,25,-1
 254 -43 l 1,26,-1
 280 125 l 1,27,-1
 172 125 l 1,0,-1
184 193 m 1,28,-1
 291 193 l 1,29,-1
 327 423 l 1,30,-1
 220 423 l 1,31,-1
 184 193 l 1,28,-1
172 125 m 1,32,-1
 146 -43 l 1,33,-1
 108 -43 l 1,34,-1
 135 125 l 1,35,-1
 36 125 l 1,36,-1
 47 193 l 1,37,-1
 146 193 l 1,38,-1
 182 423 l 1,39,-1
 75 423 l 1,40,-1
 86 490 l 1,41,-1
 192 490 l 1,42,-1
 220 663 l 1,43,-1
 258 663 l 1,44,-1
 230 490 l 1,45,-1
 338 490 l 1,46,-1
 365 663 l 1,47,-1
 403 663 l 1,48,-1
 376 490 l 1,49,-1
 476 490 l 1,50,-1
 464 423 l 1,51,-1
 365 423 l 1,52,-1
 328 193 l 1,53,-1
 446 193 l 1,54,-1
 434 125 l 1,55,-1
 318 125 l 1,56,-1
 292 -43 l 1,57,-1
 254 -43 l 1,58,-1
 280 125 l 1,59,-1
 172 125 l 1,32,-1
184 193 m 1,60,-1
 291 193 l 1,61,-1
 327 423 l 1,62,-1
 220 423 l 1,63,-1
 184 193 l 1,60,-1
EndSplineSet
EndChar
StartChar: dollar
Encoding: 36 36 7
Width: 512
Flags: W
LayerCount: 2
Back
Fore
SplineSet
272 347 m 1,0,-1
 303 335 l 2,1,2
 318 329 318 329 338 320 c 256,3,4
 358 311 358 311 376 301 c 256,5,6
 394 291 394 291 415 272 c 0,7,8
 437 252 437 252 448 227 c 256,9,10
 459 202 459 202 462 184 c 0,11,12
 466 166 466 166 466 146 c 256,13,14
 466 126 466 126 464 107 c 0,15,16
 460 81 460 81 448 51 c 0,17,18
 436 22 436 22 415 2 c 0,19,20
 395 -18 395 -18 379 -27 c 0,21,22
 364 -36 364 -36 348 -42 c 256,23,24
 332 -48 332 -48 316 -52 c 0,25,26
 300 -57 300 -57 291 -57 c 2,27,-1
 273 -59 l 1,28,-1
 273 -141 l 1,29,-1
 238 -141 l 1,30,-1
 238 -59 l 1,31,32
 228 -59 228 -59 221 -59 c 0,33,34
 213 -59 213 -59 201 -56 c 256,35,36
 189 -53 189 -53 173 -49 c 0,37,38
 158 -45 158 -45 143 -39 c 0,39,40
 127 -33 127 -33 113 -23 c 0,41,42
 98 -13 98 -13 86 -1 c 256,43,44
 74 11 74 11 66 22 c 0,45,46
 58 34 58 34 54 47 c 0,47,48
 50 59 50 59 48 71 c 256,49,50
 46 83 46 83 46 99 c 256,51,52
 46 115 46 115 50 129 c 0,53,54
 54 140 54 140 61 149 c 0,55,56
 69 159 69 159 78 163 c 0,57,58
 88 167 88 167 97 167 c 0,59,60
 105 167 105 167 116 163 c 0,61,62
 126 159 126 159 132 153 c 256,63,64
 138 147 138 147 142 136 c 256,65,66
 146 125 146 125 147 113 c 0,67,68
 147 101 147 101 136 88 c 0,69,70
 130 82 130 82 119 74 c 256,71,72
 108 66 108 66 103 61 c 0,73,74
 98 55 98 55 96 45 c 0,75,76
 94 33 94 33 104 19 c 0,77,78
 112 6 112 6 124 -2 c 0,79,80
 137 -10 137 -10 150 -16 c 0,81,82
 162 -22 162 -22 174 -26 c 256,83,84
 186 -30 186 -30 201 -32 c 0,85,86
 216 -35 216 -35 224 -35 c 2,87,-1
 238 -35 l 1,88,-1
 238 293 l 1,89,90
 211 303 211 303 167 321 c 0,91,92
 122 339 122 339 92 383 c 256,93,94
 62 427 62 427 60 473 c 256,95,96
 58 519 58 519 71 553 c 256,97,98
 84 587 84 587 108 615 c 0,99,100
 132 641 132 641 156 653 c 256,101,102
 180 665 180 665 196 671 c 0,103,104
 214 675 214 675 224 677 c 2,105,-1
 238 678 l 1,106,-1
 238 759 l 1,107,-1
 273 759 l 1,108,-1
 272 678 l 1,109,-1
 294 675 l 2,110,111
 303 675 303 675 318 671 c 0,112,113
 332 667 332 667 354 659 c 0,114,115
 374 651 374 651 396 633 c 256,116,117
 418 615 418 615 430 590 c 256,118,119
 442 565 442 565 442 539 c 256,120,121
 442 513 442 513 437 499 c 0,122,123
 430 481 430 481 417 472 c 256,124,125
 404 463 404 463 388 463 c 0,126,127
 378 463 378 463 370 466 c 0,128,129
 362 470 362 470 355 476 c 0,130,131
 350 482 350 482 346 491 c 0,132,133
 342 499 342 499 344 510 c 0,134,135
 344 518 344 518 348 526 c 256,136,137
 352 534 352 534 357 538 c 2,138,-1
 371 550 l 2,139,140
 380 558 380 558 384 564 c 256,141,142
 388 570 388 570 388 580 c 0,143,144
 388 591 388 591 384 601 c 0,145,146
 376 617 376 617 359 626 c 0,147,148
 342 636 342 636 320 643 c 0,149,150
 298 651 298 651 290 651 c 2,151,-1
 272 653 l 1,152,-1
 272 347 l 1,0,-1
272 -35 m 1,153,154
 278 -35 278 -35 285 -34 c 0,155,156
 291 -34 291 -34 305 -31 c 256,157,158
 319 -28 319 -28 336 -21 c 0,159,160
 353 -13 353 -13 372 4 c 0,161,162
 391 22 391 22 402 46 c 0,163,164
 414 71 414 71 415 89 c 256,165,166
 416 107 416 107 416 116 c 0,167,168
 416 148 416 148 408 174 c 0,169,170
 399 199 399 199 386 215 c 0,171,172
 374 231 374 231 350 247 c 256,173,174
 326 263 326 263 291 277 c 2,175,-1
 272 284 l 1,176,-1
 272 -35 l 1,153,154
238 358 m 1,177,-1
 238 653 l 1,178,179
 228 652 228 652 213 650 c 0,180,181
 196 648 196 648 176 637 c 0,182,183
 156 627 156 627 139 607 c 0,184,185
 124 587 124 587 114 562 c 0,186,187
 105 536 105 536 104 506 c 0,188,189
 104 477 104 477 114 453 c 256,190,191
 124 429 124 429 142 414 c 0,192,193
 158 397 158 397 178 385 c 0,194,195
 198 371 198 371 224 363 c 2,196,-1
 238 358 l 1,177,-1
272 347 m 1,197,198
 287 341 287 341 302 335 c 0,199,200
 318 329 318 329 338 320 c 256,201,202
 358 311 358 311 376 301 c 256,203,204
 394 291 394 291 415 272 c 256,205,206
 436 253 436 253 448 228 c 0,207,208
 459 202 459 202 462 184 c 0,209,210
 466 165 466 165 466 146 c 0,211,212
 466 126 466 126 464 107 c 0,213,214
 460 81 460 81 448 52 c 0,215,216
 436 22 436 22 415 2 c 0,217,218
 394 -17 394 -17 378 -26 c 0,219,220
 363 -36 363 -36 348 -42 c 0,221,222
 332 -48 332 -48 316 -52 c 0,223,224
 300 -57 300 -57 291 -57 c 2,225,-1
 273 -59 l 1,226,-1
 273 -141 l 1,227,-1
 238 -141 l 1,228,-1
 238 -59 l 1,229,230
 228 -59 228 -59 221 -58 c 0,231,232
 214 -58 214 -58 201 -56 c 0,233,234
 188 -53 188 -53 173 -49 c 256,235,236
 158 -45 158 -45 143 -39 c 256,237,238
 128 -33 128 -33 113 -23 c 256,239,240
 98 -13 98 -13 86 -2 c 0,241,242
 74 10 74 10 66 22 c 0,243,244
 58 35 58 35 54 47 c 256,245,246
 50 59 50 59 48 71 c 256,247,248
 46 83 46 83 46 99 c 256,249,250
 46 115 46 115 50 129 c 0,251,252
 54 140 54 140 62 150 c 0,253,254
 69 159 69 159 78 163 c 0,255,256
 88 167 88 167 97 167 c 0,257,258
 105 167 105 167 116 163 c 0,259,260
 126 159 126 159 132 153 c 256,261,262
 138 147 138 147 142 136 c 256,263,264
 146 125 146 125 146 113 c 0,265,266
 147 101 147 101 136 88 c 0,267,268
 130 82 130 82 119 74 c 0,269,270
 108 67 108 67 103 61 c 256,271,272
 98 55 98 55 96 45 c 0,273,274
 94 33 94 33 104 19 c 0,275,276
 112 6 112 6 125 -2 c 256,277,278
 138 -10 138 -10 150 -16 c 0,279,280
 162 -23 162 -23 174 -26 c 256,281,282
 186 -29 186 -29 201 -32 c 256,283,284
 216 -35 216 -35 224 -35 c 2,285,-1
 238 -35 l 1,286,-1
 238 293 l 1,287,288
 211 302 211 302 166 320 c 0,289,290
 122 339 122 339 92 383 c 0,291,292
 61 427 61 427 60 473 c 0,293,294
 58 519 58 519 71 554 c 0,295,296
 84 588 84 588 108 614 c 0,297,298
 132 641 132 641 156 654 c 0,299,300
 180 666 180 666 197 670 c 0,301,302
 214 675 214 675 224 677 c 2,303,-1
 238 678 l 1,304,-1
 238 759 l 1,305,-1
 273 759 l 1,306,-1
 272 678 l 1,307,308
 284 676 284 676 294 675 c 0,309,310
 303 674 303 674 318 670 c 0,311,312
 332 667 332 667 353 659 c 256,313,314
 374 651 374 651 396 633 c 256,315,316
 418 615 418 615 430 590 c 256,317,318
 442 565 442 565 442 539 c 256,319,320
 442 513 442 513 437 499 c 0,321,322
 430 481 430 481 417 472 c 256,323,324
 404 463 404 463 388 463 c 0,325,326
 378 463 378 463 370 466 c 0,327,328
 361 469 361 469 355 476 c 0,329,330
 349 482 349 482 346 490 c 0,331,332
 342 499 342 499 344 510 c 0,333,334
 344 518 344 518 348 526 c 256,335,336
 352 534 352 534 357 538 c 0,337,338
 362 543 362 543 371 550 c 0,339,340
 380 558 380 558 384 564 c 256,341,342
 388 570 388 570 388 580 c 0,343,344
 388 591 388 591 384 601 c 0,345,346
 376 617 376 617 359 626 c 0,347,348
 342 636 342 636 320 643 c 0,349,350
 300 651 300 651 290 651 c 2,351,-1
 272 653 l 1,352,-1
 272 347 l 1,197,198
272 -35 m 1,353,354
 278 -35 278 -35 284 -34 c 0,355,356
 291 -33 291 -33 304 -30 c 0,357,358
 318 -28 318 -28 336 -20 c 0,359,360
 353 -13 353 -13 372 4 c 256,361,362
 391 21 391 21 402 46 c 0,363,364
 414 71 414 71 415 89 c 256,365,366
 416 107 416 107 416 116 c 0,367,368
 416 148 416 148 408 174 c 0,369,370
 399 199 399 199 386 215 c 0,371,372
 374 231 374 231 350 247 c 256,373,374
 326 263 326 263 291 277 c 2,375,-1
 272 284 l 1,376,-1
 272 -35 l 1,353,354
238 358 m 1,377,-1
 238 653 l 1,378,379
 228 652 228 652 212 650 c 0,380,381
 197 647 197 647 176 636 c 0,382,383
 156 626 156 626 139 606 c 0,384,385
 122 587 122 587 113 562 c 256,386,387
 104 537 104 537 104 506 c 0,388,389
 104 476 104 476 114 452 c 0,390,391
 125 429 125 429 142 414 c 0,392,393
 158 399 158 399 178 386 c 256,394,395
 198 373 198 373 224 363 c 2,396,-1
 238 358 l 1,377,-1
EndSplineSet
EndChar
StartChar: percent
Encoding: 37 37 8
Width: 512
Flags: W
LayerCount: 2
Back
Fore
SplineSet
126 291 m 0,0,1
 112 291 112 291 99 293 c 0,2,3
 86 297 86 297 75 304 c 0,4,5
 63 313 63 313 54 325 c 256,6,7
 45 337 45 337 39 351 c 256,8,9
 33 365 33 365 29 383 c 256,10,11
 25 401 25 401 23 413 c 256,12,13
 21 425 21 425 20 443 c 0,14,15
 18 461 18 461 18 487 c 0,16,17
 18 511 18 511 20 534 c 0,18,19
 22 558 22 558 28 579 c 0,20,21
 33 601 33 601 42 621 c 0,22,23
 52 641 52 641 65 654 c 0,24,25
 79 667 79 667 94 672 c 0,26,27
 110 678 110 678 126 678 c 0,28,29
 140 678 140 678 156 673 c 0,30,31
 172 669 172 669 184 657 c 0,32,33
 197 645 197 645 207 629 c 256,34,35
 217 613 217 613 223 594 c 0,36,37
 229 574 229 574 231 554 c 0,38,39
 233 533 233 533 234 517 c 256,40,41
 235 501 235 501 235 486 c 0,42,43
 235 472 235 472 233 451 c 0,44,45
 232 430 232 430 230 415 c 0,46,47
 228 401 228 401 223 381 c 0,48,49
 218 362 218 362 210 346 c 256,50,51
 202 330 202 330 193 320 c 256,52,53
 184 310 184 310 172 303 c 256,54,55
 160 296 160 296 148 293 c 0,56,57
 136 291 136 291 126 291 c 0,0,1
127 656 m 0,58,59
 117 655 117 655 108 649 c 0,60,61
 100 643 100 643 93 629 c 0,62,63
 86 616 86 616 82 603 c 0,64,65
 78 589 78 589 76 573 c 0,66,67
 73 557 73 557 71 529 c 256,68,69
 69 501 69 501 69 487 c 0,70,71
 69 475 69 475 71 446 c 0,72,73
 74 418 74 418 74 406 c 0,74,75
 75 394 75 394 77 382 c 256,76,77
 79 370 79 370 83 358 c 256,78,79
 87 346 87 346 91 336 c 0,80,81
 95 327 95 327 105 319 c 0,82,83
 114 311 114 311 127 312 c 0,84,85
 137 312 137 312 144 316 c 256,86,87
 151 320 151 320 156 327 c 256,88,89
 161 334 161 334 166 345 c 0,90,91
 171 357 171 357 174 369 c 0,92,93
 178 381 178 381 180 402 c 256,94,95
 182 423 182 423 183 440 c 0,96,97
 185 456 185 456 185 486 c 0,98,99
 184 515 184 515 184 533 c 0,100,101
 184 550 184 550 182 568 c 256,102,103
 180 586 180 586 175 602 c 0,104,105
 171 618 171 618 164 632 c 0,106,107
 156 646 156 646 146 651 c 256,108,109
 136 656 136 656 127 656 c 0,58,59
452 685 m 1,110,-1
 480 668 l 1,111,-1
 59 -56 l 1,112,-1
 32 -41 l 1,113,-1
 452 685 l 1,110,-1
378 -65 m 0,114,115
 366 -65 366 -65 352 -62 c 256,116,117
 338 -59 338 -59 326 -51 c 256,118,119
 314 -43 314 -43 306 -32 c 0,120,121
 296 -20 296 -20 290 -5 c 0,122,123
 284 9 284 9 280 27 c 256,124,125
 276 45 276 45 274 55 c 256,126,127
 272 65 272 65 271 87 c 0,128,129
 269 111 269 111 269 131 c 0,130,131
 270 151 270 151 272 175 c 0,132,133
 274 201 274 201 278 222 c 0,134,135
 283 244 283 244 294 264 c 0,136,137
 304 285 304 285 317 298 c 0,138,139
 331 311 331 311 346 316 c 0,140,141
 362 322 362 322 378 322 c 0,142,143
 392 322 392 322 408 317 c 0,144,145
 424 313 424 313 436 301 c 256,146,147
 448 289 448 289 458 273 c 256,148,149
 468 257 468 257 474 239 c 0,150,151
 480 220 480 220 482 197 c 0,152,153
 485 175 485 175 486 161 c 0,154,155
 487 145 487 145 487 129 c 0,156,157
 487 111 487 111 485 95 c 0,158,159
 484 78 484 78 482 59 c 0,160,161
 480 41 480 41 475 25 c 0,162,163
 471 9 471 9 462 -9 c 256,164,165
 453 -27 453 -27 445 -36 c 0,166,167
 436 -45 436 -45 424 -53 c 256,168,169
 412 -61 412 -61 400 -63 c 0,170,171
 386 -65 386 -65 378 -65 c 0,114,115
376 297 m 0,172,173
 366 296 366 296 358 291 c 0,174,175
 350 285 350 285 344 272 c 0,176,177
 338 260 338 260 335 244 c 0,178,179
 331 229 331 229 328 215 c 0,180,181
 326 201 326 201 324 173 c 256,182,183
 322 145 322 145 322 129 c 0,184,185
 322 115 322 115 324 91 c 0,186,187
 325 67 325 67 326 53 c 0,188,189
 328 39 328 39 330 25 c 256,190,191
 332 11 332 11 335 1 c 256,192,193
 338 -9 338 -9 343 -19 c 0,194,195
 347 -30 347 -30 355 -37 c 0,196,197
 362 -43 362 -43 376 -43 c 0,198,199
 385 -43 385 -43 393 -39 c 256,200,201
 401 -35 401 -35 406 -29 c 256,202,203
 411 -23 411 -23 416 -11 c 0,204,205
 420 0 420 0 424 12 c 0,206,207
 427 24 427 24 429 45 c 0,208,209
 431 67 431 67 433 83 c 0,210,211
 434 99 434 99 434 129 c 256,212,213
 434 159 434 159 434 176 c 0,214,215
 433 192 433 192 431 210 c 0,216,217
 429 229 429 229 425 244 c 256,218,219
 421 259 421 259 414 273 c 0,220,221
 406 287 406 287 396 293 c 0,222,223
 386 297 386 297 376 297 c 0,172,173
126 291 m 0,224,225
 112 291 112 291 99 294 c 256,226,227
 86 297 86 297 75 304 c 0,228,229
 64 312 64 312 54 324 c 0,230,231
 45 337 45 337 38 352 c 0,232,233
 32 366 32 366 28 384 c 0,234,235
 25 401 25 401 24 413 c 0,236,237
 22 425 22 425 20 443 c 256,238,239
 18 461 18 461 18 487 c 0,240,241
 18 511 18 511 20 534 c 256,242,243
 22 557 22 557 27 579 c 256,244,245
 32 601 32 601 42 621 c 256,246,247
 52 641 52 641 65 654 c 256,248,249
 78 667 78 667 94 672 c 256,250,251
 110 677 110 677 126 678 c 0,252,253
 140 678 140 678 156 674 c 0,254,255
 171 669 171 669 184 657 c 256,256,257
 197 645 197 645 207 629 c 256,258,259
 217 613 217 613 222 594 c 0,260,261
 228 575 228 575 231 554 c 256,262,263
 234 533 234 533 234 517 c 0,264,265
 235 501 235 501 235 486 c 0,266,267
 235 472 235 472 234 451 c 0,268,269
 232 430 232 430 230 416 c 0,270,271
 228 401 228 401 223 382 c 256,272,273
 218 363 218 363 210 346 c 0,274,275
 202 330 202 330 193 320 c 256,276,277
 184 310 184 310 172 303 c 0,278,279
 161 296 161 296 148 294 c 0,280,281
 136 291 136 291 126 291 c 0,224,225
127 656 m 0,282,283
 117 655 117 655 108 649 c 0,284,285
 100 643 100 643 93 630 c 256,286,287
 86 617 86 617 82 603 c 256,288,289
 78 589 78 589 76 573 c 0,290,291
 73 557 73 557 70 529 c 0,292,293
 68 503 68 503 69 487 c 0,294,295
 69 475 69 475 70 446 c 0,296,297
 72 418 72 418 73 406 c 256,298,299
 74 394 74 394 76 382 c 0,300,301
 79 371 79 371 82 358 c 0,302,303
 86 345 86 345 91 336 c 256,304,305
 96 327 96 327 105 320 c 0,306,307
 114 312 114 312 127 312 c 0,308,309
 137 312 137 312 144 316 c 0,310,311
 151 321 151 321 156 328 c 0,312,313
 161 334 161 334 166 346 c 0,314,315
 171 357 171 357 174 369 c 256,316,317
 177 381 177 381 180 402 c 0,318,319
 182 423 182 423 183 440 c 256,320,321
 184 457 184 457 184 486 c 256,322,323
 184 515 184 515 184 533 c 0,324,325
 183 550 183 550 182 568 c 0,326,327
 180 585 180 585 176 602 c 0,328,329
 171 619 171 619 164 632 c 256,330,331
 157 645 157 645 146 650 c 0,332,333
 136 656 136 656 127 656 c 0,282,283
452 685 m 1,334,-1
 480 668 l 1,335,-1
 59 -56 l 1,336,-1
 32 -41 l 1,337,-1
 452 685 l 1,334,-1
378 -65 m 0,338,339
 366 -65 366 -65 352 -62 c 256,340,341
 338 -59 338 -59 326 -52 c 0,342,343
 314 -44 314 -44 306 -32 c 0,344,345
 297 -19 297 -19 290 -4 c 0,346,347
 284 10 284 10 280 28 c 0,348,349
 276 45 276 45 274 55 c 0,350,351
 273 65 273 65 272 88 c 0,352,353
 270 110 270 110 270 131 c 0,354,355
 270 151 270 151 272 175 c 0,356,357
 274 201 274 201 279 222 c 256,358,359
 284 243 284 243 294 264 c 256,360,361
 304 285 304 285 317 298 c 256,362,363
 330 311 330 311 346 316 c 256,364,365
 362 321 362 321 378 322 c 0,366,367
 392 322 392 322 407 318 c 0,368,369
 422 313 422 313 435 301 c 256,370,371
 448 289 448 289 458 273 c 256,372,373
 468 257 468 257 474 238 c 256,374,375
 480 219 480 219 483 197 c 256,376,377
 486 175 486 175 486 161 c 0,378,379
 487 145 487 145 487 129 c 0,380,381
 487 111 487 111 486 94 c 0,382,383
 484 78 484 78 482 59 c 256,384,385
 480 40 480 40 475 24 c 0,386,387
 470 9 470 9 462 -9 c 0,388,389
 453 -27 453 -27 444 -36 c 0,390,391
 436 -45 436 -45 424 -52 c 0,392,393
 412 -60 412 -60 399 -62 c 0,394,395
 386 -65 386 -65 378 -65 c 0,338,339
376 297 m 0,396,397
 366 296 366 296 358 290 c 0,398,399
 350 285 350 285 344 272 c 0,400,401
 339 259 339 259 334 244 c 0,402,403
 330 229 330 229 328 214 c 0,404,405
 326 200 326 200 324 172 c 0,406,407
 322 145 322 145 322 129 c 0,408,409
 322 114 322 114 324 90 c 0,410,411
 325 67 325 67 326 53 c 0,412,413
 328 39 328 39 330 25 c 256,414,415
 332 11 332 11 335 1 c 256,416,417
 338 -9 338 -9 343 -20 c 0,418,419
 348 -30 348 -30 356 -37 c 0,420,421
 362 -43 362 -43 376 -43 c 0,422,423
 385 -43 385 -43 393 -39 c 256,424,425
 401 -35 401 -35 406 -29 c 256,426,427
 411 -23 411 -23 416 -12 c 0,428,429
 420 0 420 0 423 12 c 0,430,431
 426 23 426 23 429 45 c 256,432,433
 432 67 432 67 433 83 c 256,434,435
 434 99 434 99 434 128 c 0,436,437
 434 158 434 158 434 176 c 0,438,439
 433 192 433 192 431 210 c 0,440,441
 429 229 429 229 425 244 c 256,442,443
 421 259 421 259 414 273 c 0,444,445
 406 287 406 287 396 292 c 256,446,447
 386 297 386 297 376 297 c 0,396,397
EndSplineSet
EndChar
StartChar: ampersand
Encoding: 38 38 9
Width: 512
Flags: W
LayerCount: 2
Back
Fore
SplineSet
489 97 m 1,0,1
 485 71 485 71 482 53 c 256,2,3
 479 35 479 35 471 11 c 256,4,5
 463 -13 463 -13 452 -26 c 0,6,7
 442 -40 442 -40 424 -49 c 256,8,9
 406 -58 406 -58 390 -58 c 0,10,11
 372 -58 372 -58 354 -49 c 0,12,13
 338 -40 338 -40 326 -27 c 0,14,15
 314 -15 314 -15 308 -5 c 2,16,-1
 298 9 l 1,17,18
 290 -1 290 -1 282 -9 c 0,19,20
 276 -16 276 -16 260 -28 c 256,21,22
 244 -40 244 -40 223 -51 c 0,23,24
 202 -61 202 -61 170 -61 c 0,25,26
 152 -61 152 -61 135 -57 c 0,27,28
 118 -51 118 -51 99 -41 c 0,29,30
 79 -31 79 -31 61 -3 c 256,31,32
 43 25 43 25 37 45 c 0,33,34
 31 67 31 67 28 91 c 0,35,36
 26 115 26 115 26 137 c 0,37,38
 26 173 26 173 35 203 c 0,39,40
 43 233 43 233 54 252 c 0,41,42
 64 271 64 271 77 287 c 256,43,44
 90 303 90 303 106 319 c 256,45,46
 122 335 122 335 132 343 c 2,47,-1
 146 354 l 1,48,49
 141 368 141 368 137 380 c 0,50,51
 132 392 132 392 126 419 c 0,52,53
 120 445 120 445 116 465 c 256,54,55
 112 485 112 485 112 501 c 256,56,57
 112 517 112 517 114 537 c 0,58,59
 116 555 116 555 120 577 c 0,60,61
 125 599 125 599 137 619 c 0,62,63
 148 639 148 639 165 653 c 0,64,65
 182 669 182 669 196 674 c 0,66,67
 210 677 210 677 224 679 c 0,68,69
 252 680 252 680 274 671 c 0,70,71
 296 661 296 661 312 645 c 256,72,73
 328 629 328 629 336 610 c 0,74,75
 344 590 344 590 344 563 c 0,76,77
 344 535 344 535 338 509 c 0,78,79
 330 481 330 481 313 455 c 0,80,81
 297 429 297 429 272 409 c 0,82,83
 248 389 248 389 234 379 c 2,84,-1
 205 359 l 1,85,86
 213 337 213 337 224 305 c 0,87,88
 236 273 236 273 261 215 c 256,89,90
 286 157 286 157 306 121 c 2,91,-1
 324 87 l 1,92,93
 332 103 332 103 336 115 c 0,94,95
 341 126 341 126 348 142 c 0,96,97
 354 158 354 158 364 186 c 0,98,99
 373 215 373 215 375 228 c 0,100,101
 378 241 378 241 380 261 c 256,102,103
 382 281 382 281 378 292 c 0,104,105
 374 301 374 301 368 307 c 256,106,107
 362 313 362 313 350 317 c 0,108,109
 340 321 340 321 324 321 c 2,110,-1
 311 321 l 1,111,-1
 311 343 l 1,112,-1
 478 343 l 1,113,-1
 478 321 l 1,114,-1
 468 321 l 2,115,116
 450 321 450 321 440 312 c 256,117,118
 430 303 430 303 424 291 c 256,119,120
 418 279 418 279 412 259 c 2,121,-1
 396 211 l 2,122,123
 390 193 390 193 383 172 c 0,124,125
 375 152 375 152 367 130 c 0,126,127
 358 107 358 107 351 93 c 2,128,-1
 336 62 l 1,129,130
 342 52 342 52 348 43 c 256,131,132
 354 34 354 34 365 21 c 0,133,134
 377 9 377 9 387 3 c 0,135,136
 397 -2 397 -2 406 -2 c 0,137,138
 414 -2 414 -2 423 2 c 0,139,140
 431 6 431 6 439 16 c 0,141,142
 447 27 447 27 452 44 c 0,143,144
 458 61 458 61 462 79 c 2,145,-1
 468 99 l 1,146,-1
 489 97 l 1,0,1
285 30 m 1,147,-1
 258 83 l 2,148,149
 248 104 248 104 230 142 c 2,150,-1
 199 215 l 2,151,152
 185 251 185 251 174 279 c 2,153,-1
 156 327 l 1,154,155
 144 317 144 317 130 301 c 0,156,157
 116 287 116 287 104 260 c 0,158,159
 93 233 93 233 88 204 c 256,160,161
 83 175 83 175 83 151 c 256,162,163
 83 127 83 127 86 103 c 0,164,165
 89 77 89 77 96 56 c 0,166,167
 102 35 102 35 118 16 c 0,168,169
 133 -3 133 -3 153 -13 c 0,170,171
 172 -23 172 -23 198 -21 c 0,172,173
 218 -21 218 -21 229 -15 c 256,174,175
 240 -9 240 -9 255 1 c 0,176,177
 270 13 270 13 274 18 c 2,178,-1
 285 30 l 1,147,-1
196 388 m 1,179,-1
 217 404 l 2,180,181
 229 413 229 413 242 424 c 0,182,183
 254 436 254 436 267 455 c 0,184,185
 281 475 281 475 287 495 c 0,186,187
 293 516 293 516 295 548 c 0,188,189
 296 581 296 581 292 601 c 0,190,191
 286 627 286 627 269 641 c 0,192,193
 254 655 254 655 230 654 c 0,194,195
 200 652 200 652 185 629 c 0,196,197
 170 607 170 607 166 583 c 0,198,199
 162 561 162 561 164 541 c 0,200,201
 164 529 164 529 166 507 c 0,202,203
 169 487 169 487 173 468 c 256,204,205
 177 449 177 449 186 418 c 2,206,-1
 196 388 l 1,179,-1
489 97 m 1,207,208
 485 71 485 71 482 53 c 256,209,210
 479 35 479 35 470 11 c 0,211,212
 462 -13 462 -13 452 -26 c 256,213,214
 442 -39 442 -39 424 -48 c 0,215,216
 406 -58 406 -58 390 -58 c 0,217,218
 372 -58 372 -58 355 -49 c 256,219,220
 338 -40 338 -40 326 -28 c 0,221,222
 314 -15 314 -15 308 -5 c 2,223,-1
 298 9 l 1,224,225
 290 -1 290 -1 283 -8 c 256,226,227
 276 -15 276 -15 260 -28 c 256,228,229
 244 -41 244 -41 223 -51 c 256,230,231
 202 -61 202 -61 170 -61 c 0,232,233
 152 -61 152 -61 135 -56 c 0,234,235
 118 -52 118 -52 99 -42 c 0,236,237
 80 -31 80 -31 62 -4 c 0,238,239
 43 24 43 24 36 46 c 0,240,241
 30 67 30 67 28 92 c 0,242,243
 26 116 26 116 26 137 c 0,244,245
 26 173 26 173 35 203 c 256,246,247
 44 233 44 233 54 252 c 256,248,249
 64 271 64 271 77 287 c 256,250,251
 90 303 90 303 106 319 c 256,252,253
 122 335 122 335 132 343 c 2,254,-1
 146 354 l 1,255,256
 141 368 141 368 137 380 c 256,257,258
 133 392 133 392 126 418 c 0,259,260
 120 445 120 445 116 465 c 0,261,262
 113 485 113 485 112 501 c 0,263,264
 112 517 112 517 114 537 c 0,265,266
 116 555 116 555 121 577 c 256,267,268
 126 599 126 599 137 618 c 0,269,270
 148 638 148 638 165 654 c 0,271,272
 182 669 182 669 196 674 c 256,273,274
 210 679 210 679 224 679 c 0,275,276
 252 680 252 680 274 670 c 0,277,278
 297 661 297 661 312 645 c 0,279,280
 328 629 328 629 336 610 c 0,281,282
 343 591 343 591 344 563 c 0,283,284
 344 535 344 535 338 509 c 0,285,286
 330 481 330 481 313 456 c 0,287,288
 296 430 296 430 272 410 c 0,289,290
 248 389 248 389 234 379 c 2,291,-1
 205 359 l 1,292,293
 213 337 213 337 224 305 c 0,294,295
 236 273 236 273 261 215 c 256,296,297
 286 157 286 157 306 121 c 2,298,-1
 324 87 l 1,299,300
 332 103 332 103 337 114 c 256,301,302
 342 125 342 125 348 142 c 256,303,304
 354 159 354 159 364 187 c 0,305,306
 373 215 373 215 376 228 c 0,307,308
 378 241 378 241 380 262 c 0,309,310
 382 282 382 282 378 292 c 0,311,312
 374 301 374 301 368 307 c 256,313,314
 362 313 362 313 351 317 c 256,315,316
 340 321 340 321 324 321 c 2,317,-1
 311 321 l 1,318,-1
 311 343 l 1,319,-1
 478 343 l 1,320,-1
 478 321 l 1,321,-1
 468 321 l 2,322,323
 450 321 450 321 440 312 c 256,324,325
 430 303 430 303 424 291 c 256,326,327
 418 279 418 279 412 259 c 2,328,-1
 396 211 l 2,329,330
 390 193 390 193 383 172 c 256,331,332
 376 151 376 151 367 130 c 256,333,334
 358 109 358 109 351 93 c 2,335,-1
 336 62 l 1,336,337
 342 52 342 52 348 43 c 256,338,339
 354 34 354 34 365 22 c 0,340,341
 376 9 376 9 387 4 c 0,342,343
 398 -2 398 -2 406 -2 c 0,344,345
 414 -1 414 -1 423 2 c 256,346,347
 432 5 432 5 440 16 c 0,348,349
 447 27 447 27 452 44 c 0,350,351
 458 61 458 61 462 79 c 2,352,-1
 468 99 l 1,353,-1
 489 97 l 1,207,208
285 30 m 1,354,355
 268 62 268 62 258 82 c 0,356,357
 247 103 247 103 230 142 c 0,358,359
 213 180 213 180 198 215 c 0,360,361
 184 251 184 251 174 279 c 2,362,-1
 156 327 l 1,363,364
 144 317 144 317 130 302 c 256,365,366
 116 287 116 287 104 260 c 0,367,368
 93 233 93 233 88 204 c 256,369,370
 83 175 83 175 82 151 c 0,371,372
 82 127 82 127 86 103 c 0,373,374
 89 77 89 77 96 56 c 0,375,376
 102 35 102 35 117 16 c 256,377,378
 132 -3 132 -3 153 -13 c 256,379,380
 174 -23 174 -23 198 -21 c 0,381,382
 218 -21 218 -21 229 -16 c 0,383,384
 240 -10 240 -10 255 2 c 0,385,386
 270 13 270 13 274 18 c 2,387,-1
 285 30 l 1,354,355
196 388 m 1,388,389
 206 396 206 396 217 404 c 0,390,391
 228 413 228 413 241 424 c 0,392,393
 254 436 254 436 267 456 c 0,394,395
 280 475 280 475 287 496 c 0,396,397
 294 516 294 516 295 548 c 0,398,399
 296 581 296 581 292 601 c 0,400,401
 286 627 286 627 269 641 c 256,402,403
 252 655 252 655 230 654 c 0,404,405
 200 652 200 652 185 630 c 0,406,407
 170 607 170 607 166 583 c 0,408,409
 162 561 162 561 164 541 c 0,410,411
 164 529 164 529 166 508 c 0,412,413
 169 487 169 487 173 468 c 256,414,415
 177 449 177 449 182 433 c 2,416,-1
 196 388 l 1,388,389
EndSplineSet
EndChar
StartChar: quotesingle
Encoding: 39 39 10
Width: 512
Flags: W
LayerCount: 2
Back
Fore
SplineSet
220 718 m 2,0,-1
 41 535 l 2,1,2
 33 527 33 527 25 533 c 0,3,4
 16 539 16 539 22 549 c 2,5,-1
 148 771 l 2,6,7
 161 794 161 794 182 802 c 0,8,9
 202 809 202 809 222 795 c 0,10,11
 241 781 241 781 239 759 c 0,12,13
 238 736 238 736 220 718 c 2,0,-1
220 718 m 2,14,-1
 41 535 l 2,15,16
 33 527 33 527 26 533 c 0,17,18
 18 539 18 539 22 549 c 2,19,-1
 148 771 l 2,20,21
 161 794 161 794 182 802 c 0,22,23
 202 810 202 810 221 796 c 0,24,25
 240 781 240 781 239 758 c 0,26,27
 238 736 238 736 220 718 c 2,14,-1
EndSplineSet
EndChar
StartChar: parenleft
Encoding: 40 40 11
Width: 512
Flags: W
LayerCount: 2
Back
Fore
SplineSet
478 781 m 1,0,-1
 482 769 l 1,1,-1
 452 746 l 2,2,3
 438 735 438 735 420 719 c 0,4,5
 401 703 401 703 375 677 c 256,6,7
 349 651 349 651 330 626 c 0,8,9
 312 602 312 602 298 579 c 0,10,11
 284 557 284 557 274 533 c 256,12,13
 264 509 264 509 254 481 c 0,14,15
 245 453 245 453 239 424 c 0,16,17
 233 394 233 394 230 368 c 0,18,19
 228 342 228 342 228 305 c 256,20,21
 228 268 228 268 232 229 c 0,22,23
 236 189 236 189 246 153 c 0,24,25
 255 117 255 117 272 81 c 0,26,27
 290 45 290 45 308 18 c 256,28,29
 326 -9 326 -9 352 -37 c 0,30,31
 377 -65 377 -65 397 -83 c 0,32,33
 416 -102 416 -102 436 -120 c 0,34,35
 456 -137 456 -137 469 -146 c 2,36,-1
 483 -157 l 1,37,-1
 477 -167 l 1,38,39
 461 -159 461 -159 447 -152 c 0,40,41
 434 -144 434 -144 410 -129 c 0,42,43
 386 -113 386 -113 359 -92 c 0,44,45
 332 -70 332 -70 307 -43 c 0,46,47
 282 -15 282 -15 262 13 c 0,48,49
 242 43 242 43 225 75 c 256,50,51
 208 107 208 107 199 134 c 0,52,53
 191 162 191 162 186 185 c 0,54,55
 181 209 181 209 178 240 c 0,56,57
 174 271 174 271 174 303 c 256,58,59
 174 335 174 335 176 364 c 256,60,61
 178 393 178 393 184 423 c 256,62,63
 190 453 190 453 202 487 c 256,64,65
 214 521 214 521 233 555 c 0,66,67
 250 589 250 589 270 614 c 0,68,69
 290 638 290 638 308 657 c 0,70,71
 326 675 326 675 346 692 c 256,72,73
 366 709 366 709 380 720 c 2,74,-1
 424 749 l 2,75,76
 452 769 452 769 465 775 c 2,77,-1
 478 781 l 1,0,-1
478 781 m 1,78,-1
 482 769 l 1,79,80
 466 757 466 757 452 746 c 256,81,82
 438 735 438 735 420 719 c 0,83,84
 401 703 401 703 374 677 c 0,85,86
 348 651 348 651 330 626 c 0,87,88
 312 602 312 602 298 580 c 0,89,90
 284 557 284 557 274 533 c 256,91,92
 264 509 264 509 254 481 c 0,93,94
 245 453 245 453 238 424 c 0,95,96
 232 395 232 395 230 368 c 0,97,98
 228 342 228 342 228 305 c 256,99,100
 228 268 228 268 232 228 c 0,101,102
 236 189 236 189 246 153 c 0,103,104
 255 117 255 117 272 81 c 0,105,106
 290 45 290 45 309 18 c 256,107,108
 328 -9 328 -9 353 -37 c 256,109,110
 378 -65 378 -65 397 -84 c 256,111,112
 416 -103 416 -103 436 -120 c 256,113,114
 456 -137 456 -137 469 -146 c 2,115,-1
 483 -157 l 1,116,-1
 477 -167 l 1,117,118
 461 -159 461 -159 448 -152 c 0,119,120
 434 -145 434 -145 410 -129 c 256,121,122
 386 -113 386 -113 359 -92 c 256,123,124
 332 -71 332 -71 307 -43 c 256,125,126
 282 -15 282 -15 262 14 c 0,127,128
 242 42 242 42 225 74 c 0,129,130
 208 107 208 107 199 134 c 256,131,132
 190 161 190 161 186 185 c 0,133,134
 181 209 181 209 178 240 c 0,135,136
 174 271 174 271 174 303 c 256,137,138
 174 335 174 335 176 364 c 256,139,140
 178 393 178 393 184 423 c 256,141,142
 190 453 190 453 202 488 c 0,143,144
 214 522 214 522 232 556 c 0,145,146
 251 589 251 589 270 614 c 0,147,148
 290 639 290 639 308 657 c 256,149,150
 326 675 326 675 346 692 c 0,151,152
 365 709 365 709 380 720 c 0,153,154
 396 731 396 731 424 749 c 0,155,156
 452 769 452 769 465 775 c 2,157,-1
 478 781 l 1,78,-1
EndSplineSet
EndChar
StartChar: parenright
Encoding: 41 41 12
Width: 512
Flags: W
LayerCount: 2
Back
Fore
SplineSet
34 779 m 1,0,-1
 52 769 l 2,1,2
 62 764 62 764 89 746 c 2,3,-1
 131 718 l 2,4,5
 147 707 147 707 166 690 c 0,6,7
 186 674 186 674 204 655 c 0,8,9
 222 637 222 637 241 612 c 0,10,11
 261 587 261 587 279 553 c 256,12,13
 297 519 297 519 309 485 c 256,14,15
 321 451 321 451 327 421 c 256,16,17
 333 391 333 391 335 362 c 0,18,19
 337 334 337 334 337 304 c 0,20,21
 338 275 338 275 334 239 c 0,22,23
 331 213 331 213 326 189 c 0,24,25
 320 165 320 165 312 139 c 256,26,27
 304 113 304 113 286 79 c 256,28,29
 268 45 268 45 250 18 c 0,30,31
 231 -11 231 -11 204 -39 c 0,32,33
 178 -68 178 -68 152 -88 c 0,34,35
 126 -109 126 -109 100 -127 c 256,36,37
 74 -145 74 -145 60 -151 c 2,38,-1
 35 -163 l 1,39,-1
 29 -153 l 1,40,-1
 48 -138 l 2,41,42
 58 -130 58 -130 76 -115 c 0,43,44
 93 -101 93 -101 115 -79 c 256,45,46
 137 -57 137 -57 160 -32 c 0,47,48
 182 -6 182 -6 202 22 c 0,49,50
 222 51 222 51 239 85 c 0,51,52
 256 120 256 120 266 157 c 256,53,54
 276 194 276 194 279 233 c 0,55,56
 283 273 283 273 283 307 c 256,57,58
 283 341 283 341 281 367 c 256,59,60
 279 393 279 393 273 422 c 256,61,62
 267 451 267 451 257 479 c 0,63,64
 248 507 248 507 238 531 c 256,65,66
 228 555 228 555 214 577 c 0,67,68
 200 600 200 600 182 624 c 256,69,70
 164 648 164 648 137 675 c 0,71,72
 111 701 111 701 90 718 c 2,73,-1
 54 749 l 1,74,-1
 30 767 l 1,75,-1
 34 779 l 1,0,-1
34 779 m 1,76,77
 43 774 43 774 52 769 c 0,78,79
 62 764 62 764 89 746 c 0,80,81
 116 729 116 729 131 718 c 256,82,83
 146 707 146 707 166 690 c 256,84,85
 186 673 186 673 204 655 c 256,86,87
 222 637 222 637 241 612 c 256,88,89
 260 587 260 587 278 554 c 0,90,91
 297 520 297 520 310 486 c 0,92,93
 322 451 322 451 328 421 c 0,94,95
 333 391 333 391 335 362 c 256,96,97
 337 333 337 333 338 304 c 0,98,99
 338 275 338 275 334 239 c 0,100,101
 331 213 331 213 326 189 c 256,102,103
 321 165 321 165 312 139 c 0,104,105
 304 113 304 113 286 79 c 256,106,107
 268 45 268 45 249 18 c 256,108,109
 230 -9 230 -9 204 -38 c 256,110,111
 178 -67 178 -67 152 -88 c 256,112,113
 126 -109 126 -109 100 -127 c 256,114,115
 74 -145 74 -145 60 -151 c 2,116,-1
 35 -163 l 1,117,-1
 29 -153 l 1,118,119
 38 -147 38 -147 48 -138 c 0,120,121
 59 -130 59 -130 76 -116 c 0,122,123
 93 -101 93 -101 115 -79 c 256,124,125
 137 -57 137 -57 160 -32 c 0,126,127
 182 -7 182 -7 202 22 c 256,128,129
 222 51 222 51 239 86 c 256,130,131
 256 121 256 121 266 158 c 0,132,133
 275 194 275 194 279 233 c 256,134,135
 283 272 283 272 284 306 c 0,136,137
 284 341 284 341 282 367 c 0,138,139
 279 393 279 393 272 422 c 0,140,141
 266 451 266 451 257 479 c 256,142,143
 248 507 248 507 238 531 c 0,144,145
 227 555 227 555 214 578 c 0,146,147
 200 600 200 600 182 624 c 0,148,149
 163 649 163 649 136 675 c 0,150,151
 110 701 110 701 90 718 c 256,152,153
 70 735 70 735 54 749 c 2,154,-1
 30 767 l 1,155,-1
 34 779 l 1,76,77
EndSplineSet
EndChar
StartChar: asterisk
Encoding: 42 42 13
Width: 512
Flags: W
LayerCount: 2
Back
Fore
SplineSet
244 330 m 1,0,-1
 214 580 l 2,1,2
 210 606 210 606 220 621 c 0,3,4
 230 637 230 637 254 637 c 256,5,6
 278 637 278 637 290 621 c 256,7,8
 302 605 302 605 298 580 c 2,9,-1
 267 330 l 1,10,-1
 402 472 l 2,11,12
 416 486 416 486 430 488 c 0,13,14
 444 489 444 489 456 482 c 256,15,16
 468 475 468 475 471 465 c 256,17,18
 474 455 474 455 474 446 c 0,19,20
 474 432 474 432 468 422 c 256,21,22
 462 412 462 412 448 404 c 2,23,-1
 278 305 l 1,24,-1
 434 219 l 2,25,26
 456 207 456 207 465 195 c 256,27,28
 474 183 474 183 473 166 c 0,29,30
 471 149 471 149 459 139 c 0,31,32
 446 129 446 129 431 132 c 0,33,34
 416 133 416 133 392 159 c 2,35,-1
 267 285 l 1,36,-1
 298 33 l 2,37,38
 301 9 301 9 290 -6 c 0,39,40
 279 -20 279 -20 255 -20 c 256,41,42
 231 -20 231 -20 221 -6 c 0,43,44
 212 9 212 9 214 33 c 2,45,-1
 244 285 l 1,46,-1
 120 159 l 2,47,48
 96 134 96 134 81 132 c 0,49,50
 65 129 65 129 53 139 c 0,51,52
 40 149 40 149 39 166 c 0,53,54
 36 184 36 184 46 195 c 0,55,56
 55 207 55 207 78 219 c 2,57,-1
 234 305 l 1,58,-1
 64 404 l 2,59,60
 48 412 48 412 43 422 c 256,61,62
 38 432 38 432 38 446 c 0,63,64
 38 454 38 454 41 465 c 0,65,66
 45 475 45 475 56 482 c 0,67,68
 68 489 68 489 82 488 c 0,69,70
 96 486 96 486 110 472 c 2,71,-1
 244 330 l 1,0,-1
244 330 m 1,72,-1
 214 580 l 2,73,74
 210 606 210 606 220 622 c 0,75,76
 230 637 230 637 254 637 c 256,77,78
 278 637 278 637 290 621 c 256,79,80
 302 605 302 605 298 580 c 2,81,-1
 267 330 l 1,82,-1
 402 472 l 2,83,84
 416 486 416 486 430 488 c 0,85,86
 444 489 444 489 456 482 c 0,87,88
 467 475 467 475 470 464 c 0,89,90
 474 454 474 454 474 446 c 0,91,92
 474 432 474 432 468 422 c 256,93,94
 462 412 462 412 448 404 c 2,95,-1
 278 305 l 1,96,-1
 434 219 l 2,97,98
 456 207 456 207 465 195 c 256,99,100
 474 183 474 183 473 166 c 256,101,102
 472 149 472 149 459 140 c 0,103,104
 446 130 446 130 431 132 c 0,105,106
 416 135 416 135 392 159 c 2,107,-1
 267 285 l 1,108,-1
 298 33 l 2,109,110
 301 9 301 9 290 -6 c 0,111,112
 279 -20 279 -20 256 -20 c 0,113,114
 232 -19 232 -19 221 -5 c 256,115,116
 210 9 210 9 214 33 c 2,117,-1
 244 285 l 1,118,-1
 120 159 l 2,119,120
 96 134 96 134 81 132 c 256,121,122
 66 130 66 130 53 140 c 0,123,124
 40 149 40 149 39 166 c 256,125,126
 38 183 38 183 47 195 c 256,127,128
 56 207 56 207 78 219 c 2,129,-1
 234 305 l 1,130,-1
 64 404 l 2,131,132
 48 412 48 412 43 422 c 0,133,134
 38 431 38 431 38 446 c 0,135,136
 38 454 38 454 41 464 c 0,137,138
 44 475 44 475 56 482 c 256,139,140
 68 489 68 489 82 488 c 256,141,142
 96 487 96 487 110 472 c 2,143,-1
 244 330 l 1,72,-1
EndSplineSet
EndChar
StartChar: plus
Encoding: 43 43 14
Width: 512
Flags: W
LayerCount: 2
Back
Fore
SplineSet
237 649 m 1,0,-1
 276 649 l 1,1,-1
 276 324 l 1,2,-1
 466 324 l 1,3,-1
 466 286 l 1,4,-1
 276 286 l 1,5,-1
 276 -35 l 1,6,-1
 237 -35 l 1,7,-1
 237 286 l 1,8,-1
 45 286 l 1,9,-1
 45 324 l 1,10,-1
 237 324 l 1,11,-1
 237 649 l 1,0,-1
237 649 m 1,12,-1
 276 649 l 1,13,-1
 276 324 l 1,14,-1
 466 324 l 1,15,-1
 466 286 l 1,16,-1
 276 286 l 1,17,-1
 276 -35 l 1,18,-1
 237 -35 l 1,19,-1
 237 286 l 1,20,-1
 45 286 l 1,21,-1
 45 324 l 1,22,-1
 237 324 l 1,23,-1
 237 649 l 1,12,-1
EndSplineSet
EndChar
StartChar: comma
Encoding: 44 44 15
Width: 512
Flags: W
LayerCount: 2
Back
Fore
SplineSet
68 -195 m 1,0,-1
 54 -179 l 1,1,-1
 75 -155 l 2,2,3
 85 -145 85 -145 95 -129 c 0,4,5
 105 -114 105 -114 111 -101 c 0,6,7
 117 -87 117 -87 117 -75 c 0,8,9
 117 -66 117 -66 113 -61 c 0,10,11
 110 -56 110 -56 100 -52 c 2,12,-1
 76 -46 l 2,13,14
 58 -40 58 -40 50 -29 c 0,15,16
 42 -17 42 -17 42 1 c 256,17,18
 42 19 42 19 49 33 c 0,19,20
 57 49 57 49 71 56 c 0,21,22
 84 63 84 63 98 64 c 0,23,24
 114 65 114 65 128 59 c 256,25,26
 142 53 142 53 154 41 c 0,27,28
 165 29 165 29 171 14 c 0,29,30
 176 -1 176 -1 176 -25 c 0,31,32
 176 -38 176 -38 173 -55 c 0,33,34
 169 -73 169 -73 163 -89 c 0,35,36
 156 -105 156 -105 143 -123 c 256,37,38
 130 -141 130 -141 114 -157 c 256,39,40
 98 -173 98 -173 92 -178 c 2,41,-1
 68 -195 l 1,0,-1
68 -195 m 1,42,-1
 54 -179 l 1,43,44
 66 -167 66 -167 75 -156 c 256,45,46
 84 -145 84 -145 95 -130 c 256,47,48
 106 -115 106 -115 112 -101 c 0,49,50
 117 -87 117 -87 117 -75 c 0,51,52
 117 -66 117 -66 114 -61 c 0,53,54
 110 -56 110 -56 100 -52 c 2,55,-1
 76 -46 l 2,56,57
 58 -40 58 -40 50 -28 c 0,58,59
 42 -17 42 -17 42 1 c 256,60,61
 42 19 42 19 49 33 c 0,62,63
 57 49 57 49 70 56 c 0,64,65
 84 63 84 63 98 64 c 0,66,67
 114 65 114 65 128 59 c 256,68,69
 142 53 142 53 154 41 c 0,70,71
 165 29 165 29 171 14 c 0,72,73
 176 -1 176 -1 176 -25 c 0,74,75
 176 -38 176 -38 173 -56 c 0,76,77
 170 -73 170 -73 163 -89 c 256,78,79
 156 -105 156 -105 143 -123 c 256,80,81
 130 -141 130 -141 114 -157 c 256,82,83
 98 -173 98 -173 92 -178 c 2,84,-1
 68 -195 l 1,42,-1
EndSplineSet
EndChar
StartChar: period
Encoding: 46 46 17
Width: 512
Flags: W
LayerCount: 2
Back
Fore
SplineSet
107 70 m 0,0,1
 123 70 123 70 140 61 c 0,2,3
 156 53 156 53 175 2 c 1,4,5
 175 -16 175 -16 166 -32 c 0,6,7
 156 -49 156 -49 141 -57 c 0,8,9
 125 -65 125 -65 107 -65 c 256,10,11
 89 -65 89 -65 73 -56 c 256,12,13
 57 -47 57 -47 48 -32 c 0,14,15
 39 -16 39 -16 39 2 c 256,16,17
 39 20 39 20 48 36 c 0,18,19
 58 52 58 52 74 61 c 256,20,21
 90 70 90 70 107 70 c 0,0,1
107 70 m 0,22,23
 123 70 123 70 140 62 c 0,24,25
 156 53 156 53 175 2 c 1,26,27
 175 -16 175 -16 166 -32 c 0,28,29
 156 -47 156 -47 140 -56 c 0,30,31
 125 -65 125 -65 107 -65 c 256,32,33
 89 -65 89 -65 73 -56 c 256,34,35
 57 -47 57 -47 48 -32 c 0,36,37
 39 -16 39 -16 39 2 c 256,38,39
 39 20 39 20 48 36 c 0,40,41
 58 52 58 52 74 61 c 256,42,43
 90 70 90 70 107 70 c 0,22,23
EndSplineSet
EndChar
StartChar: slash
Encoding: 47 47 18
Width: 512
Flags: W
LayerCount: 2
Back
Fore
SplineSet
478 752 m 1,0,-1
 66 -151 l 1,1,-1
 36 -135 l 1,2,-1
 446 769 l 1,3,-1
 478 752 l 1,0,-1
478 752 m 1,4,-1
 66 -151 l 1,5,-1
 36 -135 l 1,6,-1
 446 769 l 1,7,-1
 478 752 l 1,4,-1
EndSplineSet
EndChar
StartChar: zero
Encoding: 48 48 19
Width: 512
Flags: W
LayerCount: 2
Back
Fore
SplineSet
255 -64 m 0,0,1
 245 -64 245 -64 232 -61 c 0,2,3
 218 -59 218 -59 198 -51 c 256,4,5
 178 -43 178 -43 160 -25 c 0,6,7
 142 -8 142 -8 126 23 c 0,8,9
 110 53 110 53 101 83 c 0,10,11
 91 113 91 113 86 151 c 256,12,13
 81 189 81 189 78 225 c 0,14,15
 76 261 76 261 76 305 c 0,16,17
 76 348 76 348 79 392 c 0,18,19
 81 435 81 435 86 469 c 0,20,21
 91 504 91 504 101 538 c 0,22,23
 111 573 111 573 127 599 c 0,24,25
 142 625 142 625 163 645 c 256,26,27
 184 665 184 665 207 673 c 0,28,29
 230 682 230 682 254 683 c 0,30,31
 282 683 282 683 303 673 c 0,32,33
 323 663 323 663 343 648 c 0,34,35
 363 632 363 632 378 608 c 0,36,37
 394 585 394 585 403 561 c 256,38,39
 412 537 412 537 420 508 c 0,40,41
 428 478 428 478 431 448 c 0,42,43
 435 418 435 418 438 378 c 0,44,45
 440 337 440 337 440 303 c 256,46,47
 440 269 440 269 438 240 c 0,48,49
 436 210 436 210 430 164 c 256,50,51
 424 118 424 118 412 76 c 0,52,53
 398 34 398 34 380 9 c 256,54,55
 362 -16 362 -16 345 -31 c 0,56,57
 327 -46 327 -46 311 -53 c 0,58,59
 296 -60 296 -60 280 -62 c 256,60,61
 264 -64 264 -64 255 -64 c 0,0,1
254 649 m 0,62,63
 226 647 226 647 207 633 c 0,64,65
 186 619 186 619 174 589 c 256,66,67
 162 559 162 559 156 522 c 0,68,69
 150 486 150 486 147 455 c 0,70,71
 145 425 145 425 143 373 c 0,72,73
 142 322 142 322 142 306 c 0,74,75
 142 301 142 301 143 259 c 2,76,-1
 145 197 l 2,77,78
 147 163 147 163 153 116 c 0,79,80
 159 70 159 70 173 36 c 0,81,82
 187 3 187 3 203 -9 c 256,83,84
 219 -21 219 -21 230 -26 c 0,85,86
 242 -30 242 -30 256 -30 c 0,87,88
 268 -30 268 -30 281 -26 c 256,89,90
 294 -22 294 -22 311 -9 c 0,91,92
 327 3 327 3 339 33 c 0,93,94
 350 62 350 62 358 111 c 0,95,96
 366 161 366 161 368 184 c 0,97,98
 369 207 369 207 371 251 c 256,99,100
 373 295 373 295 373 313 c 256,101,102
 373 331 373 331 372 372 c 0,103,104
 370 424 370 424 367 458 c 0,105,106
 363 491 363 491 357 524 c 256,107,108
 351 557 351 557 339 583 c 256,109,110
 327 609 327 609 314 623 c 0,111,112
 300 637 300 637 284 644 c 0,113,114
 268 649 268 649 254 649 c 0,62,63
255 -64 m 0,115,116
 245 -64 245 -64 232 -62 c 0,117,118
 218 -59 218 -59 198 -51 c 256,119,120
 178 -43 178 -43 160 -26 c 0,121,122
 142 -8 142 -8 126 23 c 256,123,124
 110 54 110 54 101 84 c 0,125,126
 92 113 92 113 86 151 c 0,127,128
 81 189 81 189 78 225 c 0,129,130
 76 261 76 261 76 304 c 256,131,132
 76 347 76 347 79 392 c 0,133,134
 81 434 81 434 86 468 c 0,135,136
 91 503 91 503 102 538 c 0,137,138
 112 573 112 573 127 599 c 256,139,140
 142 625 142 625 163 645 c 256,141,142
 184 665 184 665 207 674 c 256,143,144
 230 683 230 683 254 683 c 0,145,146
 282 683 282 683 303 674 c 0,147,148
 324 664 324 664 343 648 c 0,149,150
 362 631 362 631 378 608 c 256,151,152
 394 585 394 585 403 561 c 256,153,154
 412 537 412 537 420 508 c 0,155,156
 427 479 427 479 432 448 c 0,157,158
 436 418 436 418 438 378 c 0,159,160
 440 337 440 337 440 303 c 256,161,162
 440 269 440 269 438 240 c 0,163,164
 436 210 436 210 430 164 c 0,165,166
 425 118 425 118 412 76 c 0,167,168
 398 34 398 34 380 9 c 0,169,170
 363 -16 363 -16 345 -31 c 256,171,172
 327 -46 327 -46 311 -53 c 256,173,174
 295 -60 295 -60 280 -62 c 0,175,176
 264 -64 264 -64 255 -64 c 0,115,116
254 649 m 0,177,178
 226 647 226 647 206 633 c 0,179,180
 187 619 187 619 174 588 c 0,181,182
 162 558 162 558 156 522 c 0,183,184
 149 485 149 485 147 455 c 256,185,186
 145 425 145 425 143 374 c 0,187,188
 142 323 142 323 142 306 c 0,189,190
 142 301 142 301 143 259 c 2,191,-1
 145 197 l 2,192,193
 147 163 147 163 154 116 c 0,194,195
 160 69 160 69 174 36 c 0,196,197
 187 3 187 3 202 -10 c 0,198,199
 218 -22 218 -22 230 -26 c 0,200,201
 242 -31 242 -31 256 -30 c 0,202,203
 268 -30 268 -30 281 -26 c 256,204,205
 294 -22 294 -22 311 -10 c 0,206,207
 328 3 328 3 340 32 c 0,208,209
 351 61 351 61 358 111 c 0,210,211
 366 161 366 161 368 184 c 0,212,213
 369 207 369 207 370 251 c 0,214,215
 372 295 372 295 372 313 c 0,216,217
 373 331 373 331 372 372 c 0,218,219
 370 424 370 424 367 458 c 0,220,221
 364 491 364 491 357 524 c 256,222,223
 350 557 350 557 339 582 c 0,224,225
 328 608 328 608 314 622 c 0,226,227
 300 637 300 637 284 643 c 256,228,229
 268 649 268 649 254 649 c 0,177,178
EndSplineSet
EndChar
StartChar: one
Encoding: 49 49 20
Width: 512
Flags: W
LayerCount: 2
Back
Fore
SplineSet
264 681 m 1,0,-1
 288 681 l 1,1,-1
 288 47 l 2,2,3
 288 23 288 23 293 11 c 0,4,5
 299 -1 299 -1 311 -8 c 0,6,7
 322 -15 322 -15 346 -15 c 2,8,-1
 388 -15 l 1,9,-1
 388 -45 l 1,10,-1
 124 -45 l 1,11,-1
 124 -15 l 1,12,-1
 174 -15 l 2,13,14
 194 -15 194 -15 208 -8 c 256,15,16
 222 -1 222 -1 227 11 c 0,17,18
 234 23 234 23 234 47 c 2,19,-1
 234 553 l 2,20,21
 234 573 234 573 225 583 c 0,22,23
 217 592 217 592 193 593 c 2,24,-1
 122 593 l 1,25,-1
 122 625 l 1,26,-1
 142 625 l 2,27,28
 160 625 160 625 183 631 c 0,29,30
 204 637 204 637 220 647 c 256,31,32
 236 657 236 657 246 667 c 2,33,-1
 264 681 l 1,0,-1
264 681 m 1,34,-1
 288 681 l 1,35,-1
 288 47 l 2,36,37
 288 23 288 23 294 11 c 0,38,39
 299 -1 299 -1 311 -8 c 0,40,41
 322 -15 322 -15 346 -15 c 2,42,-1
 388 -15 l 1,43,-1
 388 -45 l 1,44,-1
 124 -45 l 1,45,-1
 124 -15 l 1,46,-1
 174 -15 l 2,47,48
 194 -15 194 -15 208 -8 c 0,49,50
 221 -1 221 -1 228 11 c 0,51,52
 234 23 234 23 234 47 c 2,53,-1
 234 553 l 2,54,55
 234 574 234 574 225 584 c 0,56,57
 216 593 216 593 193 593 c 2,58,-1
 122 593 l 1,59,-1
 122 625 l 1,60,-1
 142 625 l 2,61,62
 160 625 160 625 182 631 c 0,63,64
 205 637 205 637 220 647 c 0,65,66
 236 657 236 657 246 667 c 2,67,-1
 264 681 l 1,34,-1
EndSplineSet
EndChar
StartChar: two
Encoding: 50 50 21
Width: 512
Flags: W
LayerCount: 2
Back
Fore
SplineSet
453 120 m 1,0,-1
 441 -45 l 1,1,-1
 61 -45 l 1,2,-1
 62 -31 l 2,3,4
 62 -23 62 -23 64 -13 c 0,5,6
 65 -3 65 -3 72 29 c 256,7,8
 79 61 79 61 89 86 c 0,9,10
 99 113 99 113 108 127 c 0,11,12
 117 142 117 142 134 164 c 0,13,14
 152 186 152 186 169 206 c 0,15,16
 187 225 187 225 206 242 c 2,17,-1
 254 284 l 1,18,-1
 301 323 l 2,19,20
 319 339 319 339 341 361 c 256,21,22
 363 383 363 383 378 419 c 0,23,24
 395 455 395 455 391 507 c 0,25,26
 389 535 389 535 379 563 c 0,27,28
 371 591 371 591 353 609 c 0,29,30
 335 628 335 628 309 638 c 0,31,32
 284 647 284 647 262 649 c 0,33,34
 236 651 236 651 214 645 c 256,35,36
 192 639 192 639 175 631 c 0,37,38
 157 623 157 623 146 615 c 0,39,40
 136 607 136 607 122 589 c 256,41,42
 108 571 108 571 102 549 c 0,43,44
 97 528 97 528 97 516 c 0,45,46
 97 502 97 502 101 495 c 0,47,48
 105 487 105 487 110 485 c 256,49,50
 115 483 115 483 123 480 c 0,51,52
 131 478 131 478 135 474 c 256,53,54
 139 470 139 470 143 462 c 0,55,56
 147 455 147 455 147 445 c 0,57,58
 146 431 146 431 138 421 c 0,59,60
 131 411 131 411 113 411 c 0,61,62
 101 411 101 411 91 416 c 0,63,64
 81 422 81 422 74 433 c 0,65,66
 66 445 66 445 63 457 c 256,67,68
 60 469 60 469 60 491 c 0,69,70
 59 513 59 513 67 543 c 0,71,72
 73 567 73 567 87 591 c 256,73,74
 101 615 101 615 118 630 c 0,75,76
 135 644 135 644 149 653 c 0,77,78
 163 661 163 661 179 667 c 0,79,80
 194 673 194 673 214 677 c 256,81,82
 234 681 234 681 257 681 c 0,83,84
 283 681 283 681 308 676 c 0,85,86
 333 670 333 670 364 654 c 0,87,88
 395 637 395 637 422 601 c 256,89,90
 449 565 449 565 451 517 c 256,91,92
 453 469 453 469 442 434 c 0,93,94
 427 387 427 387 402 359 c 256,95,96
 377 331 377 331 352 311 c 0,97,98
 328 291 328 291 307 275 c 2,99,-1
 277 253 l 1,100,-1
 238 224 l 2,101,102
 215 206 215 206 199 189 c 0,103,104
 183 173 183 173 169 156 c 256,105,106
 155 139 155 139 146 125 c 256,107,108
 137 111 137 111 129 95 c 256,109,110
 121 79 121 79 117 69 c 0,111,112
 115 59 115 59 107 23 c 2,113,-1
 105 8 l 1,114,-1
 346 8 l 2,115,116
 362 8 362 8 375 11 c 0,117,118
 387 14 387 14 398 26 c 0,119,120
 408 38 408 38 414 63 c 2,121,-1
 427 120 l 1,122,-1
 453 120 l 1,0,-1
453 120 m 1,123,-1
 441 -45 l 1,124,-1
 61 -45 l 1,125,-1
 62 -31 l 2,126,127
 62 -23 62 -23 63 -13 c 0,128,129
 65 -3 65 -3 72 29 c 256,130,131
 79 61 79 61 89 86 c 256,132,133
 99 111 99 111 108 126 c 256,134,135
 117 141 117 141 134 164 c 256,136,137
 151 187 151 187 169 206 c 256,138,139
 187 225 187 225 206 242 c 256,140,141
 225 259 225 259 254 284 c 0,142,143
 283 308 283 308 301 323 c 256,144,145
 319 338 319 338 341 360 c 0,146,147
 363 383 363 383 378 419 c 256,148,149
 393 455 393 455 391 507 c 0,150,151
 389 535 389 535 380 563 c 256,152,153
 371 591 371 591 353 610 c 256,154,155
 335 629 335 629 310 638 c 256,156,157
 285 647 285 647 262 649 c 0,158,159
 236 651 236 651 215 646 c 0,160,161
 193 640 193 640 175 632 c 0,162,163
 157 623 157 623 146 615 c 256,164,165
 135 607 135 607 121 588 c 0,166,167
 108 570 108 570 102 549 c 0,168,169
 97 528 97 528 97 516 c 0,170,171
 97 502 97 502 101 495 c 256,172,173
 105 488 105 488 110 486 c 0,174,175
 115 483 115 483 123 480 c 256,176,177
 131 477 131 477 135 474 c 0,178,179
 139 470 139 470 143 462 c 0,180,181
 147 455 147 455 147 445 c 0,182,183
 146 431 146 431 137 421 c 0,184,185
 129 411 129 411 113 411 c 0,186,187
 102 411 102 411 91 416 c 0,188,189
 81 421 81 421 74 433 c 256,190,191
 67 445 67 445 63 456 c 0,192,193
 60 468 60 468 60 491 c 0,194,195
 59 513 59 513 67 543 c 0,196,197
 73 567 73 567 87 591 c 256,198,199
 101 615 101 615 118 630 c 256,200,201
 135 645 135 645 149 653 c 0,202,203
 164 661 164 661 179 667 c 256,204,205
 194 673 194 673 215 677 c 0,206,207
 235 681 235 681 257 681 c 0,208,209
 283 681 283 681 308 676 c 256,210,211
 333 671 333 671 364 654 c 256,212,213
 395 637 395 637 422 601 c 256,214,215
 449 565 449 565 451 517 c 256,216,217
 453 469 453 469 442 434 c 0,218,219
 427 386 427 386 402 358 c 0,220,221
 377 331 377 331 352 311 c 256,222,223
 327 291 327 291 307 275 c 2,224,-1
 277 253 l 2,225,226
 262 242 262 242 239 224 c 0,227,228
 215 205 215 205 199 189 c 0,229,230
 182 173 182 173 169 156 c 0,231,232
 155 139 155 139 146 126 c 0,233,234
 137 112 137 112 129 96 c 0,235,236
 120 79 120 79 117 69 c 0,237,238
 115 59 115 59 107 23 c 2,239,-1
 105 8 l 1,240,-1
 346 8 l 2,241,242
 362 8 362 8 375 11 c 0,243,244
 387 14 387 14 397 26 c 0,245,246
 408 39 408 39 414 63 c 2,247,-1
 427 120 l 1,248,-1
 453 120 l 1,123,-1
EndSplineSet
EndChar
StartChar: three
Encoding: 51 51 22
Width: 512
Flags: W
LayerCount: 2
Back
Fore
SplineSet
232 349 m 1,0,1
 239 348 239 348 244 348 c 256,2,3
 249 348 249 348 261 351 c 0,4,5
 273 353 273 353 292 362 c 0,6,7
 310 371 310 371 327 389 c 256,8,9
 344 407 344 407 351 421 c 0,10,11
 358 434 358 434 362 458 c 256,12,13
 366 482 366 482 368 504 c 0,14,15
 368 526 368 526 364 549 c 0,16,17
 360 565 360 565 353 581 c 0,18,19
 345 598 345 598 332 612 c 0,20,21
 318 626 318 626 302 633 c 0,22,23
 285 641 285 641 269 643 c 0,24,25
 254 646 254 646 238 647 c 0,26,27
 230 647 230 647 218 646 c 256,28,29
 206 645 206 645 192 641 c 256,30,31
 178 637 178 637 168 633 c 0,32,33
 158 628 158 628 148 620 c 0,34,35
 138 613 138 613 131 603 c 0,36,37
 123 593 123 593 120 580 c 0,38,39
 116 568 116 568 118 558 c 0,40,41
 118 552 118 552 120 548 c 256,42,43
 122 544 122 544 125 541 c 0,44,45
 128 537 128 537 134 535 c 256,46,47
 140 533 140 533 147 530 c 256,48,49
 154 527 154 527 160 519 c 256,50,51
 166 511 166 511 166 497 c 256,52,53
 166 483 166 483 156 472 c 0,54,55
 146 460 146 460 132 460 c 0,56,57
 118 459 118 459 104 471 c 0,58,59
 91 481 91 481 86 499 c 0,60,61
 80 516 80 516 82 537 c 0,62,63
 82 549 82 549 84 563 c 0,64,65
 87 577 87 577 93 592 c 0,66,67
 99 608 99 608 111 622 c 0,68,69
 123 637 123 637 140 650 c 0,70,71
 158 662 158 662 179 670 c 0,72,73
 200 679 200 679 218 681 c 0,74,75
 234 683 234 683 250 683 c 0,76,77
 262 683 262 683 276 681 c 0,78,79
 288 679 288 679 308 674 c 0,80,81
 329 668 329 668 350 656 c 256,82,83
 371 644 371 644 390 620 c 0,84,85
 410 597 410 597 419 567 c 0,86,87
 429 537 429 537 427 499 c 0,88,89
 426 481 426 481 422 461 c 0,90,91
 418 440 418 440 406 419 c 0,92,93
 394 397 394 397 379 382 c 0,94,95
 364 366 364 366 348 356 c 0,96,97
 332 347 332 347 324 343 c 2,98,-1
 308 337 l 1,99,100
 315 335 315 335 321 333 c 0,101,102
 326 331 326 331 340 325 c 256,103,104
 354 319 354 319 370 308 c 256,105,106
 386 297 386 297 403 277 c 0,107,108
 421 257 421 257 434 221 c 0,109,110
 448 187 448 187 447 142 c 0,111,112
 446 88 446 88 429 53 c 0,113,114
 412 19 412 19 396 1 c 256,115,116
 380 -17 380 -17 358 -30 c 0,117,118
 337 -44 337 -44 320 -50 c 0,119,120
 302 -56 302 -56 292 -58 c 0,121,122
 281 -59 281 -59 264 -61 c 0,123,124
 246 -63 246 -63 240 -63 c 0,125,126
 230 -63 230 -63 214 -62 c 0,127,128
 198 -60 198 -60 183 -56 c 0,129,130
 169 -52 169 -52 156 -46 c 0,131,132
 144 -40 144 -40 129 -29 c 0,133,134
 115 -19 115 -19 103 -5 c 256,135,136
 91 9 91 9 84 23 c 0,137,138
 76 37 76 37 72 51 c 256,139,140
 68 65 68 65 66 74 c 0,141,142
 66 82 66 82 66 94 c 0,143,144
 66 114 66 114 68 129 c 0,145,146
 71 143 71 143 79 153 c 0,147,148
 86 163 86 163 96 167 c 256,149,150
 106 171 106 171 114 171 c 0,151,152
 121 171 121 171 129 165 c 0,153,154
 137 161 137 161 144 151 c 0,155,156
 150 141 150 141 150 129 c 256,157,158
 150 117 150 117 144 111 c 0,159,160
 139 105 139 105 129 100 c 256,161,162
 119 95 119 95 114 91 c 256,163,164
 109 87 109 87 107 83 c 0,165,166
 104 79 104 79 104 72 c 0,167,168
 104 67 104 67 106 57 c 256,169,170
 108 47 108 47 113 35 c 256,171,172
 118 23 118 23 128 13 c 0,173,174
 138 2 138 2 150 -5 c 0,175,176
 160 -13 160 -13 174 -18 c 0,177,178
 187 -24 187 -24 201 -27 c 0,179,180
 216 -29 216 -29 232 -29 c 0,181,182
 250 -29 250 -29 268 -27 c 0,183,184
 286 -23 286 -23 301 -16 c 0,185,186
 316 -8 316 -8 327 -1 c 0,187,188
 337 7 337 7 350 21 c 0,189,190
 362 35 362 35 371 53 c 0,191,192
 379 72 379 72 383 99 c 0,193,194
 386 125 386 125 386 148 c 256,195,196
 386 171 386 171 383 191 c 256,197,198
 380 211 380 211 376 228 c 0,199,200
 372 246 372 246 361 262 c 0,201,202
 351 278 351 278 333 291 c 0,203,204
 315 303 315 303 303 308 c 0,205,206
 291 311 291 311 274 315 c 0,207,208
 258 319 258 319 252 319 c 2,209,-1
 235 321 l 1,210,-1
 232 321 l 1,211,-1
 232 349 l 1,0,1
232 349 m 1,212,213
 239 348 239 348 244 348 c 0,214,215
 249 349 249 349 261 351 c 256,216,217
 273 353 273 353 292 362 c 0,218,219
 310 371 310 371 327 389 c 256,220,221
 344 407 344 407 351 420 c 0,222,223
 358 434 358 434 362 458 c 0,224,225
 367 482 367 482 368 504 c 0,226,227
 368 527 368 527 364 549 c 0,228,229
 360 565 360 565 353 582 c 256,230,231
 346 599 346 599 332 612 c 0,232,233
 318 626 318 626 301 634 c 0,234,235
 284 641 284 641 268 644 c 0,236,237
 254 647 254 647 238 647 c 0,238,239
 230 647 230 647 218 646 c 256,240,241
 206 645 206 645 192 641 c 0,242,243
 179 637 179 637 168 632 c 0,244,245
 158 627 158 627 148 620 c 256,246,247
 138 613 138 613 131 603 c 256,248,249
 124 593 124 593 120 580 c 256,250,251
 116 567 116 567 118 558 c 0,252,253
 118 552 118 552 120 548 c 0,254,255
 122 543 122 543 125 540 c 0,256,257
 128 538 128 538 134 536 c 0,258,259
 140 533 140 533 147 530 c 256,260,261
 154 527 154 527 160 519 c 256,262,263
 166 511 166 511 166 497 c 256,264,265
 166 483 166 483 156 472 c 0,266,267
 147 460 147 460 132 460 c 0,268,269
 118 459 118 459 104 471 c 0,270,271
 91 482 91 482 86 500 c 0,272,273
 80 517 80 517 82 537 c 0,274,275
 82 549 82 549 84 563 c 0,276,277
 87 577 87 577 94 592 c 0,278,279
 100 607 100 607 111 622 c 256,280,281
 122 637 122 637 140 650 c 256,282,283
 158 663 158 663 179 671 c 256,284,285
 200 679 200 679 218 681 c 0,286,287
 234 683 234 683 250 683 c 0,288,289
 262 683 262 683 275 682 c 0,290,291
 288 680 288 680 308 674 c 0,292,293
 329 668 329 668 350 656 c 256,294,295
 371 644 371 644 390 620 c 0,296,297
 410 597 410 597 419 567 c 256,298,299
 428 537 428 537 427 499 c 0,300,301
 426 482 426 482 422 462 c 0,302,303
 418 441 418 441 406 419 c 256,304,305
 394 397 394 397 379 382 c 0,306,307
 364 366 364 366 348 356 c 0,308,309
 332 345 332 345 324 343 c 2,310,-1
 308 337 l 1,311,312
 315 335 315 335 320 333 c 0,313,314
 326 331 326 331 340 325 c 256,315,316
 354 319 354 319 370 308 c 0,317,318
 385 297 385 297 402 276 c 0,319,320
 420 256 420 256 434 222 c 0,321,322
 448 187 448 187 447 142 c 0,323,324
 446 88 446 88 429 54 c 0,325,326
 412 19 412 19 396 1 c 256,327,328
 380 -17 380 -17 358 -30 c 0,329,330
 337 -43 337 -43 320 -50 c 0,331,332
 302 -56 302 -56 292 -58 c 0,333,334
 281 -59 281 -59 264 -61 c 0,335,336
 246 -63 246 -63 240 -63 c 0,337,338
 230 -63 230 -63 214 -61 c 256,339,340
 198 -59 198 -59 184 -56 c 0,341,342
 169 -52 169 -52 156 -46 c 0,343,344
 144 -40 144 -40 130 -30 c 0,345,346
 115 -19 115 -19 103 -5 c 256,347,348
 91 9 91 9 84 23 c 0,349,350
 76 37 76 37 72 51 c 256,351,352
 68 65 68 65 67 74 c 256,353,354
 66 83 66 83 66 94 c 0,355,356
 66 114 66 114 69 128 c 0,357,358
 72 143 72 143 79 153 c 256,359,360
 86 163 86 163 96 167 c 256,361,362
 106 171 106 171 114 171 c 0,363,364
 121 171 121 171 130 166 c 0,365,366
 138 161 138 161 144 151 c 256,367,368
 150 141 150 141 150 129 c 0,369,370
 149 117 149 117 144 111 c 0,371,372
 138 105 138 105 128 100 c 0,373,374
 119 95 119 95 114 91 c 256,375,376
 109 87 109 87 107 83 c 256,377,378
 105 79 105 79 104 72 c 0,379,380
 104 65 104 65 106 57 c 0,381,382
 108 47 108 47 113 36 c 256,383,384
 118 25 118 25 128 14 c 0,385,386
 139 3 139 3 150 -5 c 0,387,388
 160 -13 160 -13 173 -18 c 0,389,390
 186 -24 186 -24 200 -27 c 0,391,392
 216 -29 216 -29 232 -29 c 0,393,394
 250 -29 250 -29 268 -26 c 256,395,396
 286 -23 286 -23 301 -16 c 256,397,398
 316 -9 316 -9 327 -1 c 256,399,400
 338 7 338 7 350 21 c 256,401,402
 362 35 362 35 370 54 c 0,403,404
 379 73 379 73 382 99 c 0,405,406
 386 125 386 125 386 148 c 0,407,408
 386 170 386 170 383 190 c 0,409,410
 380 211 380 211 376 228 c 0,411,412
 371 246 371 246 360 262 c 0,413,414
 350 279 350 279 333 291 c 256,415,416
 316 303 316 303 303 308 c 0,417,418
 290 312 290 312 274 316 c 0,419,420
 258 319 258 319 252 319 c 2,421,-1
 235 321 l 1,422,-1
 232 321 l 1,423,-1
 232 349 l 1,212,213
EndSplineSet
EndChar
StartChar: four
Encoding: 52 52 23
Width: 512
Flags: W
LayerCount: 2
Back
Fore
SplineSet
376 165 m 1,0,-1
 471 165 l 1,1,-1
 471 134 l 1,2,-1
 376 134 l 1,3,-1
 376 36 l 2,4,5
 376 25 376 25 379 15 c 0,6,7
 383 5 383 5 388 -1 c 0,8,9
 394 -7 394 -7 404 -10 c 0,10,11
 414 -14 414 -14 428 -14 c 2,12,-1
 454 -14 l 1,13,-1
 454 -45 l 1,14,-1
 236 -45 l 1,15,-1
 236 -14 l 1,16,-1
 272 -14 l 2,17,18
 282 -14 282 -14 293 -11 c 0,19,20
 302 -9 302 -9 308 -3 c 0,21,22
 314 2 314 2 318 11 c 0,23,24
 322 21 322 21 323 36 c 2,25,-1
 323 134 l 1,26,-1
 40 134 l 1,27,-1
 40 162 l 1,28,-1
 351 683 l 1,29,-1
 376 683 l 1,30,-1
 376 165 l 1,0,-1
74 165 m 1,31,-1
 323 165 l 1,32,-1
 323 571 l 1,33,-1
 74 165 l 1,31,-1
376 165 m 1,34,-1
 471 165 l 1,35,-1
 471 134 l 1,36,-1
 376 134 l 1,37,-1
 376 36 l 2,38,39
 376 25 376 25 379 14 c 0,40,41
 382 4 382 4 388 -2 c 0,42,43
 394 -7 394 -7 404 -10 c 0,44,45
 414 -14 414 -14 428 -14 c 2,46,-1
 454 -14 l 1,47,-1
 454 -45 l 1,48,-1
 236 -45 l 1,49,-1
 236 -14 l 1,50,-1
 272 -14 l 2,51,52
 282 -14 282 -14 292 -12 c 0,53,54
 303 -9 303 -9 308 -4 c 0,55,56
 314 2 314 2 318 12 c 0,57,58
 323 21 323 21 323 36 c 2,59,-1
 323 134 l 1,60,-1
 40 134 l 1,61,-1
 40 162 l 1,62,-1
 351 683 l 1,63,-1
 376 683 l 1,64,-1
 376 165 l 1,34,-1
74 165 m 1,65,-1
 323 165 l 1,66,-1
 323 571 l 1,67,-1
 74 165 l 1,65,-1
EndSplineSet
EndChar
StartChar: five
Encoding: 53 53 24
Width: 512
Flags: W
LayerCount: 2
Back
Fore
SplineSet
125 329 m 1,0,1
 137 343 137 343 147 354 c 256,2,3
 157 365 157 365 179 377 c 0,4,5
 202 389 202 389 224 393 c 256,6,7
 246 397 246 397 268 397 c 0,8,9
 314 395 314 395 345 377 c 0,10,11
 375 359 375 359 397 333 c 256,12,13
 419 307 419 307 428 282 c 0,14,15
 438 258 438 258 442 237 c 256,16,17
 446 216 446 216 446 173 c 256,18,19
 446 130 446 130 434 87 c 0,20,21
 424 55 424 55 408 31 c 256,22,23
 392 7 392 7 372 -12 c 0,24,25
 352 -30 352 -30 327 -43 c 0,26,27
 302 -55 302 -55 284 -58 c 0,28,29
 266 -60 266 -60 252 -62 c 0,30,31
 238 -63 238 -63 230 -63 c 0,32,33
 218 -63 218 -63 204 -61 c 0,34,35
 192 -59 192 -59 176 -55 c 256,36,37
 160 -51 160 -51 141 -42 c 0,38,39
 122 -32 122 -32 108 -19 c 0,40,41
 94 -5 94 -5 84 11 c 256,42,43
 74 27 74 27 70 43 c 0,44,45
 64 59 64 59 64 76 c 0,46,47
 64 91 64 91 66 103 c 256,48,49
 68 115 68 115 76 123 c 0,50,51
 82 131 82 131 90 133 c 0,52,53
 98 137 98 137 111 136 c 0,54,55
 124 136 124 136 134 125 c 0,56,57
 144 115 144 115 143 101 c 0,58,59
 144 93 144 93 140 88 c 0,60,61
 138 82 138 82 134 79 c 2,62,-1
 124 69 l 2,63,64
 120 64 120 64 117 59 c 0,65,66
 115 54 115 54 115 48 c 0,67,68
 115 41 115 41 117 33 c 0,69,70
 120 23 120 23 124 15 c 256,71,72
 128 7 128 7 136 -1 c 0,73,74
 145 -9 145 -9 154 -13 c 0,75,76
 164 -18 164 -18 174 -22 c 0,77,78
 186 -25 186 -25 202 -27 c 256,79,80
 218 -29 218 -29 229 -29 c 0,81,82
 245 -29 245 -29 264 -27 c 0,83,84
 284 -24 284 -24 300 -15 c 0,85,86
 316 -5 316 -5 328 6 c 256,87,88
 340 17 340 17 353 35 c 0,89,90
 365 53 365 53 372 75 c 256,91,92
 379 97 379 97 382 121 c 0,93,94
 386 145 386 145 386 166 c 0,95,96
 386 186 386 186 384 206 c 2,97,-1
 382 227 l 2,98,99
 380 240 380 240 375 262 c 0,100,101
 369 284 369 284 358 303 c 0,102,103
 346 323 346 323 331 337 c 0,104,105
 315 351 315 351 296 359 c 0,106,107
 276 367 276 367 261 367 c 0,108,109
 251 367 251 367 233 365 c 0,110,111
 215 362 215 362 203 357 c 0,112,113
 191 353 191 353 178 345 c 0,114,115
 166 337 166 337 158 329 c 256,116,117
 150 321 150 321 143 310 c 0,118,119
 138 300 138 300 136 298 c 2,120,-1
 132 289 l 1,121,-1
 95 289 l 1,122,-1
 104 661 l 1,123,-1
 431 661 l 1,124,-1
 418 608 l 1,125,-1
 130 608 l 1,126,-1
 125 329 l 1,0,1
125 329 m 1,127,128
 137 343 137 343 147 354 c 0,129,130
 157 364 157 364 178 376 c 0,131,132
 200 389 200 389 223 393 c 256,133,134
 246 397 246 397 268 397 c 0,135,136
 314 395 314 395 345 377 c 256,137,138
 376 359 376 359 398 333 c 0,139,140
 419 307 419 307 428 282 c 0,141,142
 438 257 438 257 442 236 c 0,143,144
 446 216 446 216 446 173 c 256,145,146
 446 130 446 130 434 87 c 0,147,148
 424 55 424 55 408 30 c 0,149,150
 392 6 392 6 372 -12 c 0,151,152
 352 -31 352 -31 327 -43 c 256,153,154
 302 -55 302 -55 284 -58 c 256,155,156
 266 -61 266 -61 252 -62 c 0,157,158
 240 -63 240 -63 230 -63 c 0,159,160
 218 -63 218 -63 204 -61 c 0,161,162
 191 -59 191 -59 176 -56 c 0,163,164
 160 -52 160 -52 141 -42 c 0,165,166
 122 -33 122 -33 108 -20 c 0,167,168
 94 -6 94 -6 84 10 c 0,169,170
 74 27 74 27 70 43 c 0,171,172
 65 59 65 59 64 76 c 0,173,174
 64 93 64 93 66 103 c 0,175,176
 68 115 68 115 75 122 c 0,177,178
 82 130 82 130 90 134 c 0,179,180
 98 137 98 137 111 136 c 0,181,182
 124 136 124 136 134 126 c 0,183,184
 144 115 144 115 143 101 c 0,185,186
 143 93 143 93 140 88 c 0,187,188
 136 83 136 83 134 79 c 2,189,-1
 124 69 l 2,190,191
 120 64 120 64 118 59 c 0,192,193
 115 54 115 54 114 48 c 0,194,195
 114 41 114 41 117 33 c 0,196,197
 119 23 119 23 124 15 c 0,198,199
 128 7 128 7 136 -1 c 0,200,201
 145 -9 145 -9 154 -14 c 0,202,203
 164 -19 164 -19 174 -22 c 0,204,205
 185 -25 185 -25 202 -27 c 0,206,207
 218 -29 218 -29 229 -29 c 0,208,209
 245 -29 245 -29 264 -26 c 0,210,211
 284 -24 284 -24 300 -14 c 0,212,213
 316 -5 316 -5 328 6 c 0,214,215
 341 17 341 17 353 36 c 0,216,217
 365 54 365 54 372 76 c 0,218,219
 379 97 379 97 382 121 c 0,220,221
 386 145 386 145 386 166 c 256,222,223
 386 187 386 187 384 206 c 0,224,225
 383 214 383 214 382 228 c 0,226,227
 380 241 380 241 374 262 c 0,228,229
 369 283 369 283 358 303 c 0,230,231
 346 323 346 323 331 337 c 256,232,233
 316 351 316 351 296 359 c 256,234,235
 276 367 276 367 261 367 c 0,236,237
 251 367 251 367 234 364 c 0,238,239
 216 362 216 362 204 358 c 0,240,241
 191 353 191 353 178 345 c 0,242,243
 166 337 166 337 158 329 c 256,244,245
 150 321 150 321 143 310 c 0,246,247
 136 300 136 300 136 298 c 2,248,-1
 132 289 l 1,249,-1
 95 289 l 1,250,-1
 104 661 l 1,251,-1
 431 661 l 1,252,-1
 418 608 l 1,253,-1
 130 608 l 1,254,-1
 125 329 l 1,127,128
EndSplineSet
EndChar
StartChar: six
Encoding: 54 54 25
Width: 512
Flags: W
LayerCount: 2
Back
Fore
SplineSet
134 313 m 1,0,-1
 149 329 l 2,1,2
 157 337 157 337 174 350 c 0,3,4
 190 364 190 364 216 373 c 0,5,6
 242 383 242 383 270 383 c 0,7,8
 296 383 296 383 324 373 c 256,9,10
 352 363 352 363 375 341 c 0,11,12
 399 319 399 319 413 292 c 0,13,14
 427 264 427 264 432 235 c 0,15,16
 438 206 438 206 437 168 c 0,17,18
 436 143 436 143 432 117 c 0,19,20
 428 92 428 92 419 64 c 0,21,22
 409 37 409 37 398 19 c 0,23,24
 386 1 386 1 375 -12 c 0,25,26
 363 -24 363 -24 356 -30 c 0,27,28
 348 -36 348 -36 336 -43 c 0,29,30
 324 -51 324 -51 310 -56 c 256,31,32
 296 -61 296 -61 280 -63 c 256,33,34
 264 -65 264 -65 253 -65 c 0,35,36
 240 -65 240 -65 229 -63 c 256,37,38
 218 -61 218 -61 202 -56 c 0,39,40
 186 -52 186 -52 169 -40 c 0,41,42
 153 -29 153 -29 138 -12 c 0,43,44
 124 6 124 6 111 34 c 256,45,46
 98 62 98 62 92 87 c 0,47,48
 86 111 86 111 84 131 c 0,49,50
 81 151 81 151 79 167 c 256,51,52
 77 183 77 183 76 208 c 0,53,54
 75 234 75 234 75 258 c 2,55,-1
 75 303 l 2,56,57
 75 322 75 322 76 342 c 256,58,59
 77 362 77 362 81 396 c 256,60,61
 85 430 85 430 90 457 c 256,62,63
 95 484 95 484 104 512 c 0,64,65
 112 540 112 540 126 570 c 0,66,67
 139 599 139 599 159 624 c 256,68,69
 179 649 179 649 206 665 c 0,70,71
 232 681 232 681 270 682 c 0,72,73
 288 682 288 682 306 679 c 0,74,75
 324 675 324 675 343 667 c 256,76,77
 362 659 362 659 382 640 c 256,78,79
 402 621 402 621 409 597 c 0,80,81
 417 573 417 573 417 549 c 0,82,83
 416 529 416 529 410 517 c 256,84,85
 404 505 404 505 395 497 c 0,86,87
 385 489 385 489 372 491 c 0,88,89
 364 491 364 491 358 496 c 0,90,91
 352 500 352 500 346 507 c 0,92,93
 342 514 342 514 341 523 c 0,94,95
 342 533 342 533 346 544 c 0,96,97
 348 550 348 550 350 555 c 2,98,-1
 358 566 l 2,99,100
 360 571 360 571 362 577 c 256,101,102
 364 583 364 583 364 588 c 0,103,104
 364 594 364 594 362 602 c 0,105,106
 358 612 358 612 346 623 c 0,107,108
 334 635 334 635 322 640 c 256,109,110
 310 645 310 645 298 647 c 256,111,112
 286 649 286 649 278 649 c 256,113,114
 270 649 270 649 256 646 c 0,115,116
 241 644 241 644 232 640 c 0,117,118
 224 636 224 636 212 625 c 256,119,120
 200 614 200 614 189 600 c 0,121,122
 179 586 179 586 169 561 c 0,123,124
 158 536 158 536 152 513 c 0,125,126
 146 489 146 489 143 461 c 0,127,128
 139 432 139 432 137 392 c 0,129,130
 134 353 134 353 134 313 c 1,0,-1
134 273 m 1,131,132
 134 246 134 246 133 230 c 0,133,134
 133 215 133 215 136 178 c 0,135,136
 138 141 138 141 142 111 c 256,137,138
 146 81 146 81 153 61 c 256,139,140
 160 41 160 41 170 23 c 256,141,142
 180 5 180 5 192 -8 c 256,143,144
 204 -21 204 -21 220 -27 c 256,145,146
 236 -33 236 -33 254 -33 c 0,147,148
 264 -33 264 -33 275 -32 c 0,149,150
 285 -30 285 -30 297 -24 c 0,151,152
 308 -18 308 -18 318 -10 c 256,153,154
 328 -2 328 -2 337 8 c 0,155,156
 345 19 345 19 355 40 c 0,157,158
 364 62 364 62 370 93 c 0,159,160
 376 125 376 125 377 163 c 0,161,162
 377 201 377 201 375 227 c 0,163,164
 373 246 373 246 367 266 c 0,165,166
 360 286 360 286 348 305 c 0,167,168
 334 324 334 324 320 333 c 0,169,170
 305 342 305 342 291 345 c 0,171,172
 277 349 277 349 265 349 c 0,173,174
 248 349 248 349 233 345 c 0,175,176
 219 341 219 341 202 332 c 0,177,178
 186 322 186 322 171 310 c 0,179,180
 156 297 156 297 150 291 c 2,181,-1
 134 273 l 1,131,132
134 313 m 1,182,183
 142 322 142 322 149 330 c 0,184,185
 156 337 156 337 174 350 c 0,186,187
 191 363 191 363 216 373 c 0,188,189
 242 383 242 383 270 383 c 0,190,191
 296 383 296 383 324 373 c 256,192,193
 352 363 352 363 376 341 c 0,194,195
 399 319 399 319 412 292 c 0,196,197
 426 265 426 265 432 236 c 0,198,199
 438 206 438 206 437 168 c 0,200,201
 436 142 436 142 432 116 c 0,202,203
 429 91 429 91 420 64 c 0,204,205
 410 37 410 37 398 19 c 256,206,207
 386 1 386 1 374 -12 c 0,208,209
 363 -24 363 -24 356 -30 c 0,210,211
 348 -35 348 -35 336 -43 c 256,212,213
 324 -51 324 -51 310 -56 c 0,214,215
 295 -61 295 -61 280 -63 c 0,216,217
 264 -65 264 -65 253 -65 c 0,218,219
 240 -65 240 -65 229 -63 c 256,220,221
 218 -61 218 -61 202 -56 c 256,222,223
 186 -51 186 -51 169 -40 c 256,224,225
 152 -29 152 -29 138 -12 c 256,226,227
 124 5 124 5 111 34 c 256,228,229
 98 63 98 63 92 88 c 0,230,231
 87 112 87 112 84 132 c 0,232,233
 81 151 81 151 80 167 c 0,234,235
 78 183 78 183 76 208 c 0,236,237
 75 234 75 234 75 258 c 0,238,239
 75 281 75 281 75 303 c 0,240,241
 75 322 75 322 76 342 c 256,242,243
 77 362 77 362 80 396 c 0,244,245
 84 429 84 429 90 456 c 0,246,247
 95 484 95 484 104 512 c 0,248,249
 112 541 112 541 126 570 c 0,250,251
 139 599 139 599 158 624 c 0,252,253
 178 649 178 649 206 665 c 0,254,255
 232 681 232 681 270 682 c 0,256,257
 288 682 288 682 306 678 c 0,258,259
 324 675 324 675 343 667 c 256,260,261
 362 659 362 659 382 640 c 0,262,263
 401 621 401 621 410 597 c 0,264,265
 418 573 418 573 417 549 c 0,266,267
 416 529 416 529 410 517 c 256,268,269
 404 505 404 505 395 497 c 256,270,271
 386 489 386 489 372 491 c 0,272,273
 364 491 364 491 358 495 c 0,274,275
 351 499 351 499 346 506 c 0,276,277
 342 514 342 514 342 523 c 0,278,279
 342 533 342 533 346 544 c 0,280,281
 348 550 348 550 350 555 c 2,282,-1
 358 566 l 2,283,284
 361 571 361 571 362 576 c 0,285,286
 364 582 364 582 364 588 c 0,287,288
 364 595 364 595 362 602 c 0,289,290
 358 612 358 612 346 624 c 0,291,292
 334 635 334 635 322 640 c 256,293,294
 310 645 310 645 298 647 c 256,295,296
 286 649 286 649 278 649 c 256,297,298
 270 649 270 649 256 646 c 0,299,300
 241 643 241 643 232 640 c 0,301,302
 224 636 224 636 212 625 c 256,303,304
 200 614 200 614 189 600 c 256,305,306
 178 586 178 586 168 561 c 0,307,308
 159 536 159 536 152 512 c 0,309,310
 146 489 146 489 143 460 c 256,311,312
 140 431 140 431 137 392 c 256,313,314
 134 353 134 353 134 313 c 1,182,183
134 273 m 1,315,316
 134 246 134 246 134 230 c 0,317,318
 134 215 134 215 136 178 c 256,319,320
 138 141 138 141 142 111 c 256,321,322
 146 81 146 81 153 61 c 256,323,324
 160 41 160 41 170 23 c 256,325,326
 180 5 180 5 192 -8 c 256,327,328
 204 -21 204 -21 220 -27 c 256,329,330
 236 -33 236 -33 254 -33 c 0,331,332
 264 -33 264 -33 275 -32 c 0,333,334
 286 -30 286 -30 297 -24 c 256,335,336
 308 -18 308 -18 318 -10 c 0,337,338
 328 -3 328 -3 336 8 c 0,339,340
 345 19 345 19 354 40 c 0,341,342
 364 61 364 61 370 92 c 0,343,344
 376 124 376 124 377 162 c 0,345,346
 378 201 378 201 375 227 c 0,347,348
 373 246 373 246 368 266 c 0,349,350
 362 286 362 286 349 305 c 256,351,352
 336 324 336 324 321 333 c 256,353,354
 306 342 306 342 292 345 c 0,355,356
 277 349 277 349 265 349 c 0,357,358
 248 349 248 349 233 345 c 256,359,360
 218 341 218 341 202 332 c 256,361,362
 186 323 186 323 171 310 c 256,363,364
 156 297 156 297 150 291 c 2,365,-1
 134 273 l 1,315,316
EndSplineSet
EndChar
StartChar: seven
Encoding: 55 55 26
Width: 512
Flags: W
LayerCount: 2
Back
Fore
SplineSet
460 617 m 1,0,-1
 422 568 l 2,1,2
 404 545 404 545 385 513 c 0,3,4
 367 481 367 481 352 447 c 0,5,6
 336 413 336 413 330 397 c 256,7,8
 324 381 324 381 318 360 c 0,9,10
 311 339 311 339 306 319 c 0,11,12
 300 299 300 299 296 278 c 0,13,14
 292 259 292 259 289 241 c 0,15,16
 288 224 288 224 284 199 c 0,17,18
 281 174 281 174 280 160 c 0,19,20
 279 147 279 147 278 121 c 0,21,22
 278 95 278 95 276 53 c 256,23,24
 274 11 274 11 274 -11 c 0,25,26
 275 -33 275 -33 271 -43 c 0,27,28
 267 -51 267 -51 260 -57 c 256,29,30
 253 -63 253 -63 240 -64 c 0,31,32
 228 -65 228 -65 218 -55 c 0,33,34
 213 -49 213 -49 209 -39 c 0,35,36
 206 -29 206 -29 208 -1 c 2,37,-1
 211 43 l 2,38,39
 212 63 212 63 216 105 c 256,40,41
 220 147 220 147 225 172 c 0,42,43
 229 197 229 197 240 239 c 0,44,45
 250 281 250 281 264 323 c 256,46,47
 278 365 278 365 293 399 c 256,48,49
 308 433 308 433 325 467 c 256,50,51
 342 501 342 501 354 519 c 2,52,-1
 385 568 l 1,53,-1
 409 607 l 1,54,-1
 152 607 l 2,55,56
 128 607 128 607 112 596 c 256,57,58
 96 585 96 585 90 564 c 256,59,60
 84 543 84 543 82 524 c 2,61,-1
 78 483 l 1,62,-1
 51 483 l 1,63,-1
 62 661 l 1,64,-1
 460 661 l 1,65,-1
 460 617 l 1,0,-1
460 617 m 1,66,67
 440 591 440 591 422 568 c 256,68,69
 404 545 404 545 386 513 c 0,70,71
 367 481 367 481 352 447 c 0,72,73
 336 413 336 413 330 397 c 256,74,75
 324 381 324 381 318 360 c 0,76,77
 311 338 311 338 306 318 c 0,78,79
 301 299 301 299 296 278 c 0,80,81
 292 257 292 257 289 240 c 256,82,83
 286 223 286 223 283 198 c 0,84,85
 280 174 280 174 280 160 c 0,86,87
 279 147 279 147 278 121 c 0,88,89
 278 95 278 95 276 53 c 256,90,91
 274 11 274 11 274 -11 c 0,92,93
 275 -33 275 -33 271 -43 c 0,94,95
 267 -51 267 -51 260 -57 c 256,96,97
 253 -63 253 -63 240 -64 c 0,98,99
 228 -65 228 -65 218 -55 c 0,100,101
 213 -50 213 -50 210 -40 c 0,102,103
 206 -29 206 -29 208 -1 c 2,104,-1
 211 43 l 2,105,106
 212 63 212 63 216 105 c 256,107,108
 220 147 220 147 224 172 c 0,109,110
 229 197 229 197 240 239 c 0,111,112
 250 281 250 281 264 323 c 256,113,114
 278 365 278 365 293 399 c 256,115,116
 308 433 308 433 325 466 c 0,117,118
 342 500 342 500 354 519 c 2,119,-1
 385 568 l 1,120,-1
 409 607 l 1,121,-1
 152 607 l 2,122,123
 128 607 128 607 112 596 c 256,124,125
 96 585 96 585 89 564 c 256,126,127
 82 543 82 543 82 524 c 2,128,-1
 78 483 l 1,129,-1
 51 483 l 1,130,-1
 62 661 l 1,131,-1
 460 661 l 1,132,-1
 460 617 l 1,66,67
EndSplineSet
EndChar
StartChar: eight
Encoding: 56 56 27
Width: 512
Flags: W
LayerCount: 2
Back
Fore
SplineSet
309 344 m 1,0,-1
 334 328 l 2,1,2
 346 320 346 320 358 311 c 0,3,4
 370 303 370 303 383 291 c 0,5,6
 397 279 397 279 410 263 c 0,7,8
 424 247 424 247 434 224 c 0,9,10
 444 202 444 202 448 178 c 0,11,12
 451 154 451 154 451 139 c 0,13,14
 450 117 450 117 446 97 c 0,15,16
 442 76 442 76 437 61 c 0,17,18
 432 47 432 47 424 33 c 256,19,20
 416 19 416 19 404 6 c 256,21,22
 392 -7 392 -7 379 -19 c 0,23,24
 365 -31 365 -31 354 -36 c 0,25,26
 343 -42 343 -42 330 -47 c 0,27,28
 318 -52 318 -52 304 -55 c 0,29,30
 291 -59 291 -59 276 -60 c 0,31,32
 262 -61 262 -61 252 -61 c 0,33,34
 240 -61 240 -61 226 -60 c 256,35,36
 212 -59 212 -59 199 -56 c 0,37,38
 187 -54 187 -54 173 -48 c 256,39,40
 159 -42 159 -42 146 -33 c 0,41,42
 132 -25 132 -25 122 -15 c 256,43,44
 112 -5 112 -5 102 7 c 256,45,46
 92 19 92 19 83 36 c 0,47,48
 76 53 76 53 70 69 c 0,49,50
 65 85 65 85 62 103 c 0,51,52
 60 121 60 121 60 143 c 0,53,54
 60 167 60 167 65 193 c 0,55,56
 71 219 71 219 85 243 c 0,57,58
 100 269 100 269 118 285 c 256,59,60
 136 301 136 301 154 311 c 256,61,62
 172 321 172 321 183 328 c 2,63,-1
 206 339 l 1,64,65
 188 350 188 350 176 358 c 0,66,67
 164 367 164 367 146 381 c 0,68,69
 128 396 128 396 115 411 c 0,70,71
 104 427 104 427 96 443 c 256,72,73
 88 459 88 459 84 474 c 256,74,75
 80 489 80 489 81 509 c 0,76,77
 80 527 80 527 84 546 c 0,78,79
 88 564 88 564 96 583 c 0,80,81
 104 601 104 601 116 618 c 256,82,83
 128 635 128 635 143 647 c 0,84,85
 157 659 157 659 177 667 c 256,86,87
 197 675 197 675 217 679 c 0,88,89
 236 683 236 683 256 683 c 0,90,91
 272 683 272 683 293 679 c 0,92,93
 313 675 313 675 333 666 c 0,94,95
 354 657 354 657 370 644 c 0,96,97
 386 633 386 633 402 609 c 0,98,99
 418 586 418 586 423 559 c 0,100,101
 428 533 428 533 428 513 c 0,102,103
 428 487 428 487 423 469 c 0,104,105
 419 451 419 451 412 434 c 0,106,107
 405 418 405 418 395 405 c 256,108,109
 385 392 385 392 372 381 c 256,110,111
 359 370 359 370 351 365 c 0,112,113
 343 361 343 361 326 353 c 2,114,-1
 309 344 l 1,0,-1
232 325 m 1,115,-1
 210 313 l 2,116,117
 200 307 200 307 189 299 c 0,118,119
 179 291 179 291 169 281 c 256,120,121
 159 271 159 271 150 258 c 0,122,123
 140 245 140 245 135 232 c 0,124,125
 129 217 129 217 126 201 c 0,126,127
 122 184 122 184 121 168 c 0,128,129
 119 152 119 152 120 135 c 0,130,131
 120 109 120 109 124 83 c 256,132,133
 128 57 128 57 139 39 c 0,134,135
 149 21 149 21 159 11 c 256,136,137
 169 1 169 1 182 -9 c 0,138,139
 196 -19 196 -19 213 -25 c 0,140,141
 232 -29 232 -29 252 -29 c 0,142,143
 270 -29 270 -29 285 -27 c 0,144,145
 301 -23 301 -23 314 -17 c 0,146,147
 328 -10 328 -10 342 2 c 0,148,149
 356 13 356 13 365 28 c 256,150,151
 374 43 374 43 379 58 c 256,152,153
 384 73 384 73 387 93 c 256,154,155
 390 113 390 113 390 131 c 0,156,157
 390 147 390 147 387 163 c 0,158,159
 385 179 385 179 382 188 c 256,160,161
 379 197 379 197 373 211 c 256,162,163
 367 225 367 225 358 237 c 0,164,165
 350 249 350 249 339 259 c 256,166,167
 328 269 328 269 321 275 c 0,168,169
 314 280 314 280 294 292 c 256,170,171
 274 304 274 304 266 308 c 2,172,-1
 244 318 l 1,173,-1
 232 325 l 1,115,-1
284 357 m 1,174,175
 291 360 291 360 296 364 c 0,176,177
 302 367 302 367 312 375 c 256,178,179
 322 383 322 383 331 391 c 0,180,181
 339 399 339 399 347 412 c 256,182,183
 355 425 355 425 360 437 c 0,184,185
 364 449 364 449 368 471 c 0,186,187
 372 491 372 491 372 511 c 256,188,189
 372 531 372 531 370 547 c 0,190,191
 367 566 367 566 361 582 c 0,192,193
 355 597 355 597 343 611 c 0,194,195
 332 625 332 625 318 633 c 256,196,197
 304 641 304 641 288 645 c 256,198,199
 272 649 272 649 259 649 c 0,200,201
 245 649 245 649 228 646 c 0,202,203
 212 642 212 642 196 634 c 0,204,205
 180 625 180 625 168 611 c 256,206,207
 156 597 156 597 149 581 c 0,208,209
 143 565 143 565 140 549 c 0,210,211
 138 535 138 535 138 517 c 256,212,213
 138 499 138 499 140 489 c 0,214,215
 142 476 142 476 149 463 c 0,216,217
 155 450 155 450 166 438 c 0,218,219
 176 426 176 426 186 417 c 0,220,221
 196 409 196 409 212 399 c 2,222,-1
 242 380 l 2,223,224
 256 371 256 371 264 367 c 2,225,-1
 284 357 l 1,174,175
309 344 m 1,226,227
 321 336 321 336 334 328 c 0,228,229
 346 319 346 319 358 311 c 256,230,231
 370 303 370 303 383 292 c 0,232,233
 396 280 396 280 410 264 c 0,234,235
 424 247 424 247 434 224 c 256,236,237
 444 201 444 201 448 178 c 0,238,239
 451 155 451 155 451 139 c 0,240,241
 451 117 451 117 446 96 c 0,242,243
 442 75 442 75 437 61 c 256,244,245
 432 47 432 47 424 33 c 256,246,247
 416 19 416 19 404 6 c 256,248,249
 392 -7 392 -7 378 -18 c 0,250,251
 365 -30 365 -30 354 -36 c 256,252,253
 343 -42 343 -42 330 -47 c 0,254,255
 318 -52 318 -52 304 -56 c 0,256,257
 291 -59 291 -59 276 -60 c 0,258,259
 262 -61 262 -61 252 -61 c 0,260,261
 240 -61 240 -61 226 -60 c 256,262,263
 212 -59 212 -59 200 -56 c 0,264,265
 187 -53 187 -53 174 -48 c 0,266,267
 160 -42 160 -42 146 -34 c 0,268,269
 132 -25 132 -25 122 -15 c 256,270,271
 112 -5 112 -5 102 7 c 256,272,273
 92 19 92 19 83 36 c 256,274,275
 74 53 74 53 69 68 c 0,276,277
 64 84 64 84 62 102 c 0,278,279
 60 121 60 121 60 143 c 0,280,281
 60 167 60 167 65 192 c 0,282,283
 70 218 70 218 85 244 c 0,284,285
 100 269 100 269 118 285 c 256,286,287
 136 301 136 301 154 312 c 0,288,289
 171 322 171 322 183 328 c 2,290,-1
 206 339 l 1,291,292
 187 350 187 350 176 358 c 0,293,294
 164 365 164 365 146 380 c 256,295,296
 128 395 128 395 116 410 c 0,297,298
 103 426 103 426 96 442 c 0,299,300
 88 459 88 459 84 474 c 256,301,302
 80 489 80 489 81 509 c 0,303,304
 81 527 81 527 84 546 c 0,305,306
 88 565 88 565 96 583 c 256,307,308
 104 601 104 601 116 618 c 256,309,310
 128 635 128 635 143 647 c 256,311,312
 158 659 158 659 178 667 c 0,313,314
 197 675 197 675 218 679 c 0,315,316
 238 683 238 683 256 683 c 0,317,318
 272 683 272 683 293 679 c 256,319,320
 314 675 314 675 334 666 c 0,321,322
 353 657 353 657 370 644 c 0,323,324
 386 631 386 631 402 608 c 256,325,326
 418 585 418 585 423 559 c 256,327,328
 428 533 428 533 428 513 c 0,329,330
 428 487 428 487 424 469 c 256,331,332
 420 451 420 451 412 434 c 0,333,334
 405 417 405 417 395 404 c 0,335,336
 385 392 385 392 372 381 c 256,337,338
 359 370 359 370 350 366 c 0,339,340
 342 361 342 361 326 353 c 2,341,-1
 309 344 l 1,226,227
232 325 m 1,342,343
 220 319 220 319 210 313 c 256,344,345
 200 307 200 307 189 299 c 256,346,347
 178 291 178 291 168 281 c 0,348,349
 159 271 159 271 150 258 c 0,350,351
 140 245 140 245 135 232 c 256,352,353
 130 219 130 219 126 202 c 256,354,355
 122 185 122 185 121 168 c 256,356,357
 120 151 120 151 120 135 c 0,358,359
 120 110 120 110 124 84 c 0,360,361
 128 57 128 57 139 39 c 256,362,363
 150 21 150 21 159 10 c 0,364,365
 168 0 168 0 182 -10 c 0,366,367
 196 -19 196 -19 213 -24 c 256,368,369
 230 -29 230 -29 252 -29 c 0,370,371
 270 -29 270 -29 285 -26 c 256,372,373
 300 -23 300 -23 314 -16 c 256,374,375
 328 -9 328 -9 342 2 c 256,376,377
 356 13 356 13 365 28 c 256,378,379
 374 43 374 43 379 58 c 256,380,381
 384 73 384 73 387 94 c 0,382,383
 390 114 390 114 390 131 c 256,384,385
 390 148 390 148 387 164 c 0,386,387
 384 179 384 179 382 188 c 0,388,389
 379 197 379 197 372 211 c 0,390,391
 366 225 366 225 358 237 c 256,392,393
 350 249 350 249 339 259 c 256,394,395
 328 269 328 269 321 274 c 256,396,397
 314 279 314 279 294 292 c 256,398,399
 274 305 274 305 266 308 c 2,400,-1
 244 318 l 1,401,-1
 232 325 l 1,342,343
284 357 m 1,402,403
 291 360 291 360 296 364 c 0,404,405
 302 367 302 367 312 375 c 0,406,407
 323 383 323 383 331 391 c 256,408,409
 339 399 339 399 348 412 c 0,410,411
 356 425 356 425 360 437 c 256,412,413
 364 449 364 449 368 470 c 0,414,415
 372 492 372 492 372 512 c 0,416,417
 372 531 372 531 370 547 c 0,418,419
 367 566 367 566 360 582 c 0,420,421
 354 597 354 597 343 611 c 256,422,423
 332 625 332 625 318 633 c 0,424,425
 305 641 305 641 288 645 c 0,426,427
 272 649 272 649 259 649 c 0,428,429
 245 649 245 649 228 646 c 0,430,431
 212 643 212 643 196 634 c 0,432,433
 180 626 180 626 168 612 c 0,434,435
 156 597 156 597 149 580 c 0,436,437
 142 564 142 564 140 549 c 256,438,439
 138 534 138 534 138 516 c 0,440,441
 138 499 138 499 140 489 c 0,442,443
 142 476 142 476 149 463 c 256,444,445
 156 450 156 450 166 438 c 0,446,447
 176 425 176 425 186 417 c 256,448,449
 196 409 196 409 212 399 c 256,450,451
 228 389 228 389 242 380 c 256,452,453
 256 371 256 371 264 367 c 2,454,-1
 284 357 l 1,402,403
EndSplineSet
EndChar
StartChar: nine
Encoding: 57 57 28
Width: 512
Flags: W
LayerCount: 2
Back
Fore
SplineSet
378 307 m 1,0,1
 364 293 364 293 353 283 c 0,2,3
 343 273 343 273 329 264 c 256,4,5
 315 255 315 255 301 248 c 0,6,7
 286 241 286 241 268 236 c 0,8,9
 250 230 250 230 222 232 c 0,10,11
 208 232 208 232 198 235 c 0,12,13
 187 237 187 237 176 241 c 0,14,15
 166 245 166 245 151 255 c 256,16,17
 136 265 136 265 126 274 c 0,18,19
 116 284 116 284 106 301 c 0,20,21
 96 317 96 317 88 336 c 0,22,23
 80 354 80 354 78 372 c 0,24,25
 75 391 75 391 74 407 c 256,26,27
 73 423 73 423 73 441 c 256,28,29
 73 459 73 459 75 479 c 0,30,31
 76 498 76 498 80 517 c 256,32,33
 84 536 84 536 91 555 c 0,34,35
 98 573 98 573 110 594 c 256,36,37
 122 615 122 615 137 631 c 0,38,39
 153 647 153 647 167 657 c 0,40,41
 181 665 181 665 198 671 c 0,42,43
 214 677 214 677 225 680 c 256,44,45
 236 683 236 683 257 683 c 0,46,47
 275 683 275 683 293 679 c 256,48,49
 311 675 311 675 329 665 c 0,50,51
 346 655 346 655 362 640 c 0,52,53
 377 626 377 626 390 608 c 0,54,55
 402 590 402 590 413 560 c 0,56,57
 423 530 423 530 429 496 c 0,58,59
 434 463 434 463 435 443 c 256,60,61
 436 423 436 423 438 384 c 0,62,63
 440 346 440 346 439 332 c 0,64,65
 438 331 438 331 436 291 c 2,66,-1
 434 251 l 2,67,68
 432 230 432 230 430 200 c 0,69,70
 426 171 426 171 422 147 c 0,71,72
 418 124 418 124 406 89 c 0,73,74
 395 55 395 55 380 29 c 0,75,76
 364 4 364 4 348 -12 c 256,77,78
 332 -28 332 -28 314 -40 c 0,79,80
 296 -51 296 -51 281 -55 c 0,81,82
 265 -59 265 -59 253 -61 c 256,83,84
 241 -63 241 -63 235 -63 c 0,85,86
 226 -63 226 -63 214 -62 c 0,87,88
 202 -60 202 -60 191 -58 c 256,89,90
 180 -56 180 -56 162 -48 c 256,91,92
 144 -40 144 -40 129 -27 c 0,93,94
 116 -14 116 -14 106 1 c 0,95,96
 97 15 97 15 93 31 c 256,97,98
 89 47 89 47 89 65 c 0,99,100
 88 83 88 83 95 97 c 0,101,102
 101 111 101 111 113 119 c 0,103,104
 126 127 126 127 138 127 c 0,105,106
 144 127 144 127 151 123 c 0,107,108
 158 120 158 120 166 109 c 0,109,110
 174 99 174 99 172 85 c 0,111,112
 170 74 170 74 166 71 c 0,113,114
 162 67 162 67 154 61 c 256,115,116
 146 55 146 55 142 49 c 0,117,118
 138 41 138 41 138 29 c 256,119,120
 138 17 138 17 146 5 c 0,121,122
 152 -7 152 -7 169 -16 c 0,123,124
 185 -24 185 -24 198 -28 c 0,125,126
 212 -31 212 -31 222 -31 c 0,127,128
 230 -31 230 -31 245 -29 c 256,129,130
 260 -27 260 -27 276 -23 c 0,131,132
 291 -19 291 -19 306 -2 c 0,133,134
 320 13 320 13 330 31 c 0,135,136
 339 49 339 49 346 71 c 0,137,138
 354 93 354 93 358 113 c 256,139,140
 362 133 362 133 366 155 c 0,141,142
 369 177 369 177 372 208 c 0,143,144
 375 240 375 240 376 273 c 256,145,146
 377 306 377 306 378 307 c 1,0,1
378 345 m 1,147,-1
 378 361 l 1,148,-1
 378 404 l 1,149,-1
 376 437 l 1,150,-1
 374 480 l 2,151,152
 372 501 372 501 369 520 c 0,153,154
 365 540 365 540 359 560 c 0,155,156
 352 579 352 579 342 597 c 0,157,158
 332 613 332 613 318 625 c 0,159,160
 304 636 304 636 289 642 c 0,161,162
 273 647 273 647 257 647 c 0,163,164
 230 647 230 647 210 635 c 256,165,166
 190 623 190 623 174 599 c 0,167,168
 158 574 158 574 151 551 c 0,169,170
 145 529 145 529 142 512 c 0,171,172
 140 496 140 496 138 469 c 256,173,174
 136 442 136 442 136 429 c 0,175,176
 136 417 136 417 138 399 c 0,177,178
 140 373 140 373 146 350 c 0,179,180
 152 328 152 328 164 310 c 0,181,182
 176 291 176 291 188 283 c 256,183,184
 200 275 200 275 212 271 c 0,185,186
 225 267 225 267 239 267 c 0,187,188
 255 267 255 267 271 272 c 0,189,190
 287 276 287 276 299 283 c 0,191,192
 311 291 311 291 330 303 c 0,193,194
 348 315 348 315 358 325 c 2,195,-1
 378 345 l 1,147,-1
378 307 m 1,196,197
 364 293 364 293 353 283 c 256,198,199
 342 273 342 273 329 264 c 256,200,201
 316 255 316 255 302 248 c 0,202,203
 287 241 287 241 268 236 c 0,204,205
 250 231 250 231 222 232 c 0,206,207
 208 232 208 232 198 234 c 0,208,209
 187 237 187 237 176 241 c 0,210,211
 166 245 166 245 151 255 c 256,212,213
 136 265 136 265 126 274 c 0,214,215
 116 284 116 284 106 300 c 0,216,217
 96 317 96 317 89 336 c 256,218,219
 82 355 82 355 79 372 c 0,220,221
 76 390 76 390 74 406 c 0,222,223
 73 423 73 423 73 441 c 256,224,225
 73 459 73 459 75 478 c 0,226,227
 77 498 77 498 80 517 c 0,228,229
 84 536 84 536 91 554 c 0,230,231
 98 573 98 573 110 594 c 256,232,233
 122 615 122 615 138 631 c 0,234,235
 153 647 153 647 168 656 c 0,236,237
 182 665 182 665 198 671 c 256,238,239
 214 677 214 677 225 680 c 256,240,241
 236 683 236 683 257 683 c 0,242,243
 275 683 275 683 293 679 c 256,244,245
 311 675 311 675 330 665 c 0,246,247
 348 655 348 655 363 640 c 0,248,249
 378 626 378 626 390 608 c 0,250,251
 402 591 402 591 413 560 c 256,252,253
 424 529 424 529 429 496 c 0,254,255
 434 462 434 462 435 442 c 0,256,257
 436 423 436 423 438 384 c 0,258,259
 439 345 439 345 439 332 c 0,260,261
 438 331 438 331 436 291 c 2,262,-1
 434 251 l 2,263,264
 432 230 432 230 429 200 c 0,265,266
 426 169 426 169 422 146 c 256,267,268
 418 123 418 123 406 89 c 0,269,270
 395 55 395 55 380 30 c 0,271,272
 364 5 364 5 348 -12 c 256,273,274
 332 -29 332 -29 314 -40 c 256,275,276
 296 -51 296 -51 280 -56 c 0,277,278
 265 -60 265 -60 253 -62 c 0,279,280
 241 -63 241 -63 235 -63 c 0,281,282
 227 -63 227 -63 214 -62 c 0,283,284
 202 -61 202 -61 191 -58 c 256,285,286
 180 -55 180 -55 162 -48 c 0,287,288
 144 -40 144 -40 129 -27 c 256,289,290
 114 -14 114 -14 105 0 c 0,291,292
 96 15 96 15 93 31 c 256,293,294
 90 47 90 47 89 65 c 0,295,296
 88 81 88 81 95 97 c 0,297,298
 101 111 101 111 112 119 c 0,299,300
 124 127 124 127 138 127 c 0,301,302
 144 127 144 127 151 124 c 0,303,304
 158 120 158 120 166 109 c 0,305,306
 174 99 174 99 172 85 c 0,307,308
 170 74 170 74 166 70 c 0,309,310
 162 67 162 67 154 62 c 0,311,312
 146 56 146 56 142 48 c 0,313,314
 138 41 138 41 138 29 c 256,315,316
 138 17 138 17 145 5 c 256,317,318
 152 -7 152 -7 168 -16 c 0,319,320
 185 -25 185 -25 198 -28 c 0,321,322
 212 -31 212 -31 222 -31 c 0,323,324
 230 -31 230 -31 245 -29 c 256,325,326
 260 -27 260 -27 276 -23 c 0,327,328
 291 -19 291 -19 306 -2 c 0,329,330
 320 14 320 14 330 32 c 0,331,332
 339 49 339 49 346 71 c 0,333,334
 354 93 354 93 358 114 c 0,335,336
 362 134 362 134 365 156 c 0,337,338
 368 177 368 177 372 208 c 0,339,340
 375 239 375 239 376 272 c 0,341,342
 377 306 377 306 378 307 c 1,196,197
378 345 m 1,343,-1
 378 361 l 1,344,-1
 378 404 l 1,345,-1
 376 437 l 1,346,-1
 374 480 l 2,347,348
 372 501 372 501 369 520 c 256,349,350
 366 539 366 539 359 560 c 256,351,352
 352 581 352 581 342 598 c 256,353,354
 332 615 332 615 318 626 c 256,355,356
 304 637 304 637 289 642 c 256,357,358
 274 647 274 647 257 647 c 0,359,360
 230 647 230 647 210 635 c 256,361,362
 190 623 190 623 174 598 c 256,363,364
 158 573 158 573 151 551 c 256,365,366
 144 529 144 529 142 512 c 256,367,368
 140 495 140 495 138 468 c 0,369,370
 136 442 136 442 136 430 c 0,371,372
 136 417 136 417 138 399 c 0,373,374
 140 373 140 373 146 350 c 256,375,376
 152 327 152 327 164 310 c 0,377,378
 176 292 176 292 188 284 c 0,379,380
 200 275 200 275 212 271 c 0,381,382
 225 267 225 267 239 267 c 0,383,384
 255 267 255 267 270 272 c 0,385,386
 286 277 286 277 299 284 c 0,387,388
 312 290 312 290 330 302 c 0,389,390
 348 315 348 315 358 325 c 2,391,-1
 378 345 l 1,343,-1
EndSplineSet
EndChar
StartChar: colon
Encoding: 58 58 29
Width: 512
Flags: W
LayerCount: 2
Back
Fore
SplineSet
256 434 m 0,0,1
 272 433 272 433 288 425 c 256,2,3
 304 417 304 417 313 401 c 256,4,5
 322 385 322 385 322 367 c 256,6,7
 322 349 322 349 313 334 c 0,8,9
 304 318 304 318 289 310 c 0,10,11
 275 301 275 301 256 301 c 0,12,13
 238 301 238 301 222 310 c 0,14,15
 206 318 206 318 198 334 c 256,16,17
 190 350 190 350 190 367 c 0,18,19
 190 385 190 385 198 401 c 0,20,21
 208 417 208 417 224 425 c 0,22,23
 240 434 240 434 256 434 c 0,0,1
256 70 m 0,24,25
 273 70 273 70 288 62 c 0,26,27
 304 53 304 53 313 37 c 256,28,29
 322 21 322 21 322 4 c 256,30,31
 322 -13 322 -13 313 -29 c 256,32,33
 304 -45 304 -45 289 -53 c 0,34,35
 275 -61 275 -61 256 -61 c 0,36,37
 238 -61 238 -61 222 -53 c 256,38,39
 206 -45 206 -45 198 -29 c 256,40,41
 190 -13 190 -13 190 4 c 256,42,43
 190 21 190 21 199 37 c 0,44,45
 207 53 207 53 223 61 c 256,46,47
 239 69 239 69 256 70 c 0,24,25
240 434 m 1,48,49
 272 434 272 434 288 426 c 0,50,51
 304 417 304 417 313 401 c 256,52,53
 322 385 322 385 322 367 c 256,54,55
 322 349 322 349 313 334 c 256,56,57
 304 319 304 319 289 310 c 256,58,59
 274 301 274 301 256 301 c 256,60,61
 238 301 238 301 222 310 c 0,62,63
 207 319 207 319 198 334 c 0,64,65
 190 349 190 349 190 367 c 256,66,67
 190 385 190 385 198 401 c 0,68,69
 207 417 207 417 240 434 c 1,48,49
239 70 m 1,70,71
 273 70 273 70 288 62 c 0,72,73
 304 53 304 53 313 37 c 256,74,75
 322 21 322 21 322 4 c 256,76,77
 322 -13 322 -13 313 -29 c 256,78,79
 304 -45 304 -45 289 -53 c 256,80,81
 274 -61 274 -61 256 -61 c 256,82,83
 238 -61 238 -61 222 -53 c 0,84,85
 207 -45 207 -45 198 -29 c 0,86,87
 190 -13 190 -13 190 4 c 256,88,89
 190 21 190 21 199 37 c 256,90,91
 208 53 208 53 239 70 c 1,70,71
EndSplineSet
EndChar
StartChar: semicolon
Encoding: 59 59 30
Width: 512
Flags: W
LayerCount: 2
Back
Fore
SplineSet
257 434 m 0,0,1
 273 434 273 434 289 425 c 0,2,3
 305 417 305 417 314 401 c 256,4,5
 323 385 323 385 323 367 c 256,6,7
 323 349 323 349 313 334 c 0,8,9
 304 318 304 318 290 310 c 0,10,11
 275 301 275 301 257 301 c 0,12,13
 238 301 238 301 223 310 c 0,14,15
 209 319 209 319 199 334 c 0,16,17
 190 350 190 350 190 367 c 0,18,19
 189 385 189 385 199 401 c 0,20,21
 208 417 208 417 224 425 c 256,22,23
 240 433 240 433 257 434 c 0,0,1
215 -192 m 1,24,-1
 200 -175 l 1,25,-1
 222 -150 l 2,26,27
 232 -138 232 -138 242 -125 c 0,28,29
 251 -111 251 -111 257 -97 c 256,30,31
 263 -83 263 -83 263 -71 c 0,32,33
 263 -63 263 -63 259 -57 c 256,34,35
 255 -51 255 -51 246 -48 c 2,36,-1
 223 -42 l 2,37,38
 205 -36 205 -36 196 -25 c 0,39,40
 188 -13 188 -13 188 5 c 0,41,42
 187 23 187 23 195 37 c 0,43,44
 203 52 203 52 217 60 c 0,45,46
 231 67 231 67 245 68 c 0,47,48
 261 69 261 69 275 63 c 0,49,50
 291 57 291 57 301 45 c 256,51,52
 311 33 311 33 317 18 c 0,53,54
 323 2 323 2 323 -21 c 0,55,56
 323 -33 323 -33 319 -51 c 0,57,58
 316 -69 316 -69 309 -85 c 0,59,60
 303 -101 303 -101 289 -119 c 0,61,62
 276 -137 276 -137 261 -153 c 0,63,64
 245 -169 245 -169 238 -174 c 2,65,-1
 215 -192 l 1,24,-1
257 434 m 0,66,67
 273 434 273 434 289 426 c 0,68,69
 305 417 305 417 314 401 c 256,70,71
 323 385 323 385 323 367 c 256,72,73
 323 349 323 349 314 334 c 256,74,75
 305 319 305 319 290 310 c 256,76,77
 275 301 275 301 257 301 c 0,78,79
 238 301 238 301 223 310 c 0,80,81
 209 319 209 319 200 334 c 0,82,83
 191 350 191 350 191 367 c 0,84,85
 189 385 189 385 199 401 c 0,86,87
 208 417 208 417 224 426 c 0,88,89
 240 434 240 434 257 434 c 0,66,67
215 -192 m 1,90,-1
 200 -175 l 1,91,92
 212 -162 212 -162 223 -150 c 0,93,94
 233 -139 233 -139 242 -125 c 256,95,96
 251 -111 251 -111 257 -97 c 256,97,98
 263 -83 263 -83 263 -71 c 0,99,100
 263 -63 263 -63 259 -58 c 0,101,102
 256 -52 256 -52 246 -48 c 2,103,-1
 223 -42 l 2,104,105
 205 -36 205 -36 197 -24 c 0,106,107
 188 -13 188 -13 188 5 c 0,108,109
 187 23 187 23 195 37 c 0,110,111
 203 52 203 52 217 60 c 0,112,113
 231 67 231 67 245 68 c 0,114,115
 261 69 261 69 275 63 c 0,116,117
 290 57 290 57 301 45 c 0,118,119
 311 33 311 33 317 18 c 256,120,121
 323 3 323 3 323 -21 c 0,122,123
 323 -33 323 -33 319 -51 c 0,124,125
 316 -69 316 -69 309 -85 c 0,126,127
 303 -101 303 -101 290 -119 c 256,128,129
 277 -137 277 -137 261 -153 c 256,130,131
 245 -169 245 -169 238 -174 c 2,132,-1
 215 -192 l 1,90,-1
EndSplineSet
EndChar
StartChar: less
Encoding: 60 60 31
Width: 512
Flags: W
LayerCount: 2
Back
Fore
SplineSet
48 307 m 1,0,-1
 463 659 l 1,1,-1
 464 611 l 1,2,-1
 110 307 l 1,3,-1
 463 5 l 1,4,-1
 463 -49 l 1,5,-1
 48 307 l 1,0,-1
48 307 m 1,6,-1
 463 659 l 1,7,-1
 464 611 l 1,8,-1
 110 307 l 1,9,-1
 463 5 l 1,10,-1
 463 -49 l 1,11,-1
 48 307 l 1,6,-1
EndSplineSet
EndChar
StartChar: equal
Encoding: 61 61 32
Width: 512
Flags: W
LayerCount: 2
Back
Fore
SplineSet
46 421 m 1,0,-1
 465 421 l 1,1,-1
 465 381 l 1,2,-1
 46 381 l 1,3,-1
 46 421 l 1,0,-1
46 232 m 1,4,-1
 465 232 l 1,5,-1
 465 192 l 1,6,-1
 46 192 l 1,7,-1
 46 232 l 1,4,-1
46 421 m 1,8,-1
 465 421 l 1,9,-1
 465 381 l 1,10,-1
 46 381 l 1,11,-1
 46 421 l 1,8,-1
46 232 m 1,12,-1
 465 232 l 1,13,-1
 465 192 l 1,14,-1
 46 192 l 1,15,-1
 46 232 l 1,12,-1
EndSplineSet
EndChar
StartChar: greater
Encoding: 62 62 33
Width: 512
Flags: W
LayerCount: 2
Back
Fore
SplineSet
464 307 m 1,0,-1
 48 -49 l 1,1,-1
 48 5 l 1,2,-1
 401 307 l 1,3,-1
 48 611 l 1,4,-1
 48 659 l 1,5,-1
 464 307 l 1,0,-1
464 307 m 1,6,-1
 48 -49 l 1,7,-1
 48 5 l 1,8,-1
 401 307 l 1,9,-1
 48 611 l 1,10,-1
 48 659 l 1,11,-1
 464 307 l 1,6,-1
EndSplineSet
EndChar
StartChar: question
Encoding: 63 63 34
Width: 512
Flags: W
LayerCount: 2
Back
Fore
SplineSet
232 143 m 1,0,-1
 232 197 l 2,1,2
 232 218 232 218 233 237 c 256,3,4
 234 256 234 256 236 271 c 0,5,6
 238 285 238 285 244 301 c 0,7,8
 249 317 249 317 258 333 c 0,9,10
 266 349 266 349 276 361 c 256,11,12
 286 373 286 373 302 392 c 0,13,14
 319 412 319 412 328 424 c 0,15,16
 337 435 337 435 347 451 c 0,17,18
 357 466 357 466 362 482 c 0,19,20
 368 499 368 499 369 517 c 0,21,22
 369 535 369 535 367 549 c 0,23,24
 366 561 366 561 358 577 c 0,25,26
 351 593 351 593 335 611 c 0,27,28
 320 629 320 629 300 637 c 256,29,30
 280 645 280 645 252 647 c 0,31,32
 224 647 224 647 202 641 c 0,33,34
 180 634 180 634 168 623 c 0,35,36
 154 613 154 613 144 601 c 256,37,38
 134 589 134 589 128 577 c 256,39,40
 122 565 122 565 123 555 c 0,41,42
 122 543 122 543 128 537 c 0,43,44
 132 531 132 531 142 526 c 0,45,46
 151 520 151 520 154 518 c 0,47,48
 156 516 156 516 161 508 c 256,49,50
 166 500 166 500 166 488 c 256,51,52
 166 476 166 476 159 465 c 0,53,54
 153 456 153 456 141 451 c 0,55,56
 129 445 129 445 118 446 c 0,57,58
 95 446 95 446 85 459 c 0,59,60
 75 471 75 471 71 483 c 256,61,62
 67 495 67 495 67 513 c 0,63,64
 68 531 68 531 72 553 c 256,65,66
 76 575 76 575 84 589 c 0,67,68
 92 605 92 605 105 619 c 0,69,70
 117 633 117 633 130 643 c 256,71,72
 143 653 143 653 161 662 c 0,73,74
 178 671 178 671 202 677 c 256,75,76
 226 683 226 683 252 683 c 0,77,78
 280 683 280 683 306 677 c 256,79,80
 332 671 332 671 354 661 c 256,81,82
 376 651 376 651 393 635 c 0,83,84
 411 619 411 619 422 600 c 0,85,86
 434 581 434 581 440 562 c 0,87,88
 446 541 446 541 446 519 c 0,89,90
 446 496 446 496 442 477 c 0,91,92
 438 460 438 460 430 444 c 256,93,94
 422 428 422 428 406 411 c 0,95,96
 391 393 391 393 372 377 c 2,97,-1
 340 350 l 2,98,99
 318 330 318 330 302 312 c 256,100,101
 286 294 286 294 280 281 c 256,102,103
 274 268 274 268 268 242 c 256,104,105
 262 216 262 216 262 185 c 2,106,-1
 262 163 l 1,107,-1
 262 142 l 1,108,-1
 232 143 l 1,0,-1
230 67 m 1,109,110
 262 67 262 67 278 58 c 0,111,112
 294 51 294 51 302 35 c 256,113,114
 310 19 310 19 310 2 c 256,115,116
 310 -15 310 -15 302 -30 c 0,117,118
 294 -44 294 -44 278 -53 c 0,119,120
 264 -61 264 -61 246 -61 c 256,121,122
 228 -61 228 -61 214 -53 c 0,123,124
 198 -45 198 -45 190 -30 c 256,125,126
 182 -15 182 -15 182 2 c 256,127,128
 182 19 182 19 190 35 c 256,129,130
 198 51 198 51 214 58 c 2,131,-1
 230 67 l 1,109,110
232 143 m 1,132,-1
 232 197 l 2,133,134
 232 218 232 218 233 237 c 256,135,136
 234 256 234 256 236 270 c 0,137,138
 239 285 239 285 244 301 c 256,139,140
 249 317 249 317 258 333 c 0,141,142
 266 349 266 349 276 362 c 0,143,144
 286 374 286 374 302 393 c 0,145,146
 319 412 319 412 328 424 c 0,147,148
 337 435 337 435 346 450 c 0,149,150
 356 465 356 465 362 482 c 256,151,152
 368 499 368 499 369 517 c 256,153,154
 370 535 370 535 367 549 c 0,155,156
 365 561 365 561 358 577 c 0,157,158
 350 593 350 593 335 611 c 256,159,160
 320 629 320 629 300 638 c 256,161,162
 280 647 280 647 252 647 c 256,163,164
 224 647 224 647 202 640 c 0,165,166
 181 633 181 633 168 623 c 0,167,168
 154 613 154 613 144 601 c 256,169,170
 134 589 134 589 128 577 c 256,171,172
 122 565 122 565 123 555 c 0,173,174
 123 543 123 543 128 537 c 0,175,176
 134 531 134 531 143 526 c 0,177,178
 152 520 152 520 154 518 c 0,179,180
 156 515 156 515 161 508 c 0,181,182
 166 500 166 500 166 488 c 0,183,184
 166 475 166 475 159 465 c 0,185,186
 153 456 153 456 142 450 c 0,187,188
 130 445 130 445 118 446 c 0,189,190
 95 446 95 446 85 458 c 0,191,192
 75 471 75 471 71 483 c 256,193,194
 67 495 67 495 67 513 c 0,195,196
 68 531 68 531 72 553 c 256,197,198
 76 575 76 575 84 590 c 256,199,200
 92 605 92 605 105 619 c 256,201,202
 118 633 118 633 130 643 c 0,203,204
 143 653 143 653 161 662 c 256,205,206
 179 671 179 671 202 677 c 0,207,208
 226 683 226 683 252 683 c 0,209,210
 280 683 280 683 306 677 c 256,211,212
 332 671 332 671 354 660 c 0,213,214
 376 650 376 650 393 634 c 0,215,216
 410 619 410 619 422 600 c 256,217,218
 434 581 434 581 440 562 c 256,219,220
 446 543 446 543 446 520 c 256,221,222
 446 497 446 497 442 477 c 0,223,224
 438 460 438 460 430 444 c 0,225,226
 421 427 421 427 406 411 c 0,227,228
 391 393 391 393 372 377 c 2,229,-1
 340 350 l 2,230,231
 318 330 318 330 302 312 c 0,232,233
 286 293 286 293 280 280 c 0,234,235
 274 268 274 268 268 242 c 0,236,237
 262 215 262 215 262 185 c 2,238,-1
 262 163 l 1,239,-1
 262 142 l 1,240,-1
 232 143 l 1,132,-1
230 67 m 1,241,242
 262 67 262 67 278 58 c 0,243,244
 293 50 293 50 302 34 c 0,245,246
 310 19 310 19 310 2 c 256,247,248
 310 -15 310 -15 302 -30 c 0,249,250
 293 -45 293 -45 278 -53 c 0,251,252
 264 -61 264 -61 246 -61 c 256,253,254
 228 -61 228 -61 214 -53 c 0,255,256
 199 -45 199 -45 190 -30 c 0,257,258
 182 -15 182 -15 182 2 c 256,259,260
 182 19 182 19 190 35 c 256,261,262
 198 51 198 51 230 67 c 1,241,242
EndSplineSet
EndChar
StartChar: at
Encoding: 64 64 35
Width: 512
Flags: W
LayerCount: 2
Back
Fore
SplineSet
276 147 m 1,0,1
 266 135 266 135 259 127 c 0,2,3
 251 119 251 119 237 111 c 256,4,5
 223 103 223 103 207 101 c 0,6,7
 193 99 193 99 178 106 c 0,8,9
 164 112 164 112 154 131 c 256,10,11
 144 150 144 150 141 170 c 256,12,13
 138 190 138 190 138 206 c 0,14,15
 138 221 138 221 140 243 c 0,16,17
 142 267 142 267 145 290 c 0,18,19
 149 312 149 312 154 337 c 0,20,21
 160 361 160 361 168 385 c 256,22,23
 176 409 176 409 187 433 c 0,24,25
 199 457 199 457 211 474 c 0,26,27
 223 492 223 492 242 505 c 0,28,29
 262 517 262 517 280 517 c 0,30,31
 292 517 292 517 302 513 c 0,32,33
 314 507 314 507 318 501 c 2,34,-1
 328 489 l 1,35,-1
 332 508 l 1,36,-1
 381 509 l 1,37,-1
 328 186 l 2,38,39
 324 159 324 159 326 152 c 0,40,41
 330 144 330 144 338 143 c 0,42,43
 347 142 347 142 358 153 c 0,44,45
 366 161 366 161 374 175 c 256,46,47
 382 189 382 189 396 219 c 0,48,49
 410 250 410 250 416 273 c 0,50,51
 422 295 422 295 425 325 c 0,52,53
 428 354 428 354 428 387 c 0,54,55
 428 421 428 421 422 462 c 0,56,57
 416 499 416 499 404 531 c 256,58,59
 392 563 392 563 377 587 c 0,60,61
 361 611 361 611 342 627 c 256,62,63
 323 643 323 643 301 651 c 0,64,65
 280 659 280 659 256 657 c 0,66,67
 236 656 236 656 209 646 c 0,68,69
 183 636 183 636 153 594 c 0,70,71
 123 551 123 551 106 501 c 0,72,73
 90 450 90 450 85 411 c 0,74,75
 81 372 81 372 80 335 c 0,76,77
 80 297 80 297 82 265 c 0,78,79
 83 227 83 227 85 195 c 0,80,81
 88 163 88 163 94 135 c 256,82,83
 100 107 100 107 110 81 c 256,84,85
 120 55 120 55 135 33 c 256,86,87
 150 11 150 11 170 -6 c 0,88,89
 190 -22 190 -22 214 -31 c 0,90,91
 239 -39 239 -39 262 -39 c 0,92,93
 290 -39 290 -39 312 -29 c 0,94,95
 334 -18 334 -18 354 0 c 0,96,97
 374 17 374 17 388 40 c 0,98,99
 402 64 402 64 412 82 c 256,100,101
 422 100 422 100 429 120 c 0,102,103
 438 140 438 140 444 163 c 0,104,105
 451 187 451 187 453 196 c 2,106,-1
 463 239 l 1,107,-1
 485 239 l 1,108,109
 478 202 478 202 472 179 c 0,110,111
 466 157 466 157 459 135 c 256,112,113
 452 113 452 113 442 89 c 256,114,115
 432 65 432 65 420 43 c 0,116,117
 408 19 408 19 391 -1 c 256,118,119
 374 -21 374 -21 360 -33 c 256,120,121
 346 -45 346 -45 329 -55 c 0,122,123
 313 -65 313 -65 293 -71 c 0,124,125
 274 -75 274 -75 258 -75 c 0,126,127
 238 -75 238 -75 218 -71 c 256,128,129
 198 -67 198 -67 179 -57 c 0,130,131
 159 -48 159 -48 137 -31 c 0,132,133
 116 -13 116 -13 97 11 c 0,134,135
 77 36 77 36 64 71 c 0,136,137
 50 105 50 105 44 134 c 0,138,139
 38 164 38 164 36 185 c 0,140,141
 34 207 34 207 31 241 c 0,142,143
 28 276 28 276 28 299 c 0,144,145
 28 321 28 321 30 347 c 0,146,147
 32 387 32 387 38 429 c 256,148,149
 44 471 44 471 60 515 c 0,150,151
 76 558 76 558 96 588 c 0,152,153
 116 617 116 617 140 641 c 0,154,155
 164 664 164 664 192 678 c 0,156,157
 220 691 220 691 254 691 c 0,158,159
 294 691 294 691 326 675 c 0,160,161
 359 658 359 658 378 636 c 0,162,163
 396 614 396 614 408 593 c 0,164,165
 420 571 420 571 429 545 c 0,166,167
 439 518 439 518 444 494 c 0,168,169
 450 471 450 471 453 443 c 256,170,171
 456 415 456 415 456 388 c 0,172,173
 456 370 456 370 454 347 c 0,174,175
 452 323 452 323 449 300 c 0,176,177
 445 276 445 276 439 255 c 256,178,179
 433 234 433 234 422 211 c 0,180,181
 412 187 412 187 401 169 c 0,182,183
 391 151 391 151 380 138 c 0,184,185
 368 125 368 125 356 114 c 0,186,187
 343 103 343 103 331 99 c 256,188,189
 319 95 319 95 306 99 c 0,190,191
 296 102 296 102 290 110 c 0,192,193
 283 117 283 117 281 127 c 2,194,-1
 276 147 l 1,0,1
294 271 m 2,195,-1
 310 384 l 2,196,197
 316 422 316 422 317 439 c 0,198,199
 318 457 318 457 307 470 c 0,200,201
 295 483 295 483 280 483 c 0,202,203
 266 483 266 483 250 464 c 0,204,205
 240 453 240 453 232 433 c 256,206,207
 224 413 224 413 217 385 c 0,208,209
 209 357 209 357 205 333 c 256,210,211
 201 309 201 309 196 272 c 256,212,213
 191 235 191 235 191 223 c 256,214,215
 191 211 191 211 191 197 c 0,216,217
 191 175 191 175 192 164 c 0,218,219
 194 154 194 154 201 146 c 0,220,221
 208 137 208 137 220 137 c 0,222,223
 228 137 228 137 238 144 c 256,224,225
 248 151 248 151 256 161 c 256,226,227
 264 171 264 171 269 184 c 0,228,229
 275 196 275 196 280 213 c 0,230,231
 286 230 286 230 288 242 c 0,232,233
 291 254 291 254 294 271 c 2,195,-1
276 147 m 1,234,235
 266 135 266 135 258 127 c 0,236,237
 251 119 251 119 236 111 c 0,238,239
 222 103 222 103 207 101 c 0,240,241
 193 99 193 99 178 106 c 0,242,243
 163 112 163 112 154 131 c 0,244,245
 144 150 144 150 141 170 c 0,246,247
 138 191 138 191 138 206 c 256,248,249
 138 221 138 221 140 243 c 0,250,251
 142 267 142 267 145 290 c 256,252,253
 148 313 148 313 154 337 c 256,254,255
 160 361 160 361 168 385 c 256,256,257
 176 409 176 409 187 432 c 0,258,259
 198 456 198 456 211 474 c 0,260,261
 224 493 224 493 242 505 c 0,262,263
 262 517 262 517 280 517 c 0,264,265
 292 517 292 517 303 512 c 256,266,267
 314 507 314 507 318 501 c 2,268,-1
 328 489 l 1,269,-1
 332 508 l 1,270,-1
 381 509 l 1,271,-1
 328 186 l 2,272,273
 324 159 324 159 327 152 c 256,274,275
 330 145 330 145 338 144 c 0,276,277
 347 142 347 142 358 153 c 0,278,279
 366 161 366 161 374 175 c 0,280,281
 383 189 383 189 396 220 c 0,282,283
 410 250 410 250 416 272 c 0,284,285
 422 295 422 295 425 324 c 256,286,287
 428 353 428 353 428 387 c 256,288,289
 428 421 428 421 422 462 c 0,290,291
 416 499 416 499 404 532 c 0,292,293
 392 564 392 564 377 588 c 0,294,295
 362 611 362 611 342 627 c 0,296,297
 323 643 323 643 301 651 c 0,298,299
 280 659 280 659 256 657 c 0,300,301
 236 656 236 656 210 646 c 0,302,303
 184 635 184 635 153 594 c 256,304,305
 122 553 122 553 106 502 c 256,306,307
 90 451 90 451 85 412 c 0,308,309
 80 372 80 372 80 335 c 0,310,311
 80 297 80 297 82 265 c 0,312,313
 83 227 83 227 86 195 c 0,314,315
 88 163 88 163 94 135 c 0,316,317
 101 107 101 107 110 81 c 0,318,319
 120 55 120 55 135 33 c 256,320,321
 150 11 150 11 170 -6 c 256,322,323
 190 -23 190 -23 214 -31 c 0,324,325
 239 -39 239 -39 262 -39 c 0,326,327
 290 -39 290 -39 312 -28 c 256,328,329
 334 -17 334 -17 354 0 c 256,330,331
 374 17 374 17 388 40 c 0,332,333
 403 63 403 63 412 82 c 0,334,335
 422 101 422 101 429 120 c 0,336,337
 436 140 436 140 443 164 c 0,338,339
 450 187 450 187 453 196 c 2,340,-1
 463 239 l 1,341,-1
 485 239 l 1,342,343
 477 202 477 202 472 179 c 0,344,345
 466 156 466 156 459 134 c 0,346,347
 452 113 452 113 442 90 c 0,348,349
 432 66 432 66 420 42 c 0,350,351
 408 19 408 19 391 -1 c 256,352,353
 374 -21 374 -21 360 -33 c 256,354,355
 346 -45 346 -45 329 -55 c 256,356,357
 312 -65 312 -65 293 -70 c 256,358,359
 274 -75 274 -75 258 -75 c 0,360,361
 238 -75 238 -75 218 -71 c 0,362,363
 199 -67 199 -67 178 -58 c 0,364,365
 158 -48 158 -48 137 -30 c 0,366,367
 116 -13 116 -13 97 12 c 256,368,369
 78 37 78 37 64 71 c 256,370,371
 50 105 50 105 44 134 c 256,372,373
 38 163 38 163 36 185 c 256,374,375
 34 207 34 207 31 242 c 0,376,377
 28 276 28 276 28 298 c 0,378,379
 28 321 28 321 30 347 c 0,380,381
 32 387 32 387 38 429 c 256,382,383
 44 471 44 471 60 514 c 256,384,385
 76 557 76 557 96 588 c 256,386,387
 116 619 116 619 140 642 c 0,388,389
 163 665 163 665 192 678 c 0,390,391
 220 691 220 691 254 691 c 0,392,393
 294 691 294 691 327 674 c 0,394,395
 360 658 360 658 378 636 c 256,396,397
 396 614 396 614 408 592 c 0,398,399
 420 571 420 571 429 544 c 256,400,401
 438 517 438 517 444 494 c 256,402,403
 450 471 450 471 453 444 c 0,404,405
 456 416 456 416 456 388 c 0,406,407
 456 370 456 370 454 346 c 0,408,409
 452 323 452 323 449 300 c 0,410,411
 446 276 446 276 439 255 c 256,412,413
 432 234 432 234 422 210 c 0,414,415
 412 187 412 187 401 169 c 256,416,417
 390 151 390 151 379 138 c 256,418,419
 368 125 368 125 355 114 c 256,420,421
 342 103 342 103 330 98 c 0,422,423
 319 94 319 94 306 99 c 0,424,425
 296 102 296 102 289 110 c 0,426,427
 282 117 282 117 281 127 c 2,428,-1
 276 147 l 1,234,235
294 271 m 2,429,-1
 310 384 l 2,430,431
 316 422 316 422 317 440 c 0,432,433
 318 457 318 457 307 470 c 256,434,435
 296 483 296 483 281 483 c 256,436,437
 266 483 266 483 250 464 c 0,438,439
 240 452 240 452 232 432 c 0,440,441
 224 413 224 413 216 384 c 0,442,443
 209 356 209 356 205 332 c 0,444,445
 201 309 201 309 196 272 c 256,446,447
 191 235 191 235 190 223 c 0,448,449
 190 211 190 211 191 197 c 0,450,451
 191 175 191 175 192 164 c 0,452,453
 194 154 194 154 201 146 c 0,454,455
 208 137 208 137 220 137 c 0,456,457
 228 137 228 137 238 144 c 256,458,459
 248 151 248 151 256 162 c 0,460,461
 263 172 263 172 269 184 c 0,462,463
 275 197 275 197 280 214 c 0,464,465
 286 230 286 230 288 242 c 0,466,467
 291 254 291 254 294 271 c 2,429,-1
EndSplineSet
EndChar
StartChar: A
Encoding: 65 65 36
Width: 512
Flags: W
LayerCount: 2
Back
Fore
SplineSet
266 677 m 1,0,-1
 429 31 l 2,1,2
 434 15 434 15 438 7 c 0,3,4
 443 -1 443 -1 448 -6 c 0,5,6
 453 -10 453 -10 461 -13 c 0,7,8
 470 -15 470 -15 480 -15 c 2,9,-1
 488 -15 l 1,10,-1
 488 -44 l 1,11,-1
 326 -44 l 1,12,-1
 326 -15 l 1,13,-1
 346 -15 l 2,14,15
 366 -15 366 -15 371 -11 c 0,16,17
 375 -7 375 -7 375 0 c 256,18,19
 375 7 375 7 369 31 c 2,20,-1
 321 226 l 1,21,-1
 158 226 l 1,22,-1
 112 31 l 2,23,24
 108 15 108 15 108 5 c 256,25,26
 108 -5 108 -5 114 -9 c 256,27,28
 120 -13 120 -13 126 -15 c 0,29,30
 134 -15 134 -15 148 -15 c 2,31,-1
 167 -15 l 1,32,-1
 167 -44 l 1,33,-1
 18 -44 l 1,34,-1
 18 -15 l 1,35,-1
 32 -15 l 2,36,37
 48 -15 48 -15 54 -13 c 256,38,39
 60 -11 60 -11 64 -5 c 0,40,41
 68 0 68 0 73 9 c 0,42,43
 76 17 76 17 80 30 c 2,44,-1
 234 663 l 1,45,-1
 266 677 l 1,0,-1
242 563 m 1,46,-1
 166 255 l 1,47,-1
 314 255 l 1,48,-1
 242 563 l 1,46,-1
266 677 m 1,49,-1
 429 31 l 2,50,51
 433 15 433 15 438 7 c 0,52,53
 442 -1 442 -1 448 -6 c 0,54,55
 453 -11 453 -11 461 -13 c 0,56,57
 470 -15 470 -15 480 -15 c 2,58,-1
 488 -15 l 1,59,-1
 488 -44 l 1,60,-1
 326 -44 l 1,61,-1
 326 -15 l 1,62,-1
 346 -15 l 2,63,64
 366 -15 366 -15 370 -11 c 0,65,66
 375 -7 375 -7 374 0 c 0,67,68
 374 7 374 7 369 31 c 2,69,-1
 321 226 l 1,70,-1
 158 226 l 1,71,-1
 112 31 l 2,72,73
 108 15 108 15 108 5 c 256,74,75
 108 -5 108 -5 114 -9 c 0,76,77
 119 -13 119 -13 126 -14 c 0,78,79
 134 -15 134 -15 148 -15 c 2,80,-1
 167 -15 l 1,81,-1
 167 -44 l 1,82,-1
 18 -44 l 1,83,-1
 18 -15 l 1,84,-1
 32 -15 l 2,85,86
 48 -15 48 -15 54 -13 c 256,87,88
 60 -11 60 -11 64 -6 c 0,89,90
 68 0 68 0 73 8 c 0,91,92
 78 17 78 17 80 30 c 2,93,-1
 234 663 l 1,94,-1
 266 677 l 1,49,-1
242 563 m 1,95,-1
 166 255 l 1,96,-1
 314 255 l 1,97,-1
 242 563 l 1,95,-1
EndSplineSet
EndChar
StartChar: B
Encoding: 66 66 37
Width: 512
Flags: W
LayerCount: 2
Back
Fore
SplineSet
293 324 m 1,0,1
 308 322 308 322 319 321 c 0,2,3
 329 319 329 319 349 314 c 0,4,5
 368 309 368 309 386 301 c 256,6,7
 404 293 404 293 422 278 c 0,8,9
 439 263 439 263 452 243 c 0,10,11
 464 223 464 223 472 201 c 256,12,13
 480 179 480 179 481 148 c 0,14,15
 481 116 481 116 473 87 c 0,16,17
 459 39 459 39 434 17 c 256,18,19
 409 -5 409 -5 381 -17 c 256,20,21
 353 -29 353 -29 338 -32 c 0,22,23
 322 -36 322 -36 307 -38 c 0,24,25
 294 -40 294 -40 272 -42 c 256,26,27
 250 -44 250 -44 234 -44 c 2,28,-1
 28 -44 l 1,29,-1
 28 -15 l 1,30,-1
 48 -15 l 2,31,32
 70 -15 70 -15 80 -8 c 256,33,34
 90 -1 90 -1 89 29 c 2,35,-1
 89 592 l 2,36,37
 90 612 90 612 80 623 c 0,38,39
 70 633 70 633 50 633 c 2,40,-1
 30 633 l 1,41,-1
 30 661 l 1,42,-1
 246 661 l 2,43,44
 256 661 256 661 276 659 c 256,45,46
 296 657 296 657 318 652 c 0,47,48
 340 646 340 646 364 634 c 0,49,50
 389 621 389 621 409 599 c 256,51,52
 429 577 429 577 436 560 c 0,53,54
 444 542 444 542 446 527 c 0,55,56
 450 513 450 513 450 493 c 0,57,58
 450 476 450 476 446 458 c 0,59,60
 444 440 444 440 434 421 c 0,61,62
 424 401 424 401 404 383 c 256,63,64
 384 365 384 365 356 349 c 256,65,66
 328 333 328 333 310 329 c 2,67,-1
 293 324 l 1,0,1
144 310 m 1,68,-1
 144 38 l 2,69,70
 144 19 144 19 149 8 c 0,71,72
 154 -2 154 -2 170 -9 c 256,73,74
 186 -16 186 -16 209 -16 c 0,75,76
 231 -16 231 -16 237 -16 c 0,77,78
 266 -16 266 -16 290 -12 c 0,79,80
 312 -8 312 -8 332 0 c 0,81,82
 351 8 351 8 370 23 c 0,83,84
 388 39 388 39 400 59 c 256,85,86
 412 79 412 79 417 101 c 0,87,88
 423 121 423 121 423 143 c 0,89,90
 424 165 424 165 418 191 c 0,91,92
 414 205 414 205 409 218 c 0,93,94
 405 231 405 231 395 246 c 256,95,96
 385 261 385 261 369 274 c 0,97,98
 353 288 353 288 336 294 c 0,99,100
 320 301 320 301 300 304 c 0,101,102
 280 306 280 306 263 308 c 256,103,104
 246 310 246 310 227 310 c 2,105,-1
 144 310 l 1,68,-1
144 339 m 1,106,-1
 227 339 l 2,107,108
 234 339 234 339 248 341 c 256,109,110
 262 343 262 343 278 347 c 256,111,112
 294 351 294 351 315 362 c 0,113,114
 337 374 337 374 350 386 c 0,115,116
 362 398 362 398 372 414 c 0,117,118
 381 429 381 429 387 449 c 0,119,120
 392 469 392 469 392 495 c 0,121,122
 391 521 391 521 383 543 c 0,123,124
 374 565 374 565 362 579 c 256,125,126
 350 593 350 593 329 606 c 256,127,128
 308 619 308 619 287 625 c 0,129,130
 265 631 265 631 243 632 c 256,131,132
 221 633 221 633 203 633 c 256,133,134
 185 633 185 633 173 629 c 0,135,136
 162 627 162 627 156 621 c 256,137,138
 150 615 150 615 147 607 c 256,139,140
 144 599 144 599 144 587 c 2,141,-1
 144 339 l 1,106,-1
293 324 m 1,142,143
 308 322 308 322 319 320 c 0,144,145
 330 319 330 319 349 314 c 256,146,147
 368 309 368 309 386 301 c 256,148,149
 404 293 404 293 422 278 c 0,150,151
 439 263 439 263 452 243 c 256,152,153
 465 223 465 223 472 201 c 0,154,155
 480 179 480 179 481 148 c 256,156,157
 482 117 482 117 473 87 c 0,158,159
 459 39 459 39 434 17 c 256,160,161
 409 -5 409 -5 382 -16 c 0,162,163
 354 -28 354 -28 338 -32 c 256,164,165
 322 -36 322 -36 307 -38 c 256,166,167
 292 -40 292 -40 271 -42 c 256,168,169
 250 -44 250 -44 234 -44 c 2,170,-1
 28 -44 l 1,171,-1
 28 -15 l 1,172,-1
 48 -15 l 2,173,174
 70 -15 70 -15 80 -8 c 0,175,176
 89 -1 89 -1 89 29 c 2,177,-1
 89 592 l 2,178,179
 89 612 89 612 80 622 c 0,180,181
 70 633 70 633 50 633 c 2,182,-1
 30 633 l 1,183,-1
 30 661 l 1,184,-1
 246 661 l 2,185,186
 257 661 257 661 276 659 c 0,187,188
 296 657 296 657 318 652 c 0,189,190
 341 647 341 647 365 634 c 256,191,192
 389 621 389 621 408 599 c 0,193,194
 428 577 428 577 436 560 c 0,195,196
 444 542 444 542 447 527 c 0,197,198
 450 513 450 513 450 493 c 0,199,200
 450 476 450 476 446 458 c 0,201,202
 443 441 443 441 434 421 c 0,203,204
 424 401 424 401 404 382 c 0,205,206
 384 364 384 364 356 348 c 0,207,208
 328 333 328 333 310 329 c 2,209,-1
 293 324 l 1,142,143
144 310 m 1,210,-1
 144 38 l 2,211,212
 144 19 144 19 149 8 c 256,213,214
 154 -3 154 -3 170 -10 c 0,215,216
 186 -16 186 -16 209 -16 c 0,217,218
 232 -17 232 -17 237 -16 c 0,219,220
 267 -16 267 -16 290 -12 c 0,221,222
 314 -7 314 -7 333 0 c 0,223,224
 352 8 352 8 370 24 c 0,225,226
 388 39 388 39 400 59 c 0,227,228
 411 79 411 79 416 100 c 0,229,230
 422 122 422 122 422 143 c 0,231,232
 424 165 424 165 418 191 c 0,233,234
 414 205 414 205 409 218 c 256,235,236
 404 231 404 231 395 246 c 256,237,238
 386 261 386 261 370 274 c 0,239,240
 353 287 353 287 336 294 c 256,241,242
 319 301 319 301 300 304 c 0,243,244
 280 307 280 307 263 308 c 0,245,246
 246 310 246 310 227 310 c 2,247,-1
 144 310 l 1,210,-1
144 339 m 1,248,-1
 227 339 l 2,249,250
 235 339 235 339 248 341 c 0,251,252
 262 343 262 343 278 347 c 0,253,254
 293 351 293 351 316 362 c 0,255,256
 338 373 338 373 350 386 c 0,257,258
 362 398 362 398 372 414 c 0,259,260
 381 429 381 429 387 449 c 0,261,262
 392 469 392 469 392 495 c 0,263,264
 391 521 391 521 382 543 c 0,265,266
 374 565 374 565 362 579 c 256,267,268
 350 593 350 593 329 606 c 256,269,270
 308 619 308 619 287 625 c 256,271,272
 266 631 266 631 243 632 c 256,273,274
 220 633 220 633 203 633 c 0,275,276
 185 633 185 633 173 630 c 256,277,278
 161 627 161 627 156 621 c 0,279,280
 150 615 150 615 147 607 c 0,281,282
 144 601 144 601 144 587 c 2,283,-1
 144 339 l 1,248,-1
EndSplineSet
EndChar
StartChar: C
Encoding: 67 67 38
Width: 512
Flags: W
LayerCount: 2
Back
Fore
SplineSet
458 161 m 1,0,-1
 478 153 l 1,1,2
 470 127 470 127 462 108 c 256,3,4
 454 89 454 89 444 69 c 0,5,6
 433 49 433 49 422 31 c 0,7,8
 412 15 412 15 401 3 c 256,9,10
 390 -9 390 -9 375 -21 c 256,11,12
 360 -33 360 -33 346 -41 c 256,13,14
 332 -49 332 -49 321 -53 c 0,15,16
 309 -57 309 -57 296 -59 c 0,17,18
 282 -62 282 -62 272 -62 c 0,19,20
 260 -62 260 -62 243 -59 c 256,21,22
 226 -56 226 -56 211 -51 c 0,23,24
 195 -46 195 -46 178 -36 c 0,25,26
 160 -25 160 -25 140 -7 c 256,27,28
 120 11 120 11 108 27 c 256,29,30
 96 43 96 43 84 65 c 0,31,32
 72 86 72 86 61 116 c 0,33,34
 50 145 50 145 44 179 c 0,35,36
 38 212 38 212 36 238 c 0,37,38
 35 263 35 263 35 307 c 0,39,40
 35 337 35 337 36 353 c 256,41,42
 37 369 37 369 39 386 c 0,43,44
 41 404 41 404 45 425 c 0,45,46
 49 447 49 447 57 475 c 256,47,48
 65 503 65 503 77 531 c 0,49,50
 90 559 90 559 108 584 c 256,51,52
 126 609 126 609 151 631 c 0,53,54
 177 653 177 653 200 663 c 0,55,56
 224 673 224 673 244 675 c 256,57,58
 264 677 264 677 274 677 c 0,59,60
 286 677 286 677 303 674 c 256,61,62
 320 671 320 671 329 668 c 256,63,64
 338 665 338 665 350 660 c 0,65,66
 362 656 362 656 367 654 c 256,67,68
 372 652 372 652 378 652 c 0,69,70
 386 652 386 652 393 654 c 0,71,72
 399 656 399 656 416 667 c 2,73,-1
 430 676 l 1,74,-1
 470 504 l 1,75,-1
 450 499 l 1,76,-1
 434 530 l 1,77,-1
 417 561 l 2,78,79
 408 577 408 577 394 595 c 0,80,81
 380 611 380 611 364 621 c 0,82,83
 349 631 349 631 322 640 c 0,84,85
 294 649 294 649 275 649 c 0,86,87
 252 649 252 649 226 637 c 256,88,89
 200 625 200 625 181 603 c 0,90,91
 161 581 161 581 144 548 c 0,92,93
 126 515 126 515 117 487 c 0,94,95
 106 459 106 459 102 429 c 256,96,97
 98 399 98 399 97 376 c 256,98,99
 96 353 96 353 95 313 c 0,100,101
 95 273 95 273 96 249 c 0,102,103
 98 219 98 219 102 187 c 0,104,105
 107 155 107 155 117 125 c 0,106,107
 126 97 126 97 143 71 c 256,108,109
 160 45 160 45 182 25 c 256,110,111
 204 5 204 5 220 -3 c 256,112,113
 236 -11 236 -11 251 -14 c 0,114,115
 265 -17 265 -17 276 -17 c 0,116,117
 291 -17 291 -17 314 -10 c 0,118,119
 336 -3 336 -3 354 9 c 256,120,121
 372 21 372 21 386 38 c 0,122,123
 400 54 400 54 414 74 c 0,124,125
 428 93 428 93 446 131 c 2,126,-1
 458 161 l 1,0,-1
458 161 m 1,127,-1
 478 153 l 1,128,129
 470 127 470 127 462 108 c 256,130,131
 454 89 454 89 444 68 c 0,132,133
 433 48 433 48 422 32 c 0,134,135
 412 15 412 15 401 3 c 256,136,137
 390 -9 390 -9 375 -21 c 256,138,139
 360 -33 360 -33 346 -41 c 256,140,141
 332 -49 332 -49 321 -53 c 256,142,143
 310 -57 310 -57 296 -60 c 0,144,145
 282 -62 282 -62 272 -62 c 0,146,147
 260 -62 260 -62 243 -59 c 256,148,149
 226 -56 226 -56 211 -51 c 256,150,151
 196 -46 196 -46 178 -36 c 256,152,153
 160 -26 160 -26 140 -8 c 0,154,155
 120 11 120 11 108 27 c 256,156,157
 96 43 96 43 84 64 c 256,158,159
 72 85 72 85 61 116 c 256,160,161
 50 147 50 147 44 180 c 256,162,163
 38 213 38 213 36 238 c 0,164,165
 35 263 35 263 35 307 c 0,166,167
 35 338 35 338 36 354 c 0,168,169
 37 369 37 369 38 386 c 0,170,171
 40 403 40 403 45 425 c 256,172,173
 50 447 50 447 57 474 c 0,174,175
 64 502 64 502 77 530 c 0,176,177
 90 559 90 559 108 584 c 256,178,179
 126 609 126 609 151 631 c 256,180,181
 176 653 176 653 200 662 c 0,182,183
 223 671 223 671 244 674 c 0,184,185
 264 677 264 677 274 677 c 0,186,187
 286 677 286 677 303 674 c 256,188,189
 320 671 320 671 329 668 c 256,190,191
 338 665 338 665 350 660 c 256,192,193
 362 655 362 655 367 654 c 0,194,195
 372 652 372 652 378 652 c 0,196,197
 386 652 386 652 393 654 c 0,198,199
 400 657 400 657 416 667 c 2,200,-1
 430 676 l 1,201,-1
 470 504 l 1,202,-1
 450 499 l 1,203,204
 442 515 442 515 434 530 c 256,205,206
 426 545 426 545 417 561 c 256,207,208
 408 577 408 577 394 594 c 0,209,210
 380 612 380 612 365 622 c 0,211,212
 350 631 350 631 322 640 c 256,213,214
 294 649 294 649 275 649 c 0,215,216
 252 649 252 649 226 637 c 256,217,218
 200 625 200 625 180 603 c 0,219,220
 161 581 161 581 144 548 c 0,221,222
 126 515 126 515 116 488 c 0,223,224
 107 460 107 460 102 430 c 0,225,226
 98 399 98 399 97 376 c 256,227,228
 96 353 96 353 95 313 c 256,229,230
 94 273 94 273 96 249 c 0,231,232
 98 219 98 219 103 186 c 0,233,234
 108 154 108 154 117 126 c 0,235,236
 126 97 126 97 143 71 c 256,237,238
 160 45 160 45 182 25 c 256,239,240
 204 5 204 5 220 -3 c 256,241,242
 236 -11 236 -11 251 -14 c 256,243,244
 266 -17 266 -17 276 -17 c 0,245,246
 291 -17 291 -17 314 -10 c 256,247,248
 337 -3 337 -3 354 10 c 0,249,250
 372 22 372 22 386 38 c 256,251,252
 400 54 400 54 414 74 c 0,253,254
 428 93 428 93 446 131 c 2,255,-1
 458 161 l 1,127,-1
EndSplineSet
EndChar
StartChar: D
Encoding: 68 68 39
Width: 512
Flags: W
LayerCount: 2
Back
Fore
SplineSet
32 661 m 1,0,-1
 216 661 l 2,1,2
 231 661 231 661 252 658 c 0,3,4
 274 655 274 655 293 650 c 256,5,6
 312 645 312 645 333 634 c 0,7,8
 354 624 354 624 372 608 c 256,9,10
 390 592 390 592 408 571 c 0,11,12
 424 549 424 549 436 529 c 256,13,14
 448 509 448 509 456 483 c 256,15,16
 464 457 464 457 470 423 c 256,17,18
 476 389 476 389 477 337 c 0,19,20
 477 285 477 285 475 245 c 0,21,22
 471 195 471 195 464 165 c 0,23,24
 456 135 456 135 443 107 c 0,25,26
 430 78 430 78 414 54 c 0,27,28
 398 31 398 31 380 15 c 0,29,30
 363 -1 363 -1 343 -13 c 256,31,32
 323 -25 323 -25 305 -29 c 0,33,34
 287 -35 287 -35 274 -37 c 256,35,36
 261 -39 261 -39 247 -41 c 0,37,38
 234 -43 234 -43 216 -43 c 2,39,-1
 32 -43 l 1,40,-1
 32 -15 l 1,41,-1
 49 -15 l 2,42,43
 66 -15 66 -15 76 -5 c 0,44,45
 86 3 86 3 85 25 c 2,46,-1
 85 595 l 2,47,48
 85 599 85 599 83 607 c 256,49,50
 81 615 81 615 75 621 c 0,51,52
 70 627 70 627 60 630 c 0,53,54
 49 633 49 633 35 633 c 2,55,-1
 32 633 l 1,56,-1
 32 661 l 1,0,-1
218 633 m 2,57,-1
 189 633 l 2,58,59
 173 633 173 633 165 630 c 0,60,61
 157 626 157 626 151 622 c 0,62,63
 145 619 145 619 143 611 c 0,64,65
 140 604 140 604 140 595 c 2,66,-1
 140 25 l 2,67,68
 140 5 140 5 145 -1 c 0,69,70
 151 -7 151 -7 162 -11 c 256,71,72
 173 -15 173 -15 189 -15 c 2,73,-1
 218 -15 l 2,74,75
 236 -15 236 -15 256 -11 c 0,76,77
 276 -8 276 -8 296 2 c 0,78,79
 315 12 315 12 333 29 c 0,80,81
 351 45 351 45 369 70 c 0,82,83
 387 96 387 96 395 123 c 0,84,85
 404 151 404 151 409 177 c 256,86,87
 414 203 414 203 416 237 c 256,88,89
 418 271 418 271 418 324 c 0,90,91
 418 378 418 378 415 407 c 0,92,93
 412 437 412 437 406 465 c 256,94,95
 400 493 400 493 386 521 c 0,96,97
 372 550 372 550 352 573 c 0,98,99
 332 595 332 595 313 607 c 0,100,101
 295 618 295 618 278 623 c 0,102,103
 262 629 262 629 246 631 c 0,104,105
 232 633 232 633 218 633 c 2,57,-1
32 661 m 1,106,-1
 216 661 l 2,107,108
 231 661 231 661 252 658 c 0,109,110
 274 655 274 655 293 650 c 256,111,112
 312 645 312 645 333 634 c 256,113,114
 354 623 354 623 372 608 c 0,115,116
 391 593 391 593 408 571 c 0,117,118
 424 549 424 549 436 529 c 256,119,120
 448 509 448 509 456 483 c 256,121,122
 464 457 464 457 470 422 c 0,123,124
 477 388 477 388 478 336 c 0,125,126
 478 285 478 285 475 245 c 0,127,128
 471 196 471 196 464 166 c 0,129,130
 456 135 456 135 443 106 c 256,131,132
 430 77 430 77 414 54 c 0,133,134
 398 30 398 30 380 14 c 0,135,136
 363 -1 363 -1 343 -12 c 0,137,138
 323 -24 323 -24 306 -30 c 0,139,140
 288 -35 288 -35 274 -38 c 0,141,142
 261 -40 261 -40 246 -42 c 0,143,144
 232 -43 232 -43 216 -43 c 2,145,-1
 32 -43 l 1,146,-1
 32 -15 l 1,147,-1
 49 -15 l 2,148,149
 66 -15 66 -15 76 -5 c 0,150,151
 85 3 85 3 85 25 c 2,152,-1
 85 595 l 2,153,154
 85 599 85 599 82 607 c 0,155,156
 80 615 80 615 75 621 c 256,157,158
 70 627 70 627 60 630 c 0,159,160
 49 633 49 633 35 633 c 2,161,-1
 32 633 l 1,162,-1
 32 661 l 1,106,-1
218 633 m 2,163,-1
 189 633 l 2,164,165
 173 633 173 633 165 630 c 256,166,167
 157 627 157 627 152 622 c 0,168,169
 146 617 146 617 143 610 c 256,170,171
 140 603 140 603 140 595 c 2,172,-1
 140 25 l 2,173,174
 140 5 140 5 145 -1 c 256,175,176
 150 -7 150 -7 162 -11 c 0,177,178
 173 -15 173 -15 189 -15 c 2,179,-1
 218 -15 l 2,180,181
 237 -15 237 -15 256 -12 c 0,182,183
 276 -8 276 -8 296 2 c 0,184,185
 315 13 315 13 334 29 c 0,186,187
 352 45 352 45 369 70 c 256,188,189
 386 95 386 95 395 123 c 256,190,191
 404 151 404 151 409 177 c 256,192,193
 414 203 414 203 416 237 c 256,194,195
 418 271 418 271 418 324 c 0,196,197
 418 378 418 378 415 408 c 0,198,199
 412 437 412 437 406 465 c 0,200,201
 399 493 399 493 386 522 c 0,202,203
 372 550 372 550 352 572 c 0,204,205
 332 595 332 595 313 606 c 0,206,207
 294 618 294 618 278 624 c 0,208,209
 262 629 262 629 247 631 c 256,210,211
 232 633 232 633 218 633 c 2,163,-1
EndSplineSet
EndChar
StartChar: E
Encoding: 69 69 40
Width: 512
Flags: W
LayerCount: 2
Back
Fore
SplineSet
481 137 m 1,0,-1
 452 -44 l 1,1,-1
 36 -44 l 1,2,-1
 36 -15 l 1,3,-1
 48 -15 l 2,4,5
 58 -15 58 -15 70 -7 c 0,6,7
 84 0 84 0 90 7 c 0,8,9
 96 15 96 15 95 30 c 2,10,-1
 95 592 l 2,11,12
 96 599 96 599 92 609 c 256,13,14
 88 619 88 619 82 626 c 256,15,16
 76 633 76 633 54 633 c 2,17,-1
 36 633 l 1,18,-1
 36 659 l 1,19,-1
 452 659 l 1,20,-1
 470 480 l 1,21,-1
 450 480 l 1,22,-1
 436 507 l 1,23,-1
 421 535 l 2,24,25
 413 549 413 549 400 567 c 256,26,27
 387 585 387 585 374 596 c 0,28,29
 361 608 361 608 346 615 c 0,30,31
 330 622 330 622 314 626 c 0,32,33
 298 631 298 631 283 631 c 2,34,-1
 202 631 l 2,35,36
 182 631 182 631 173 627 c 0,37,38
 165 623 165 623 158 615 c 256,39,40
 151 607 151 607 151 592 c 2,41,-1
 151 335 l 1,42,-1
 262 335 l 2,43,44
 273 335 273 335 281 339 c 256,45,46
 289 343 289 343 297 353 c 0,47,48
 305 364 305 364 308 376 c 256,49,50
 311 388 311 388 313 401 c 256,51,52
 315 414 315 414 315 426 c 2,53,-1
 315 444 l 1,54,-1
 344 444 l 1,55,-1
 344 189 l 1,56,-1
 315 189 l 1,57,-1
 315 203 l 2,58,59
 314 225 314 225 312 244 c 0,60,61
 310 264 310 264 306 273 c 0,62,63
 302 283 302 283 297 290 c 0,64,65
 291 297 291 297 282 302 c 0,66,67
 272 307 272 307 262 307 c 2,68,-1
 151 307 l 1,69,-1
 151 25 l 2,70,71
 151 7 151 7 164 -4 c 0,72,73
 178 -15 178 -15 202 -15 c 2,74,-1
 283 -15 l 2,75,76
 304 -15 304 -15 325 -11 c 256,77,78
 346 -7 346 -7 368 9 c 0,79,80
 390 24 390 24 406 43 c 0,81,82
 420 61 420 61 430 78 c 2,83,-1
 452 119 l 1,84,-1
 460 137 l 1,85,-1
 481 137 l 1,0,-1
481 137 m 1,86,-1
 452 -44 l 1,87,-1
 36 -44 l 1,88,-1
 36 -15 l 1,89,-1
 48 -15 l 2,90,91
 58 -15 58 -15 71 -8 c 256,92,93
 84 -1 84 -1 90 7 c 0,94,95
 95 15 95 15 95 30 c 2,96,-1
 95 592 l 2,97,98
 95 598 95 598 92 608 c 0,99,100
 88 619 88 619 82 626 c 256,101,102
 76 633 76 633 54 633 c 2,103,-1
 36 633 l 1,104,-1
 36 659 l 1,105,-1
 452 659 l 1,106,-1
 470 480 l 1,107,-1
 450 480 l 1,108,109
 443 492 443 492 436 506 c 0,110,111
 429 521 429 521 422 535 c 0,112,113
 414 549 414 549 400 567 c 0,114,115
 387 585 387 585 374 596 c 256,116,117
 361 607 361 607 346 614 c 0,118,119
 330 622 330 622 314 626 c 0,120,121
 298 631 298 631 283 631 c 2,122,-1
 202 631 l 2,123,124
 182 631 182 631 174 627 c 0,125,126
 165 623 165 623 158 615 c 256,127,128
 151 607 151 607 151 592 c 2,129,-1
 151 335 l 1,130,-1
 262 335 l 2,131,132
 273 335 273 335 282 339 c 0,133,134
 290 343 290 343 297 354 c 0,135,136
 304 364 304 364 308 376 c 0,137,138
 311 387 311 387 313 400 c 0,139,140
 315 414 315 414 315 426 c 2,141,-1
 315 444 l 1,142,-1
 344 444 l 1,143,-1
 344 189 l 1,144,-1
 315 189 l 1,145,-1
 315 203 l 2,146,147
 315 225 315 225 312 244 c 0,148,149
 310 263 310 263 306 273 c 256,150,151
 302 283 302 283 297 290 c 256,152,153
 292 297 292 297 282 302 c 256,154,155
 272 307 272 307 262 307 c 2,156,-1
 151 307 l 1,157,-1
 151 25 l 2,158,159
 151 7 151 7 164 -4 c 0,160,161
 178 -15 178 -15 202 -15 c 2,162,-1
 283 -15 l 2,163,164
 304 -15 304 -15 325 -11 c 256,165,166
 346 -7 346 -7 368 8 c 0,167,168
 391 24 391 24 406 43 c 0,169,170
 420 61 420 61 430 78 c 2,171,-1
 452 119 l 1,172,-1
 460 137 l 1,173,-1
 481 137 l 1,86,-1
EndSplineSet
EndChar
StartChar: F
Encoding: 70 70 41
Width: 512
Flags: W
LayerCount: 2
Back
Fore
SplineSet
452 485 m 1,0,-1
 437 514 l 2,1,2
 428 531 428 531 418 547 c 0,3,4
 408 564 408 564 395 579 c 0,5,6
 384 594 384 594 368 604 c 0,7,8
 353 615 353 615 338 619 c 0,9,10
 323 624 323 624 315 625 c 0,11,12
 307 627 307 627 286 630 c 0,13,14
 264 633 264 633 254 633 c 2,15,-1
 196 633 l 2,16,17
 182 633 182 633 172 627 c 0,18,19
 163 621 163 621 160 615 c 0,20,21
 156 609 156 609 156 597 c 2,22,-1
 156 333 l 1,23,-1
 245 333 l 2,24,25
 255 333 255 333 266 338 c 0,26,27
 276 343 276 343 283 354 c 0,28,29
 291 366 291 366 294 385 c 0,30,31
 298 404 298 404 298 425 c 2,32,-1
 298 445 l 1,33,-1
 328 445 l 1,34,-1
 328 189 l 1,35,-1
 298 189 l 1,36,-1
 298 208 l 2,37,38
 298 231 298 231 295 247 c 0,39,40
 292 262 292 262 289 272 c 0,41,42
 285 281 285 281 280 289 c 0,43,44
 274 297 274 297 266 301 c 256,45,46
 258 305 258 305 245 305 c 2,47,-1
 156 305 l 1,48,-1
 156 25 l 2,49,50
 156 8 156 8 164 0 c 0,51,52
 172 -7 172 -7 187 -11 c 0,53,54
 203 -15 203 -15 218 -15 c 2,55,-1
 234 -15 l 1,56,-1
 234 -43 l 1,57,-1
 43 -43 l 1,58,-1
 43 -15 l 1,59,-1
 56 -15 l 2,60,61
 70 -15 70 -15 80 -12 c 256,62,63
 90 -9 90 -9 96 1 c 256,64,65
 102 11 102 11 102 27 c 2,66,-1
 102 595 l 2,67,68
 102 613 102 613 92 623 c 256,69,70
 82 633 82 633 59 633 c 2,71,-1
 43 633 l 1,72,-1
 43 661 l 1,73,-1
 448 661 l 1,74,-1
 468 485 l 1,75,-1
 452 485 l 1,0,-1
452 485 m 1,76,77
 445 499 445 499 437 514 c 256,78,79
 429 529 429 529 418 546 c 0,80,81
 408 563 408 563 395 578 c 0,82,83
 382 594 382 594 367 604 c 0,84,85
 352 613 352 613 338 618 c 0,86,87
 323 623 323 623 316 625 c 0,88,89
 308 627 308 627 286 630 c 256,90,91
 264 633 264 633 254 633 c 2,92,-1
 196 633 l 2,93,94
 182 633 182 633 173 627 c 256,95,96
 164 621 164 621 160 615 c 256,97,98
 156 609 156 609 156 597 c 2,99,-1
 156 333 l 1,100,-1
 245 333 l 2,101,102
 255 333 255 333 266 338 c 0,103,104
 276 343 276 343 283 354 c 0,105,106
 290 366 290 366 294 385 c 256,107,108
 298 404 298 404 298 425 c 2,109,-1
 298 445 l 1,110,-1
 328 445 l 1,111,-1
 328 189 l 1,112,-1
 298 189 l 1,113,-1
 298 208 l 2,114,115
 298 232 298 232 295 248 c 0,116,117
 292 263 292 263 289 272 c 256,118,119
 286 281 286 281 280 289 c 256,120,121
 274 297 274 297 266 301 c 0,122,123
 257 305 257 305 245 305 c 2,124,-1
 156 305 l 1,125,-1
 156 25 l 2,126,127
 156 8 156 8 164 0 c 256,128,129
 172 -8 172 -8 187 -12 c 0,130,131
 202 -15 202 -15 218 -15 c 2,132,-1
 234 -15 l 1,133,-1
 234 -43 l 1,134,-1
 43 -43 l 1,135,-1
 43 -15 l 1,136,-1
 56 -15 l 2,137,138
 70 -15 70 -15 80 -12 c 256,139,140
 90 -9 90 -9 96 1 c 256,141,142
 102 11 102 11 102 27 c 2,143,-1
 102 595 l 2,144,145
 102 613 102 613 92 623 c 0,146,147
 81 633 81 633 59 633 c 2,148,-1
 43 633 l 1,149,-1
 43 661 l 1,150,-1
 448 661 l 1,151,-1
 468 485 l 1,152,-1
 452 485 l 1,76,77
EndSplineSet
EndChar
StartChar: G
Encoding: 71 71 42
Width: 512
Flags: W
LayerCount: 2
Back
Fore
SplineSet
318 256 m 1,0,-1
 478 256 l 1,1,-1
 478 227 l 1,2,-1
 461 227 l 2,3,4
 449 227 449 227 440 217 c 0,5,6
 432 207 432 207 432 189 c 2,7,-1
 430 -19 l 1,8,9
 418 -19 418 -19 409 -19 c 256,10,11
 400 -19 400 -19 389 -22 c 0,12,13
 378 -24 378 -24 372 -27 c 0,14,15
 366 -29 366 -29 355 -34 c 256,16,17
 344 -39 344 -39 327 -46 c 256,18,19
 310 -53 310 -53 300 -56 c 0,20,21
 290 -57 290 -57 270 -59 c 0,22,23
 242 -61 242 -61 220 -58 c 0,24,25
 198 -54 198 -54 172 -41 c 0,26,27
 146 -27 146 -27 124 -5 c 0,28,29
 101 17 101 17 82 54 c 0,30,31
 63 90 63 90 52 129 c 0,32,33
 42 167 42 167 37 207 c 256,34,35
 32 247 32 247 32 290 c 256,36,37
 32 333 32 333 34 369 c 0,38,39
 36 401 36 401 42 431 c 256,40,41
 48 461 48 461 58 493 c 0,42,43
 68 526 68 526 84 559 c 0,44,45
 100 593 100 593 119 613 c 256,46,47
 138 633 138 633 160 649 c 256,48,49
 182 665 182 665 198 669 c 256,50,51
 214 673 214 673 232 676 c 0,52,53
 249 678 249 678 268 678 c 0,54,55
 286 677 286 677 301 674 c 0,56,57
 316 670 316 670 334 663 c 0,58,59
 352 657 352 657 359 655 c 0,60,61
 365 653 365 653 371 653 c 256,62,63
 377 653 377 653 385 657 c 0,64,65
 394 661 394 661 400 665 c 0,66,67
 408 669 408 669 410 671 c 2,68,-1
 415 676 l 1,69,-1
 452 505 l 1,70,-1
 430 499 l 1,71,-1
 422 516 l 2,72,73
 418 526 418 526 407 544 c 2,74,-1
 389 575 l 2,75,76
 381 588 381 588 374 596 c 0,77,78
 367 605 367 605 360 612 c 0,79,80
 354 618 354 618 343 626 c 0,81,82
 333 634 333 634 315 641 c 0,83,84
 298 649 298 649 274 649 c 0,85,86
 255 649 255 649 240 646 c 0,87,88
 225 642 225 642 209 633 c 0,89,90
 193 625 193 625 178 611 c 0,91,92
 162 597 162 597 147 573 c 0,93,94
 131 550 131 550 122 528 c 0,95,96
 114 506 114 506 108 482 c 0,97,98
 102 459 102 459 99 429 c 256,99,100
 96 399 96 399 94 360 c 0,101,102
 92 320 92 320 94 286 c 0,103,104
 94 246 94 246 98 204 c 256,105,106
 102 162 102 162 111 132 c 0,107,108
 118 102 118 102 130 77 c 0,109,110
 141 51 141 51 153 34 c 0,111,112
 164 18 164 18 180 3 c 0,113,114
 196 -11 196 -11 218 -21 c 256,115,116
 240 -31 240 -31 278 -29 c 0,117,118
 302 -27 302 -27 320 -19 c 256,119,120
 338 -11 338 -11 349 0 c 0,121,122
 358 13 358 13 368 31 c 0,123,124
 378 50 378 50 378 79 c 2,125,-1
 378 189 l 2,126,127
 378 206 378 206 365 217 c 0,128,129
 352 227 352 227 330 227 c 2,130,-1
 318 227 l 1,131,-1
 318 256 l 1,0,-1
318 256 m 1,132,-1
 478 256 l 1,133,-1
 478 227 l 1,134,-1
 461 227 l 2,135,136
 449 227 449 227 440 217 c 0,137,138
 432 207 432 207 432 189 c 2,139,-1
 430 -19 l 1,140,141
 418 -19 418 -19 409 -19 c 256,142,143
 400 -19 400 -19 389 -22 c 256,144,145
 378 -25 378 -25 372 -27 c 256,146,147
 366 -29 366 -29 355 -34 c 256,148,149
 344 -39 344 -39 327 -46 c 256,150,151
 310 -53 310 -53 300 -56 c 256,152,153
 290 -59 290 -59 270 -59 c 0,154,155
 242 -61 242 -61 220 -58 c 0,156,157
 198 -54 198 -54 172 -40 c 0,158,159
 146 -27 146 -27 123 -5 c 256,160,161
 100 17 100 17 82 54 c 0,162,163
 63 91 63 91 52 129 c 0,164,165
 42 167 42 167 38 207 c 0,166,167
 33 247 33 247 32 290 c 0,168,169
 32 333 32 333 34 369 c 0,170,171
 36 401 36 401 42 431 c 256,172,173
 48 461 48 461 58 494 c 256,174,175
 68 527 68 527 84 560 c 0,176,177
 99 592 99 592 118 612 c 0,178,179
 138 633 138 633 160 648 c 0,180,181
 182 664 182 664 198 668 c 0,182,183
 214 673 214 673 232 676 c 0,184,185
 249 679 249 679 268 678 c 0,186,187
 286 677 286 677 301 674 c 256,188,189
 316 671 316 671 334 664 c 0,190,191
 353 656 353 656 360 654 c 0,192,193
 366 653 366 653 371 653 c 0,194,195
 377 653 377 653 384 657 c 0,196,197
 392 661 392 661 399 665 c 256,198,199
 406 669 406 669 410 671 c 2,200,-1
 415 676 l 1,201,-1
 452 505 l 1,202,-1
 430 499 l 1,203,204
 426 507 426 507 422 516 c 0,205,206
 417 526 417 526 407 544 c 0,207,208
 397 561 397 561 390 574 c 0,209,210
 382 587 382 587 374 596 c 0,211,212
 367 605 367 605 360 612 c 0,213,214
 354 619 354 619 344 626 c 0,215,216
 333 634 333 634 315 641 c 0,217,218
 298 649 298 649 274 649 c 0,219,220
 255 649 255 649 240 646 c 0,221,222
 225 642 225 642 210 634 c 0,223,224
 194 625 194 625 178 611 c 256,225,226
 162 597 162 597 147 574 c 256,227,228
 132 551 132 551 122 528 c 0,229,230
 113 505 113 505 108 482 c 0,231,232
 102 459 102 459 99 430 c 0,233,234
 96 400 96 400 94 360 c 256,235,236
 92 320 92 320 94 286 c 0,237,238
 94 246 94 246 98 204 c 0,239,240
 102 161 102 161 111 132 c 256,241,242
 120 103 120 103 131 77 c 256,243,244
 142 51 142 51 154 34 c 0,245,246
 165 17 165 17 180 3 c 0,247,248
 196 -11 196 -11 218 -21 c 256,249,250
 240 -31 240 -31 278 -29 c 0,251,252
 302 -27 302 -27 320 -19 c 256,253,254
 338 -11 338 -11 349 0 c 256,255,256
 360 11 360 11 369 30 c 256,257,258
 378 49 378 49 378 79 c 2,259,-1
 378 189 l 2,260,261
 378 206 378 206 365 217 c 0,262,263
 352 227 352 227 330 227 c 2,264,-1
 318 227 l 1,265,-1
 318 256 l 1,132,-1
EndSplineSet
EndChar
StartChar: H
Encoding: 72 72 43
Width: 512
Flags: W
LayerCount: 2
Back
Fore
SplineSet
488 633 m 1,0,-1
 472 633 l 2,1,2
 448 633 448 633 438 622 c 256,3,4
 428 611 428 611 428 595 c 2,5,-1
 428 31 l 2,6,7
 428 5 428 5 438 -6 c 256,8,9
 448 -17 448 -17 472 -17 c 2,10,-1
 488 -17 l 1,11,-1
 488 -45 l 1,12,-1
 314 -45 l 1,13,-1
 314 -17 l 1,14,-1
 326 -17 l 2,15,16
 335 -17 335 -17 348 -13 c 0,17,18
 361 -10 361 -10 368 1 c 0,19,20
 374 13 374 13 374 31 c 2,21,-1
 374 305 l 1,22,-1
 136 305 l 1,23,-1
 136 31 l 2,24,25
 136 15 136 15 138 6 c 0,26,27
 140 -2 140 -2 146 -7 c 0,28,29
 152 -13 152 -13 162 -15 c 256,30,31
 172 -17 172 -17 188 -17 c 2,32,-1
 198 -17 l 1,33,-1
 198 -45 l 1,34,-1
 22 -45 l 1,35,-1
 22 -17 l 1,36,-1
 30 -17 l 2,37,38
 47 -19 47 -19 59 -11 c 0,39,40
 72 -4 72 -4 77 4 c 0,41,42
 82 13 82 13 82 31 c 2,43,-1
 82 595 l 2,44,45
 82 610 82 610 70 622 c 0,46,47
 58 633 58 633 40 633 c 2,48,-1
 22 633 l 1,49,-1
 22 661 l 1,50,-1
 202 661 l 1,51,-1
 202 633 l 1,52,-1
 186 633 l 2,53,54
 158 633 158 633 147 624 c 0,55,56
 136 613 136 613 136 595 c 2,57,-1
 136 334 l 1,58,-1
 374 334 l 1,59,-1
 374 595 l 2,60,61
 374 611 374 611 364 622 c 256,62,63
 354 633 354 633 332 633 c 2,64,-1
 314 633 l 1,65,-1
 314 661 l 1,66,-1
 488 661 l 1,67,-1
 488 633 l 1,0,-1
488 633 m 1,68,-1
 472 633 l 2,69,70
 448 633 448 633 438 622 c 256,71,72
 428 611 428 611 428 595 c 2,73,-1
 428 31 l 2,74,75
 428 5 428 5 438 -6 c 256,76,77
 448 -17 448 -17 472 -17 c 2,78,-1
 488 -17 l 1,79,-1
 488 -45 l 1,80,-1
 314 -45 l 1,81,-1
 314 -17 l 1,82,-1
 326 -17 l 2,83,84
 335 -17 335 -17 348 -14 c 256,85,86
 361 -11 361 -11 368 1 c 0,87,88
 374 13 374 13 374 31 c 2,89,-1
 374 305 l 1,90,-1
 136 305 l 1,91,-1
 136 31 l 2,92,93
 136 15 136 15 138 7 c 0,94,95
 141 -1 141 -1 146 -7 c 0,96,97
 152 -13 152 -13 162 -15 c 256,98,99
 172 -17 172 -17 188 -17 c 2,100,-1
 198 -17 l 1,101,-1
 198 -45 l 1,102,-1
 22 -45 l 1,103,-1
 22 -17 l 1,104,-1
 30 -17 l 2,105,106
 47 -19 47 -19 60 -12 c 0,107,108
 72 -5 72 -5 77 3 c 0,109,110
 82 13 82 13 82 31 c 2,111,-1
 82 595 l 2,112,113
 82 610 82 610 70 622 c 0,114,115
 58 633 58 633 40 633 c 2,116,-1
 22 633 l 1,117,-1
 22 661 l 1,118,-1
 202 661 l 1,119,-1
 202 633 l 1,120,-1
 186 633 l 2,121,122
 158 633 158 633 147 624 c 256,123,124
 136 615 136 615 136 595 c 2,125,-1
 136 334 l 1,126,-1
 374 334 l 1,127,-1
 374 595 l 2,128,129
 374 611 374 611 364 622 c 256,130,131
 354 633 354 633 332 633 c 2,132,-1
 314 633 l 1,133,-1
 314 661 l 1,134,-1
 488 661 l 1,135,-1
 488 633 l 1,68,-1
EndSplineSet
EndChar
StartChar: I
Encoding: 73 73 44
Width: 512
Flags: W
LayerCount: 2
Back
Fore
SplineSet
352 633 m 1,0,-1
 327 633 l 2,1,2
 303 633 303 633 294 624 c 0,3,4
 284 616 284 616 284 596 c 2,5,-1
 284 31 l 2,6,7
 284 3 284 3 296 -7 c 256,8,9
 308 -17 308 -17 334 -17 c 2,10,-1
 352 -17 l 1,11,-1
 352 -45 l 1,12,-1
 158 -45 l 1,13,-1
 158 -17 l 1,14,-1
 178 -17 l 2,15,16
 206 -17 206 -17 218 -6 c 0,17,18
 230 7 230 7 230 33 c 2,19,-1
 230 596 l 2,20,21
 230 613 230 613 220 623 c 256,22,23
 210 633 210 633 188 633 c 2,24,-1
 158 633 l 1,25,-1
 158 661 l 1,26,-1
 352 661 l 1,27,-1
 352 633 l 1,0,-1
352 633 m 1,28,-1
 327 633 l 2,29,30
 303 633 303 633 294 624 c 0,31,32
 284 615 284 615 284 596 c 2,33,-1
 284 31 l 2,34,35
 284 3 284 3 296 -7 c 256,36,37
 308 -17 308 -17 334 -17 c 2,38,-1
 352 -17 l 1,39,-1
 352 -45 l 1,40,-1
 158 -45 l 1,41,-1
 158 -17 l 1,42,-1
 178 -17 l 2,43,44
 206 -17 206 -17 218 -6 c 256,45,46
 230 5 230 5 230 33 c 2,47,-1
 230 596 l 2,48,49
 230 613 230 613 220 623 c 256,50,51
 210 633 210 633 188 633 c 2,52,-1
 158 633 l 1,53,-1
 158 661 l 1,54,-1
 352 661 l 1,55,-1
 352 633 l 1,28,-1
EndSplineSet
EndChar
StartChar: J
Encoding: 74 74 45
Width: 512
Flags: W
LayerCount: 2
Back
Fore
SplineSet
411 633 m 1,0,-1
 404 633 l 2,1,2
 388 633 388 633 374 631 c 256,3,4
 360 629 360 629 353 624 c 0,5,6
 345 619 345 619 342 611 c 256,7,8
 339 603 339 603 339 593 c 2,9,-1
 339 227 l 2,10,11
 339 211 339 211 338 177 c 0,12,13
 336 143 336 143 334 124 c 0,14,15
 332 106 332 106 328 84 c 256,16,17
 324 62 324 62 317 43 c 0,18,19
 311 25 311 25 302 9 c 0,20,21
 292 -7 292 -7 282 -17 c 0,22,23
 272 -28 272 -28 261 -37 c 0,24,25
 249 -45 249 -45 233 -51 c 256,26,27
 217 -57 217 -57 202 -59 c 0,28,29
 186 -61 186 -61 174 -59 c 0,30,31
 162 -59 162 -59 153 -56 c 0,32,33
 143 -53 143 -53 136 -49 c 0,34,35
 128 -45 128 -45 119 -35 c 0,36,37
 110 -27 110 -27 106 -17 c 256,38,39
 102 -7 102 -7 102 5 c 256,40,41
 102 17 102 17 106 26 c 0,42,43
 111 34 111 34 120 39 c 0,44,45
 130 43 130 43 140 43 c 256,46,47
 150 43 150 43 158 37 c 256,48,49
 166 31 166 31 172 15 c 2,50,-1
 174 7 l 2,51,52
 176 1 176 1 180 -7 c 256,53,54
 184 -15 184 -15 190 -20 c 256,55,56
 196 -25 196 -25 214 -24 c 0,57,58
 229 -24 229 -24 235 -20 c 0,59,60
 241 -17 241 -17 247 -12 c 0,61,62
 253 -8 253 -8 257 -3 c 0,63,64
 261 1 261 1 268 12 c 256,65,66
 275 23 275 23 279 39 c 256,67,68
 283 55 283 55 284 76 c 0,69,70
 286 96 286 96 286 107 c 0,71,72
 286 117 286 117 286 168 c 2,73,-1
 286 593 l 2,74,75
 286 609 286 609 281 617 c 0,76,77
 274 625 274 625 266 629 c 0,78,79
 256 633 256 633 242 633 c 2,80,-1
 206 633 l 1,81,-1
 206 661 l 1,82,-1
 411 661 l 1,83,-1
 411 633 l 1,0,-1
411 633 m 1,84,-1
 404 633 l 2,85,86
 388 633 388 633 374 631 c 256,87,88
 360 629 360 629 353 624 c 256,89,90
 346 619 346 619 342 611 c 0,91,92
 339 603 339 603 339 593 c 2,93,-1
 339 227 l 2,94,95
 339 211 339 211 338 177 c 0,96,97
 336 143 336 143 334 124 c 0,98,99
 332 106 332 106 328 84 c 256,100,101
 324 62 324 62 317 44 c 0,102,103
 310 25 310 25 301 9 c 256,104,105
 292 -7 292 -7 282 -18 c 256,106,107
 272 -29 272 -29 260 -37 c 0,108,109
 249 -45 249 -45 234 -51 c 0,110,111
 218 -57 218 -57 202 -59 c 256,112,113
 186 -61 186 -61 174 -59 c 0,114,115
 162 -59 162 -59 153 -56 c 256,116,117
 144 -53 144 -53 136 -48 c 0,118,119
 128 -44 128 -44 119 -36 c 0,120,121
 110 -27 110 -27 106 -17 c 256,122,123
 102 -7 102 -7 102 5 c 256,124,125
 102 17 102 17 107 26 c 256,126,127
 112 35 112 35 120 39 c 0,128,129
 130 43 130 43 140 43 c 0,130,131
 151 42 151 42 158 36 c 0,132,133
 166 31 166 31 172 15 c 2,134,-1
 174 7 l 2,135,136
 176 0 176 0 180 -8 c 0,137,138
 184 -15 184 -15 190 -20 c 256,139,140
 196 -25 196 -25 214 -24 c 0,141,142
 229 -24 229 -24 236 -20 c 0,143,144
 242 -17 242 -17 247 -12 c 256,145,146
 252 -7 252 -7 256 -3 c 0,147,148
 261 1 261 1 268 12 c 0,149,150
 275 22 275 22 278 38 c 0,151,152
 282 55 282 55 284 76 c 256,153,154
 286 97 286 97 286 107 c 256,155,156
 286 117 286 117 286 168 c 2,157,-1
 286 593 l 2,158,159
 286 610 286 610 281 618 c 0,160,161
 276 625 276 625 267 629 c 256,162,163
 258 633 258 633 242 633 c 2,164,-1
 206 633 l 1,165,-1
 206 661 l 1,166,-1
 411 661 l 1,167,-1
 411 633 l 1,84,-1
EndSplineSet
EndChar
StartChar: K
Encoding: 75 75 46
Width: 512
Flags: W
LayerCount: 2
Back
Fore
SplineSet
133 288 m 1,0,-1
 345 581 l 1,1,-1
 358 601 l 2,2,3
 368 615 368 615 364 623 c 0,4,5
 362 627 362 627 358 630 c 0,6,7
 353 633 353 633 341 633 c 2,8,-1
 310 633 l 1,9,-1
 310 661 l 1,10,-1
 475 661 l 1,11,-1
 475 633 l 1,12,-1
 466 633 l 2,13,14
 452 632 452 632 436 625 c 0,15,16
 420 619 420 619 410 611 c 256,17,18
 400 603 400 603 385 581 c 2,19,-1
 248 398 l 1,20,-1
 410 41 l 2,21,22
 418 21 418 21 426 11 c 256,23,24
 434 1 434 1 448 -8 c 0,25,26
 461 -17 461 -17 472 -17 c 2,27,-1
 482 -17 l 1,28,-1
 482 -45 l 1,29,-1
 313 -45 l 1,30,-1
 313 -17 l 1,31,-1
 332 -17 l 2,32,33
 348 -17 348 -17 354 -14 c 0,34,35
 360 -10 360 -10 360 -4 c 256,36,37
 360 2 360 2 352 21 c 2,38,-1
 212 349 l 1,39,-1
 133 243 l 1,40,-1
 133 29 l 2,41,42
 133 7 133 7 144 -5 c 0,43,44
 155 -16 155 -16 174 -16 c 2,45,-1
 186 -16 l 1,46,-1
 186 -45 l 1,47,-1
 24 -45 l 1,48,-1
 24 -16 l 1,49,-1
 40 -17 l 2,50,51
 58 -19 58 -19 69 -6 c 0,52,53
 79 7 79 7 79 29 c 2,54,-1
 79 598 l 2,55,56
 78 607 78 607 76 613 c 256,57,58
 74 619 74 619 69 623 c 0,59,60
 64 628 64 628 57 631 c 0,61,62
 50 633 50 633 40 633 c 2,63,-1
 25 633 l 1,64,-1
 25 661 l 1,65,-1
 187 661 l 1,66,-1
 187 633 l 1,67,-1
 172 633 l 2,68,69
 169 633 169 633 159 631 c 256,70,71
 149 629 149 629 144 625 c 0,72,73
 140 621 140 621 136 613 c 0,74,75
 133 605 133 605 133 598 c 2,76,-1
 133 288 l 1,0,-1
133 288 m 1,77,-1
 345 581 l 2,78,79
 349 586 349 586 358 600 c 0,80,81
 368 615 368 615 364 623 c 0,82,83
 362 627 362 627 357 630 c 256,84,85
 352 633 352 633 341 633 c 2,86,-1
 310 633 l 1,87,-1
 310 661 l 1,88,-1
 475 661 l 1,89,-1
 475 633 l 1,90,-1
 466 633 l 2,91,92
 452 632 452 632 436 626 c 0,93,94
 420 619 420 619 410 611 c 256,95,96
 400 603 400 603 385 581 c 2,97,-1
 248 398 l 1,98,-1
 410 41 l 2,99,100
 418 21 418 21 426 11 c 256,101,102
 434 1 434 1 448 -7 c 0,103,104
 461 -17 461 -17 472 -17 c 2,105,-1
 482 -17 l 1,106,-1
 482 -45 l 1,107,-1
 313 -45 l 1,108,-1
 313 -17 l 1,109,-1
 332 -17 l 2,110,111
 348 -17 348 -17 354 -14 c 0,112,113
 359 -10 359 -10 360 -4 c 0,114,115
 360 3 360 3 352 21 c 2,116,-1
 212 349 l 1,117,-1
 133 243 l 1,118,-1
 133 29 l 2,119,120
 133 7 133 7 144 -4 c 0,121,122
 155 -16 155 -16 174 -16 c 2,123,-1
 186 -16 l 1,124,-1
 186 -45 l 1,125,-1
 24 -45 l 1,126,-1
 24 -16 l 1,127,-1
 40 -17 l 2,128,129
 58 -19 58 -19 68 -6 c 0,130,131
 79 7 79 7 79 29 c 2,132,-1
 79 598 l 2,133,134
 79 606 79 606 76 612 c 0,135,136
 74 619 74 619 69 624 c 256,137,138
 64 629 64 629 57 631 c 256,139,140
 50 633 50 633 40 633 c 2,141,-1
 25 633 l 1,142,-1
 25 661 l 1,143,-1
 187 661 l 1,144,-1
 187 633 l 1,145,-1
 172 633 l 2,146,147
 169 633 169 633 158 631 c 0,148,149
 148 629 148 629 144 626 c 0,150,151
 140 622 140 622 136 614 c 0,152,153
 133 605 133 605 133 598 c 2,154,-1
 133 288 l 1,77,-1
EndSplineSet
EndChar
StartChar: L
Encoding: 76 76 47
Width: 512
Flags: W
LayerCount: 2
Back
Fore
SplineSet
479 145 m 1,0,-1
 452 -45 l 1,1,-1
 30 -45 l 1,2,-1
 31 -17 l 1,3,-1
 44 -17 l 2,4,5
 60 -17 60 -17 72 -10 c 256,6,7
 84 -3 84 -3 91 7 c 0,8,9
 98 19 98 19 98 33 c 2,10,-1
 98 595 l 2,11,12
 98 603 98 603 95 611 c 0,13,14
 92 618 92 618 87 623 c 0,15,16
 82 629 82 629 74 631 c 256,17,18
 66 633 66 633 56 633 c 2,19,-1
 30 633 l 1,20,-1
 30 661 l 1,21,-1
 225 661 l 1,22,-1
 225 633 l 1,23,-1
 204 633 l 2,24,25
 197 633 197 633 184 631 c 0,26,27
 172 629 172 629 166 625 c 256,28,29
 160 621 160 621 156 612 c 256,30,31
 152 603 152 603 152 595 c 2,32,-1
 152 33 l 2,33,34
 152 21 152 21 156 12 c 0,35,36
 160 5 160 5 165 -1 c 0,37,38
 172 -7 172 -7 178 -9 c 256,39,40
 184 -11 184 -11 202 -15 c 0,41,42
 221 -18 221 -18 225 -17 c 2,43,-1
 266 -17 l 2,44,45
 302 -17 302 -17 325 -11 c 0,46,47
 348 -6 348 -6 364 1 c 0,48,49
 380 9 380 9 394 22 c 0,50,51
 406 36 406 36 418 54 c 0,52,53
 430 73 430 73 436 89 c 2,54,-1
 450 125 l 1,55,-1
 456 145 l 1,56,-1
 479 145 l 1,0,-1
479 145 m 1,57,-1
 452 -45 l 1,58,-1
 30 -45 l 1,59,-1
 31 -17 l 1,60,-1
 44 -17 l 2,61,62
 60 -17 60 -17 72 -11 c 0,63,64
 85 -5 85 -5 91 6 c 0,65,66
 98 17 98 17 98 33 c 2,67,-1
 98 595 l 2,68,69
 98 603 98 603 95 610 c 0,70,71
 92 618 92 618 87 623 c 256,72,73
 82 628 82 628 74 630 c 0,74,75
 65 633 65 633 56 633 c 2,76,-1
 30 633 l 1,77,-1
 30 661 l 1,78,-1
 225 661 l 1,79,-1
 225 633 l 1,80,-1
 204 633 l 2,81,82
 197 633 197 633 184 631 c 0,83,84
 172 629 172 629 166 625 c 256,85,86
 160 621 160 621 156 612 c 256,87,88
 152 603 152 603 152 595 c 2,89,-1
 152 33 l 2,90,91
 152 21 152 21 156 13 c 0,92,93
 159 5 159 5 166 -1 c 0,94,95
 172 -7 172 -7 178 -9 c 256,96,97
 184 -11 184 -11 203 -14 c 256,98,99
 222 -17 222 -17 225 -17 c 2,100,-1
 266 -17 l 2,101,102
 302 -17 302 -17 325 -12 c 256,103,104
 348 -7 348 -7 364 1 c 0,105,106
 381 9 381 9 394 22 c 0,107,108
 406 35 406 35 418 54 c 256,109,110
 430 73 430 73 436 89 c 256,111,112
 442 105 442 105 450 125 c 2,113,-1
 456 145 l 1,114,-1
 479 145 l 1,57,-1
EndSplineSet
EndChar
StartChar: M
Encoding: 77 77 48
Width: 512
Flags: W
LayerCount: 2
Back
Fore
SplineSet
394 529 m 1,0,-1
 256 -45 l 1,1,-1
 232 -45 l 1,2,-1
 99 548 l 1,3,-1
 99 21 l 2,4,5
 98 1 98 1 108 -8 c 256,6,7
 118 -17 118 -17 134 -17 c 2,8,-1
 158 -17 l 1,9,-1
 158 -45 l 1,10,-1
 17 -45 l 1,11,-1
 17 -17 l 1,12,-1
 36 -17 l 2,13,14
 54 -17 54 -17 62 -9 c 256,15,16
 70 -1 70 -1 70 21 c 2,17,-1
 70 591 l 2,18,19
 70 613 70 613 60 623 c 256,20,21
 50 633 50 633 36 633 c 2,22,-1
 16 633 l 1,23,-1
 16 661 l 1,24,-1
 122 661 l 1,25,-1
 255 78 l 1,26,-1
 392 661 l 1,27,-1
 496 661 l 1,28,-1
 496 633 l 1,29,-1
 474 633 l 2,30,31
 466 633 466 633 462 631 c 256,32,33
 458 629 458 629 455 625 c 256,34,35
 452 621 452 621 450 613 c 256,36,37
 448 605 448 605 448 595 c 2,38,-1
 448 27 l 2,39,40
 448 11 448 11 450 2 c 0,41,42
 453 -8 453 -8 460 -12 c 0,43,44
 466 -17 466 -17 478 -17 c 2,45,-1
 496 -17 l 1,46,-1
 496 -45 l 1,47,-1
 335 -45 l 1,48,-1
 335 -17 l 1,49,-1
 348 -17 l 2,50,51
 358 -17 358 -17 366 -15 c 256,52,53
 374 -13 374 -13 380 -9 c 256,54,55
 386 -5 386 -5 390 3 c 256,56,57
 394 11 394 11 394 27 c 2,58,-1
 394 529 l 1,0,-1
394 529 m 1,59,-1
 256 -45 l 1,60,-1
 232 -45 l 1,61,-1
 99 548 l 1,62,-1
 99 21 l 2,63,64
 99 1 99 1 108 -8 c 0,65,66
 118 -17 118 -17 134 -17 c 2,67,-1
 158 -17 l 1,68,-1
 158 -45 l 1,69,-1
 17 -45 l 1,70,-1
 17 -17 l 1,71,-1
 36 -17 l 2,72,73
 54 -17 54 -17 62 -9 c 256,74,75
 70 -1 70 -1 70 21 c 2,76,-1
 70 591 l 2,77,78
 70 613 70 613 60 623 c 256,79,80
 50 633 50 633 36 633 c 2,81,-1
 16 633 l 1,82,-1
 16 661 l 1,83,-1
 122 661 l 1,84,-1
 255 78 l 1,85,-1
 392 661 l 1,86,-1
 496 661 l 1,87,-1
 496 633 l 1,88,-1
 474 633 l 2,89,90
 466 633 466 633 462 631 c 256,91,92
 458 629 458 629 455 625 c 256,93,94
 452 621 452 621 450 613 c 256,95,96
 448 605 448 605 448 595 c 2,97,-1
 448 27 l 2,98,99
 448 11 448 11 450 2 c 0,100,101
 453 -7 453 -7 460 -12 c 0,102,103
 466 -17 466 -17 478 -17 c 2,104,-1
 496 -17 l 1,105,-1
 496 -45 l 1,106,-1
 335 -45 l 1,107,-1
 335 -17 l 1,108,-1
 348 -17 l 2,109,110
 358 -17 358 -17 366 -15 c 256,111,112
 374 -13 374 -13 380 -9 c 256,113,114
 386 -5 386 -5 390 3 c 256,115,116
 394 11 394 11 394 27 c 2,117,-1
 394 529 l 1,59,-1
EndSplineSet
EndChar
StartChar: N
Encoding: 78 78 49
Width: 512
Flags: W
LayerCount: 2
Back
Fore
SplineSet
334 661 m 1,0,-1
 484 661 l 1,1,-1
 484 633 l 1,2,-1
 473 633 l 2,3,4
 454 633 454 633 444 622 c 0,5,6
 434 613 434 613 434 597 c 2,7,-1
 434 -45 l 1,8,-1
 401 -45 l 1,9,-1
 113 549 l 1,10,-1
 114 17 l 2,11,12
 114 -1 114 -1 124 -9 c 256,13,14
 134 -17 134 -17 160 -17 c 2,15,-1
 178 -17 l 1,16,-1
 178 -45 l 1,17,-1
 24 -45 l 1,18,-1
 24 -17 l 1,19,-1
 42 -17 l 2,20,21
 66 -17 66 -17 75 -9 c 256,22,23
 84 -1 84 -1 84 17 c 2,24,-1
 84 593 l 2,25,26
 84 611 84 611 74 621 c 0,27,28
 64 633 64 633 50 633 c 2,29,-1
 28 633 l 1,30,-1
 28 661 l 1,31,-1
 120 661 l 1,32,-1
 404 80 l 1,33,-1
 404 597 l 2,34,35
 404 615 404 615 396 623 c 0,36,37
 388 633 388 633 364 633 c 2,38,-1
 335 633 l 1,39,-1
 334 661 l 1,0,-1
334 661 m 1,40,-1
 484 661 l 1,41,-1
 484 633 l 1,42,-1
 473 633 l 2,43,44
 454 633 454 633 444 623 c 256,45,46
 434 613 434 613 434 597 c 2,47,-1
 434 -45 l 1,48,-1
 401 -45 l 1,49,-1
 113 549 l 1,50,-1
 114 17 l 2,51,52
 114 -1 114 -1 124 -9 c 256,53,54
 134 -17 134 -17 160 -17 c 2,55,-1
 178 -17 l 1,56,-1
 178 -45 l 1,57,-1
 24 -45 l 1,58,-1
 24 -17 l 1,59,-1
 42 -17 l 2,60,61
 66 -17 66 -17 75 -9 c 256,62,63
 84 -1 84 -1 84 17 c 2,64,-1
 84 593 l 2,65,66
 84 611 84 611 74 622 c 256,67,68
 64 633 64 633 50 633 c 2,69,-1
 28 633 l 1,70,-1
 28 661 l 1,71,-1
 120 661 l 1,72,-1
 404 80 l 1,73,-1
 404 597 l 2,74,75
 404 615 404 615 396 624 c 256,76,77
 388 633 388 633 364 633 c 2,78,-1
 335 633 l 1,79,-1
 334 661 l 1,40,-1
EndSplineSet
EndChar
StartChar: O
Encoding: 79 79 50
Width: 512
Flags: W
LayerCount: 2
Back
Fore
SplineSet
252 -62 m 0,0,1
 250 -62 250 -62 234 -61 c 256,2,3
 218 -60 218 -60 197 -52 c 0,4,5
 175 -44 175 -44 155 -29 c 0,6,7
 135 -13 135 -13 117 12 c 256,8,9
 99 37 99 37 87 61 c 0,10,11
 76 85 76 85 66 109 c 0,12,13
 56 134 56 134 50 162 c 256,14,15
 44 190 44 190 40 238 c 0,16,17
 36 287 36 287 36 328 c 0,18,19
 36 367 36 367 40 405 c 256,20,21
 44 443 44 443 52 471 c 0,22,23
 60 500 60 500 71 528 c 0,24,25
 83 556 83 556 98 580 c 0,26,27
 114 604 114 604 130 622 c 256,28,29
 146 640 146 640 164 652 c 0,30,31
 182 665 182 665 196 669 c 0,32,33
 211 673 211 673 226 675 c 0,34,35
 240 677 240 677 254 678 c 0,36,37
 260 678 260 678 266 677 c 0,38,39
 273 677 273 677 283 675 c 0,40,41
 294 674 294 674 310 669 c 0,42,43
 326 663 326 663 343 653 c 0,44,45
 359 643 359 643 376 627 c 256,46,47
 393 611 393 611 408 590 c 0,48,49
 422 569 422 569 435 541 c 256,50,51
 448 513 448 513 456 484 c 0,52,53
 464 454 464 454 470 408 c 256,54,55
 476 362 476 362 475 305 c 0,56,57
 475 283 475 283 473 258 c 0,58,59
 471 234 471 234 465 192 c 256,60,61
 459 150 459 150 445 109 c 0,62,63
 430 68 430 68 411 39 c 0,64,65
 393 11 393 11 374 -8 c 256,66,67
 355 -27 355 -27 338 -37 c 256,68,69
 321 -47 321 -47 304 -53 c 0,70,71
 286 -59 286 -59 273 -61 c 0,72,73
 261 -62 261 -62 252 -62 c 0,0,1
94 326 m 0,74,75
 94 289 94 289 96 250 c 0,76,77
 98 212 98 212 102 184 c 0,78,79
 106 157 106 157 114 130 c 0,80,81
 122 104 122 104 130 80 c 0,82,83
 140 56 140 56 154 30 c 0,84,85
 169 4 169 4 184 -8 c 256,86,87
 199 -20 199 -20 215 -27 c 0,88,89
 231 -33 231 -33 240 -34 c 0,90,91
 250 -34 250 -34 254 -34 c 0,92,93
 268 -34 268 -34 282 -29 c 0,94,95
 296 -25 296 -25 312 -15 c 0,96,97
 327 -5 327 -5 341 13 c 256,98,99
 355 31 355 31 367 50 c 0,100,101
 379 70 379 70 391 100 c 0,102,103
 402 130 402 130 408 171 c 0,104,105
 413 213 413 213 415 249 c 256,106,107
 417 285 417 285 417 319 c 0,108,109
 417 361 417 361 413 399 c 0,110,111
 408 437 408 437 402 467 c 0,112,113
 395 497 395 497 387 521 c 0,114,115
 378 545 378 545 367 565 c 256,116,117
 356 585 356 585 342 603 c 0,118,119
 328 619 328 619 312 631 c 0,120,121
 296 642 296 642 280 645 c 0,122,123
 264 649 264 649 258 649 c 0,124,125
 254 649 254 649 244 648 c 256,126,127
 234 647 234 647 222 644 c 256,128,129
 210 641 210 641 194 631 c 256,130,131
 178 621 178 621 163 602 c 0,132,133
 148 584 148 584 134 559 c 0,134,135
 120 533 120 533 111 493 c 0,136,137
 101 453 101 453 98 416 c 0,138,139
 94 378 94 378 94 326 c 0,74,75
252 -62 m 0,140,141
 250 -62 250 -62 234 -61 c 256,142,143
 218 -60 218 -60 196 -52 c 0,144,145
 175 -45 175 -45 154 -29 c 0,146,147
 134 -13 134 -13 116 12 c 0,148,149
 99 37 99 37 87 61 c 256,150,151
 75 85 75 85 66 110 c 0,152,153
 56 134 56 134 50 162 c 0,154,155
 43 191 43 191 40 239 c 0,156,157
 36 287 36 287 36 328 c 0,158,159
 36 366 36 366 40 404 c 0,160,161
 44 443 44 443 52 472 c 0,162,163
 60 500 60 500 71 528 c 0,164,165
 82 555 82 555 98 580 c 256,166,167
 114 605 114 605 130 622 c 0,168,169
 146 640 146 640 164 652 c 256,170,171
 182 664 182 664 197 668 c 0,172,173
 212 673 212 673 226 676 c 0,174,175
 240 678 240 678 254 678 c 0,176,177
 259 678 259 678 266 678 c 0,178,179
 272 677 272 677 282 676 c 0,180,181
 293 674 293 674 310 668 c 0,182,183
 326 663 326 663 343 653 c 256,184,185
 360 643 360 643 376 627 c 0,186,187
 393 611 393 611 408 590 c 0,188,189
 422 569 422 569 435 541 c 256,190,191
 448 513 448 513 456 484 c 256,192,193
 464 455 464 455 470 408 c 0,194,195
 476 362 476 362 475 305 c 0,196,197
 475 283 475 283 473 258 c 256,198,199
 471 233 471 233 466 192 c 0,200,201
 460 151 460 151 445 110 c 0,202,203
 430 68 430 68 411 40 c 0,204,205
 392 11 392 11 374 -8 c 0,206,207
 355 -27 355 -27 338 -37 c 256,208,209
 321 -47 321 -47 304 -53 c 0,210,211
 286 -59 286 -59 274 -60 c 0,212,213
 261 -62 261 -62 252 -62 c 0,140,141
94 326 m 0,214,215
 94 289 94 289 96 250 c 256,216,217
 98 211 98 211 102 184 c 256,218,219
 106 157 106 157 113 130 c 256,220,221
 120 103 120 103 129 80 c 0,222,223
 138 56 138 56 153 30 c 0,224,225
 168 5 168 5 184 -8 c 0,226,227
 199 -21 199 -21 214 -27 c 0,228,229
 230 -33 230 -33 240 -34 c 256,230,231
 250 -35 250 -35 254 -34 c 0,232,233
 268 -34 268 -34 282 -30 c 0,234,235
 296 -25 296 -25 311 -15 c 256,236,237
 326 -5 326 -5 341 13 c 256,238,239
 356 31 356 31 367 50 c 0,240,241
 378 70 378 70 391 100 c 256,242,243
 404 130 404 130 409 172 c 0,244,245
 414 213 414 213 416 249 c 0,246,247
 417 285 417 285 417 319 c 0,248,249
 417 361 417 361 414 399 c 0,250,251
 410 437 410 437 403 467 c 256,252,253
 396 497 396 497 387 521 c 256,254,255
 378 545 378 545 367 566 c 0,256,257
 356 586 356 586 342 602 c 0,258,259
 329 619 329 619 312 630 c 0,260,261
 296 642 296 642 280 646 c 0,262,263
 263 649 263 649 258 649 c 0,264,265
 254 649 254 649 244 648 c 256,266,267
 234 647 234 647 222 644 c 256,268,269
 210 641 210 641 194 630 c 0,270,271
 178 620 178 620 163 602 c 0,272,273
 148 585 148 585 134 559 c 0,274,275
 121 533 121 533 111 493 c 256,276,277
 101 453 101 453 98 416 c 0,278,279
 94 378 94 378 94 326 c 0,214,215
EndSplineSet
EndChar
StartChar: P
Encoding: 80 80 51
Width: 512
Flags: W
LayerCount: 2
Back
Fore
SplineSet
30 661 m 1,0,-1
 227 661 l 2,1,2
 252 661 252 661 288 657 c 256,3,4
 324 653 324 653 355 645 c 256,5,6
 386 637 386 637 418 615 c 0,7,8
 450 592 450 592 466 561 c 0,9,10
 483 531 483 531 487 478 c 0,11,12
 492 426 492 426 470 383 c 0,13,14
 452 346 452 346 422 328 c 256,15,16
 392 310 392 310 360 301 c 256,17,18
 328 292 328 292 314 290 c 0,19,20
 299 288 299 288 264 286 c 0,21,22
 228 283 228 283 208 283 c 2,23,-1
 148 283 l 1,24,-1
 148 34 l 2,25,26
 148 21 148 21 154 9 c 256,27,28
 160 -3 160 -3 173 -10 c 256,29,30
 186 -17 186 -17 197 -17 c 2,31,-1
 213 -17 l 1,32,-1
 213 -45 l 1,33,-1
 24 -45 l 1,34,-1
 24 -17 l 1,35,-1
 36 -17 l 2,36,37
 52 -17 52 -17 64 -11 c 0,38,39
 76 -6 76 -6 84 8 c 0,40,41
 93 23 93 23 93 45 c 2,42,-1
 93 572 l 2,43,44
 93 599 93 599 86 610 c 256,45,46
 79 621 79 621 68 627 c 0,47,48
 58 633 58 633 44 633 c 2,49,-1
 30 633 l 1,50,-1
 30 661 l 1,0,-1
148 311 m 1,51,-1
 208 311 l 2,52,53
 232 311 232 311 255 313 c 0,54,55
 279 315 279 315 305 321 c 256,56,57
 331 327 331 327 358 341 c 0,58,59
 384 355 384 355 401 379 c 0,60,61
 417 403 417 403 421 431 c 256,62,63
 425 459 425 459 424 483 c 0,64,65
 421 533 421 533 402 563 c 0,66,67
 382 593 382 593 354 608 c 0,68,69
 325 622 325 622 299 627 c 0,70,71
 274 633 274 633 256 633 c 2,72,-1
 220 633 l 2,73,74
 190 633 190 633 176 625 c 0,75,76
 164 618 164 618 156 607 c 0,77,78
 148 595 148 595 148 572 c 2,79,-1
 148 311 l 1,51,-1
30 661 m 1,80,-1
 227 661 l 2,81,82
 253 661 253 661 288 657 c 0,83,84
 324 653 324 653 355 645 c 256,85,86
 386 637 386 637 418 614 c 0,87,88
 450 592 450 592 466 562 c 0,89,90
 483 531 483 531 487 478 c 0,91,92
 492 425 492 425 470 383 c 0,93,94
 451 346 451 346 422 328 c 0,95,96
 392 311 392 311 360 302 c 0,97,98
 328 292 328 292 313 290 c 0,99,100
 298 287 298 287 263 285 c 256,101,102
 228 283 228 283 208 283 c 2,103,-1
 148 283 l 1,104,-1
 148 34 l 2,105,106
 148 20 148 20 154 8 c 0,107,108
 160 -3 160 -3 173 -10 c 256,109,110
 186 -17 186 -17 197 -17 c 2,111,-1
 213 -17 l 1,112,-1
 213 -45 l 1,113,-1
 24 -45 l 1,114,-1
 24 -17 l 1,115,-1
 36 -17 l 2,116,117
 52 -17 52 -17 64 -12 c 0,118,119
 76 -6 76 -6 84 8 c 0,120,121
 93 23 93 23 93 45 c 2,122,-1
 93 572 l 2,123,124
 93 599 93 599 86 610 c 256,125,126
 79 621 79 621 68 627 c 0,127,128
 58 633 58 633 44 633 c 2,129,-1
 30 633 l 1,130,-1
 30 661 l 1,80,-1
148 311 m 1,131,-1
 208 311 l 2,132,133
 232 311 232 311 255 313 c 256,134,135
 278 315 278 315 304 321 c 0,136,137
 331 327 331 327 358 341 c 0,138,139
 384 355 384 355 401 379 c 256,140,141
 418 403 418 403 422 431 c 0,142,143
 425 459 425 459 424 483 c 0,144,145
 421 533 421 533 402 563 c 0,146,147
 382 593 382 593 354 608 c 0,148,149
 325 622 325 622 299 627 c 0,150,151
 274 633 274 633 256 633 c 2,152,-1
 220 633 l 2,153,154
 190 633 190 633 177 626 c 256,155,156
 164 619 164 619 156 607 c 256,157,158
 148 595 148 595 148 572 c 2,159,-1
 148 311 l 1,131,-1
EndSplineSet
EndChar
StartChar: Q
Encoding: 81 81 52
Width: 512
Flags: W
LayerCount: 2
Back
Fore
SplineSet
350 -28 m 1,0,1
 352 -39 352 -39 354 -41 c 2,2,-1
 361 -63 l 2,3,4
 368 -83 368 -83 372 -91 c 256,5,6
 376 -99 376 -99 383 -106 c 256,7,8
 390 -113 390 -113 404 -113 c 0,9,10
 416 -113 416 -113 430 -105 c 256,11,12
 444 -97 444 -97 450 -87 c 2,13,-1
 467 -65 l 1,14,-1
 482 -72 l 1,15,16
 476 -85 476 -85 470 -95 c 256,17,18
 464 -105 464 -105 452 -121 c 0,19,20
 440 -135 440 -135 424 -145 c 256,21,22
 408 -155 408 -155 386 -155 c 0,23,24
 365 -155 365 -155 352 -146 c 0,25,26
 338 -138 338 -138 330 -120 c 0,27,28
 322 -103 322 -103 312 -68 c 2,29,-1
 308 -50 l 1,30,-1
 295 -54 l 2,31,32
 290 -56 290 -56 276 -59 c 256,33,34
 262 -62 262 -62 250 -62 c 0,35,36
 230 -63 230 -63 205 -55 c 0,37,38
 179 -47 179 -47 154 -29 c 0,39,40
 128 -10 128 -10 109 18 c 0,41,42
 89 46 89 46 79 69 c 0,43,44
 69 93 69 93 61 115 c 256,45,46
 53 137 53 137 46 174 c 0,47,48
 39 212 39 212 37 240 c 0,49,50
 36 269 36 269 36 301 c 0,51,52
 36 359 36 359 42 397 c 256,53,54
 48 435 48 435 56 473 c 0,55,56
 65 509 65 509 79 541 c 0,57,58
 92 573 92 573 114 601 c 0,59,60
 135 629 135 629 158 646 c 0,61,62
 180 662 180 662 204 670 c 256,63,64
 228 678 228 678 258 678 c 0,65,66
 294 677 294 677 319 667 c 256,67,68
 344 657 344 657 362 642 c 256,69,70
 380 627 380 627 403 596 c 0,71,72
 425 565 425 565 438 531 c 0,73,74
 452 497 452 497 458 461 c 0,75,76
 465 423 465 423 468 387 c 0,77,78
 472 351 472 351 473 305 c 256,79,80
 474 259 474 259 470 223 c 0,81,82
 466 183 466 183 456 149 c 0,83,84
 446 113 446 113 438 93 c 0,85,86
 429 73 429 73 421 58 c 0,87,88
 413 42 413 42 395 17 c 0,89,90
 377 -7 377 -7 358 -22 c 2,91,-1
 350 -28 l 1,0,1
144 50 m 1,92,93
 145 58 145 58 146 64 c 0,94,95
 148 70 148 70 151 83 c 256,96,97
 154 96 154 96 162 112 c 256,98,99
 170 128 170 128 188 141 c 0,100,101
 206 155 206 155 232 155 c 0,102,103
 254 155 254 155 272 144 c 0,104,105
 290 134 290 134 301 115 c 0,106,107
 313 97 313 97 320 77 c 0,108,109
 328 57 328 57 334 34 c 2,110,-1
 337 23 l 1,111,-1
 340 11 l 1,112,113
 348 20 348 20 355 28 c 256,114,115
 362 36 362 36 371 55 c 0,116,117
 381 73 381 73 386 89 c 0,118,119
 390 105 390 105 396 125 c 256,120,121
 402 145 402 145 406 173 c 256,122,123
 410 201 410 201 413 241 c 0,124,125
 415 281 415 281 415 311 c 0,126,127
 415 349 415 349 409 407 c 0,128,129
 404 465 404 465 392 511 c 0,130,131
 380 556 380 556 358 588 c 0,132,133
 336 621 336 621 312 635 c 256,134,135
 288 649 288 649 258 649 c 0,136,137
 227 649 227 649 204 636 c 0,138,139
 182 622 182 622 164 601 c 0,140,141
 146 579 146 579 132 549 c 0,142,143
 118 518 118 518 110 483 c 0,144,145
 102 449 102 449 98 413 c 256,146,147
 94 377 94 377 93 351 c 0,148,149
 91 325 91 325 92 313 c 0,150,151
 92 303 92 303 94 264 c 0,152,153
 96 226 96 226 98 205 c 0,154,155
 100 183 100 183 106 157 c 256,156,157
 112 131 112 131 118 112 c 256,158,159
 124 93 124 93 128 85 c 2,160,-1
 140 59 l 1,161,-1
 144 50 l 1,92,93
162 20 m 1,162,163
 168 12 168 12 173 7 c 0,164,165
 177 3 177 3 188 -7 c 0,166,167
 200 -17 200 -17 216 -22 c 256,168,169
 232 -27 232 -27 250 -27 c 0,170,171
 274 -27 274 -27 292 -20 c 2,172,-1
 299 -17 l 1,173,174
 297 -7 297 -7 291 16 c 0,175,176
 285 40 285 40 278 62 c 256,177,178
 271 84 271 84 261 100 c 0,179,180
 251 115 251 115 242 119 c 0,181,182
 234 123 234 123 223 125 c 0,183,184
 213 126 213 126 202 120 c 0,185,186
 191 113 191 113 185 103 c 0,187,188
 180 93 180 93 174 77 c 256,189,190
 168 61 168 61 166 47 c 2,191,-1
 164 30 l 1,192,-1
 162 20 l 1,162,163
350 -28 m 1,193,194
 352 -38 352 -38 353 -40 c 0,195,196
 354 -43 354 -43 360 -63 c 0,197,198
 367 -83 367 -83 372 -91 c 0,199,200
 376 -99 376 -99 383 -106 c 256,201,202
 390 -113 390 -113 404 -113 c 0,203,204
 416 -113 416 -113 430 -105 c 256,205,206
 444 -97 444 -97 450 -87 c 2,207,-1
 467 -65 l 1,208,-1
 482 -72 l 1,209,210
 476 -85 476 -85 470 -96 c 0,211,212
 464 -106 464 -106 452 -120 c 0,213,214
 440 -135 440 -135 424 -145 c 0,215,216
 407 -155 407 -155 386 -155 c 256,217,218
 365 -155 365 -155 352 -146 c 0,219,220
 338 -137 338 -137 330 -120 c 256,221,222
 322 -103 322 -103 312 -68 c 2,223,-1
 308 -50 l 1,224,225
 301 -52 301 -52 296 -54 c 0,226,227
 290 -56 290 -56 276 -59 c 256,228,229
 262 -62 262 -62 250 -62 c 0,230,231
 230 -63 230 -63 205 -55 c 256,232,233
 180 -47 180 -47 154 -28 c 256,234,235
 128 -9 128 -9 108 18 c 0,236,237
 89 46 89 46 80 69 c 0,238,239
 70 92 70 92 62 114 c 0,240,241
 53 137 53 137 46 174 c 256,242,243
 39 211 39 211 38 239 c 0,244,245
 36 269 36 269 36 301 c 0,246,247
 36 359 36 359 42 398 c 0,248,249
 48 436 48 436 56 472 c 0,250,251
 65 509 65 509 80 541 c 0,252,253
 94 573 94 573 115 601 c 256,254,255
 136 629 136 629 158 646 c 256,256,257
 180 663 180 663 204 670 c 0,258,259
 228 678 228 678 258 678 c 0,260,261
 294 678 294 678 319 668 c 0,262,263
 344 657 344 657 362 642 c 0,264,265
 381 627 381 627 402 596 c 0,266,267
 424 565 424 565 438 532 c 0,268,269
 452 498 452 498 459 460 c 0,270,271
 466 423 466 423 469 387 c 256,272,273
 472 351 472 351 472 305 c 0,274,275
 474 259 474 259 470 223 c 0,276,277
 466 183 466 183 456 148 c 256,278,279
 446 113 446 113 438 93 c 0,280,281
 429 73 429 73 420 58 c 0,282,283
 412 42 412 42 395 18 c 0,284,285
 378 -7 378 -7 358 -22 c 2,286,-1
 350 -28 l 1,193,194
144 50 m 1,287,288
 145 58 145 58 146 64 c 0,289,290
 148 71 148 71 151 84 c 0,291,292
 154 96 154 96 162 112 c 256,293,294
 170 128 170 128 188 142 c 0,295,296
 206 155 206 155 232 155 c 0,297,298
 254 155 254 155 272 144 c 256,299,300
 290 133 290 133 302 114 c 0,301,302
 313 96 313 96 320 76 c 0,303,304
 328 57 328 57 334 34 c 2,305,-1
 337 23 l 1,306,-1
 340 11 l 1,307,308
 348 20 348 20 355 28 c 0,309,310
 362 37 362 37 371 55 c 256,311,312
 380 73 380 73 386 89 c 0,313,314
 391 105 391 105 396 125 c 0,315,316
 402 145 402 145 406 173 c 256,317,318
 410 201 410 201 412 241 c 0,319,320
 415 281 415 281 415 311 c 0,321,322
 415 349 415 349 410 408 c 0,323,324
 404 467 404 467 392 512 c 0,325,326
 379 557 379 557 358 588 c 0,327,328
 336 620 336 620 312 635 c 0,329,330
 288 649 288 649 258 649 c 0,331,332
 227 649 227 649 204 636 c 0,333,334
 182 623 182 623 164 601 c 256,335,336
 146 579 146 579 132 548 c 0,337,338
 118 518 118 518 110 484 c 0,339,340
 102 449 102 449 98 413 c 256,341,342
 94 377 94 377 93 352 c 0,343,344
 92 326 92 326 92 313 c 0,345,346
 92 303 92 303 94 264 c 256,347,348
 96 225 96 225 98 204 c 0,349,350
 100 184 100 184 106 158 c 0,351,352
 112 131 112 131 118 112 c 256,353,354
 124 93 124 93 128 85 c 2,355,-1
 140 59 l 1,356,-1
 144 50 l 1,287,288
162 20 m 1,357,358
 168 12 168 12 172 8 c 0,359,360
 177 3 177 3 188 -7 c 256,361,362
 199 -17 199 -17 216 -23 c 0,363,364
 232 -27 232 -27 250 -27 c 0,365,366
 274 -27 274 -27 292 -20 c 2,367,-1
 299 -17 l 1,368,369
 297 -7 297 -7 291 16 c 0,370,371
 285 40 285 40 278 62 c 0,372,373
 271 85 271 85 261 100 c 256,374,375
 251 115 251 115 242 119 c 0,376,377
 234 123 234 123 224 124 c 0,378,379
 213 125 213 125 202 120 c 0,380,381
 191 114 191 114 184 104 c 0,382,383
 178 93 178 93 173 77 c 256,384,385
 168 61 168 61 166 47 c 2,386,-1
 164 30 l 1,387,-1
 162 20 l 1,357,358
EndSplineSet
EndChar
StartChar: R
Encoding: 82 82 53
Width: 512
Flags: W
LayerCount: 2
Back
Fore
SplineSet
284 309 m 1,0,-1
 412 37 l 2,1,2
 419 21 419 21 428 9 c 256,3,4
 437 -3 437 -3 449 -9 c 0,5,6
 462 -17 462 -17 482 -17 c 2,7,-1
 490 -17 l 1,8,-1
 490 -45 l 1,9,-1
 384 -45 l 1,10,-1
 228 305 l 1,11,-1
 127 305 l 1,12,-1
 127 29 l 2,13,14
 127 3 127 3 136 -7 c 0,15,16
 144 -17 144 -17 165 -17 c 2,17,-1
 178 -17 l 1,18,-1
 178 -45 l 1,19,-1
 20 -45 l 1,20,-1
 20 -17 l 1,21,-1
 38 -17 l 2,22,23
 58 -17 58 -17 66 -8 c 0,24,25
 74 -1 74 -1 74 27 c 2,26,-1
 74 595 l 2,27,28
 74 617 74 617 64 625 c 256,29,30
 54 633 54 633 36 633 c 2,31,-1
 20 633 l 1,32,-1
 20 661 l 1,33,-1
 219 661 l 2,34,35
 232 661 232 661 254 659 c 256,36,37
 276 657 276 657 292 654 c 0,38,39
 307 651 307 651 328 643 c 256,40,41
 349 635 349 635 365 623 c 0,42,43
 380 612 380 612 396 593 c 0,44,45
 412 573 412 573 420 555 c 256,46,47
 428 537 428 537 430 517 c 256,48,49
 432 497 432 497 432 482 c 0,50,51
 432 473 432 473 430 455 c 256,52,53
 428 437 428 437 423 418 c 0,54,55
 417 398 417 398 404 379 c 0,56,57
 390 359 390 359 374 345 c 0,58,59
 357 331 357 331 334 322 c 0,60,61
 312 312 312 312 300 311 c 2,62,-1
 284 309 l 1,0,-1
127 333 m 1,63,-1
 210 333 l 2,64,65
 219 333 219 333 234 334 c 0,66,67
 250 335 250 335 263 337 c 0,68,69
 277 339 277 339 289 342 c 0,70,71
 302 346 302 346 315 354 c 0,72,73
 329 361 329 361 339 373 c 0,74,75
 350 385 350 385 358 401 c 256,76,77
 366 417 366 417 371 439 c 0,78,79
 375 461 375 461 375 485 c 0,80,81
 376 509 376 509 370 531 c 0,82,83
 364 552 364 552 352 570 c 256,84,85
 340 588 340 588 327 599 c 0,86,87
 315 610 315 610 298 617 c 0,88,89
 282 623 282 623 271 626 c 0,90,91
 259 629 259 629 240 631 c 0,92,93
 220 633 220 633 210 633 c 2,94,-1
 166 633 l 2,95,96
 148 633 148 633 137 623 c 0,97,98
 127 613 127 613 127 595 c 2,99,-1
 127 333 l 1,63,-1
284 309 m 1,100,-1
 412 37 l 2,101,102
 419 21 419 21 428 9 c 256,103,104
 437 -3 437 -3 449 -10 c 0,105,106
 462 -17 462 -17 482 -17 c 2,107,-1
 490 -17 l 1,108,-1
 490 -45 l 1,109,-1
 384 -45 l 1,110,-1
 228 305 l 1,111,-1
 127 305 l 1,112,-1
 127 29 l 2,113,114
 127 3 127 3 136 -7 c 0,115,116
 144 -17 144 -17 165 -17 c 2,117,-1
 178 -17 l 1,118,-1
 178 -45 l 1,119,-1
 20 -45 l 1,120,-1
 20 -17 l 1,121,-1
 38 -17 l 2,122,123
 58 -17 58 -17 66 -8 c 256,124,125
 74 1 74 1 74 27 c 2,126,-1
 74 595 l 2,127,128
 74 617 74 617 64 625 c 256,129,130
 54 633 54 633 36 633 c 2,131,-1
 20 633 l 1,132,-1
 20 661 l 1,133,-1
 219 661 l 2,134,135
 232 661 232 661 254 659 c 0,136,137
 277 657 277 657 292 654 c 256,138,139
 307 651 307 651 328 643 c 256,140,141
 349 635 349 635 364 624 c 0,142,143
 380 613 380 613 396 594 c 0,144,145
 412 574 412 574 420 556 c 0,146,147
 427 537 427 537 430 518 c 0,148,149
 432 498 432 498 432 482 c 0,150,151
 432 473 432 473 430 455 c 256,152,153
 428 437 428 437 422 418 c 0,154,155
 417 399 417 399 404 379 c 0,156,157
 390 359 390 359 374 345 c 0,158,159
 357 331 357 331 334 322 c 0,160,161
 312 313 312 313 300 311 c 2,162,-1
 284 309 l 1,100,-1
127 333 m 1,163,-1
 210 333 l 2,164,165
 219 333 219 333 234 334 c 0,166,167
 250 335 250 335 263 336 c 0,168,169
 276 338 276 338 289 342 c 0,170,171
 302 345 302 345 315 354 c 0,172,173
 328 362 328 362 339 374 c 0,174,175
 350 385 350 385 358 401 c 256,176,177
 366 417 366 417 370 438 c 0,178,179
 375 459 375 459 376 484 c 0,180,181
 376 509 376 509 370 531 c 0,182,183
 364 552 364 552 352 570 c 256,184,185
 340 588 340 588 327 599 c 256,186,187
 314 610 314 610 298 616 c 0,188,189
 282 623 282 623 271 626 c 0,190,191
 260 628 260 628 240 630 c 0,192,193
 220 633 220 633 210 633 c 2,194,-1
 166 633 l 2,195,196
 148 633 148 633 138 623 c 0,197,198
 127 613 127 613 127 595 c 2,199,-1
 127 333 l 1,163,-1
EndSplineSet
EndChar
StartChar: S
Encoding: 83 83 54
Width: 512
Flags: W
LayerCount: 2
Back
Fore
SplineSet
56 155 m 1,0,1
 62 141 62 141 68 130 c 0,2,3
 73 119 73 119 83 101 c 256,4,5
 93 83 93 83 106 65 c 0,6,7
 118 47 118 47 138 27 c 256,8,9
 158 7 158 7 180 -6 c 0,10,11
 202 -21 202 -21 215 -25 c 0,12,13
 229 -30 229 -30 243 -32 c 0,14,15
 258 -35 258 -35 270 -35 c 0,16,17
 292 -35 292 -35 313 -29 c 256,18,19
 334 -23 334 -23 348 -15 c 256,20,21
 362 -7 362 -7 374 6 c 0,22,23
 386 18 386 18 396 34 c 0,24,25
 407 49 407 49 412 65 c 0,26,27
 418 80 418 80 420 98 c 0,28,29
 422 117 422 117 421 139 c 0,30,31
 419 157 419 157 412 184 c 0,32,33
 404 212 404 212 380 230 c 0,34,35
 356 249 356 249 326 263 c 256,36,37
 296 277 296 277 270 287 c 2,38,-1
 184 316 l 2,39,40
 157 325 157 325 131 339 c 0,41,42
 106 353 106 353 84 378 c 256,43,44
 62 403 62 403 56 435 c 0,45,46
 49 467 49 467 49 489 c 0,47,48
 49 508 49 508 53 527 c 0,49,50
 57 547 57 547 68 573 c 0,51,52
 80 599 80 599 104 625 c 0,53,54
 129 650 129 650 154 660 c 0,55,56
 178 670 178 670 192 673 c 0,57,58
 206 675 206 675 218 677 c 0,59,60
 230 678 230 678 238 678 c 0,61,62
 254 679 254 679 271 675 c 256,63,64
 288 671 288 671 302 666 c 0,65,66
 316 662 316 662 326 657 c 2,67,-1
 345 648 l 2,68,69
 351 645 351 645 359 641 c 256,70,71
 367 637 367 637 372 636 c 0,72,73
 376 635 376 635 380 635 c 0,74,75
 387 635 387 635 396 639 c 2,76,-1
 405 645 l 1,77,-1
 419 655 l 1,78,-1
 466 473 l 1,79,-1
 445 464 l 1,80,-1
 434 484 l 2,81,82
 430 490 430 490 420 510 c 2,83,-1
 398 546 l 2,84,85
 388 562 388 562 374 581 c 0,86,87
 359 600 359 600 348 610 c 0,88,89
 336 619 336 619 321 629 c 0,90,91
 306 638 306 638 296 642 c 0,92,93
 286 647 286 647 271 649 c 0,94,95
 257 651 257 651 241 651 c 0,96,97
 215 649 215 649 191 641 c 0,98,99
 168 633 168 633 148 615 c 256,100,101
 128 597 128 597 118 575 c 0,102,103
 109 554 109 554 105 534 c 0,104,105
 101 515 101 515 103 489 c 0,106,107
 104 459 104 459 112 440 c 256,108,109
 120 421 120 421 136 406 c 256,110,111
 152 391 152 391 171 381 c 256,112,113
 190 371 190 371 224 361 c 2,114,-1
 301 335 l 2,115,116
 339 322 339 322 362 310 c 0,117,118
 384 298 384 298 403 285 c 0,119,120
 421 271 421 271 442 244 c 0,121,122
 464 217 464 217 472 185 c 256,123,124
 480 153 480 153 479 125 c 0,125,126
 478 81 478 81 460 47 c 0,127,128
 442 12 442 12 419 -9 c 0,129,130
 396 -29 396 -29 374 -39 c 256,131,132
 352 -49 352 -49 334 -54 c 0,133,134
 316 -58 316 -58 305 -59 c 0,135,136
 294 -61 294 -61 280 -61 c 0,137,138
 258 -61 258 -61 241 -58 c 256,139,140
 224 -55 224 -55 208 -50 c 0,141,142
 192 -46 192 -46 186 -43 c 2,143,-1
 168 -37 l 2,144,145
 156 -33 156 -33 146 -30 c 0,146,147
 136 -28 136 -28 126 -27 c 0,148,149
 120 -27 120 -27 116 -28 c 256,150,151
 112 -29 112 -29 98 -37 c 2,152,-1
 86 -45 l 1,153,-1
 36 149 l 1,154,-1
 56 155 l 1,0,1
56 155 m 1,155,156
 62 141 62 141 68 130 c 0,157,158
 73 120 73 120 84 102 c 0,159,160
 94 83 94 83 106 65 c 256,161,162
 118 47 118 47 138 27 c 0,163,164
 157 7 157 7 180 -6 c 0,165,166
 202 -19 202 -19 215 -24 c 256,167,168
 228 -29 228 -29 243 -32 c 256,169,170
 258 -35 258 -35 270 -35 c 0,171,172
 292 -35 292 -35 313 -29 c 256,173,174
 334 -23 334 -23 348 -15 c 256,175,176
 362 -7 362 -7 374 6 c 0,177,178
 386 18 386 18 396 34 c 0,179,180
 407 51 407 51 412 66 c 256,181,182
 417 81 417 81 420 99 c 0,183,184
 422 117 422 117 421 139 c 0,185,186
 419 157 419 157 412 184 c 0,187,188
 404 211 404 211 380 230 c 256,189,190
 356 249 356 249 326 263 c 0,191,192
 298 277 298 277 270 287 c 2,193,-1
 184 316 l 2,194,195
 157 325 157 325 132 339 c 0,196,197
 106 353 106 353 84 378 c 0,198,199
 62 404 62 404 55 436 c 0,200,201
 48 467 48 467 49 489 c 0,202,203
 49 508 49 508 53 528 c 0,204,205
 57 547 57 547 68 573 c 0,206,207
 80 599 80 599 105 624 c 256,208,209
 130 649 130 649 154 660 c 0,210,211
 178 670 178 670 192 672 c 0,212,213
 206 675 206 675 218 676 c 256,214,215
 230 677 230 677 238 678 c 0,216,217
 254 678 254 678 271 674 c 0,218,219
 288 671 288 671 302 666 c 0,220,221
 315 661 315 661 326 657 c 2,222,-1
 345 648 l 2,223,224
 351 645 351 645 360 641 c 0,225,226
 368 637 368 637 372 636 c 256,227,228
 376 635 376 635 380 635 c 0,229,230
 387 635 387 635 396 639 c 2,231,-1
 405 645 l 1,232,-1
 419 655 l 1,233,-1
 466 473 l 1,234,-1
 445 464 l 1,235,236
 438 478 438 478 434 484 c 0,237,238
 431 491 431 491 420 510 c 0,239,240
 408 530 408 530 398 546 c 0,241,242
 388 563 388 563 374 582 c 0,243,244
 359 600 359 600 348 610 c 0,245,246
 336 621 336 621 321 630 c 256,247,248
 306 639 306 639 296 642 c 0,249,250
 285 646 285 646 272 648 c 0,251,252
 258 651 258 651 241 651 c 0,253,254
 215 650 215 650 192 642 c 0,255,256
 168 633 168 633 148 615 c 256,257,258
 128 597 128 597 118 576 c 0,259,260
 109 555 109 555 106 535 c 0,261,262
 102 515 102 515 103 489 c 0,263,264
 104 459 104 459 112 440 c 256,265,266
 120 421 120 421 136 406 c 256,267,268
 152 391 152 391 171 381 c 256,269,270
 190 371 190 371 224 361 c 2,271,-1
 301 335 l 2,272,273
 339 322 339 322 362 310 c 0,274,275
 384 298 384 298 402 284 c 0,276,277
 421 271 421 271 442 244 c 0,278,279
 464 217 464 217 472 185 c 256,280,281
 480 153 480 153 479 125 c 0,282,283
 477 81 477 81 460 46 c 0,284,285
 442 12 442 12 419 -8 c 0,286,287
 396 -29 396 -29 374 -39 c 256,288,289
 352 -49 352 -49 334 -54 c 0,290,291
 316 -58 316 -58 305 -60 c 0,292,293
 294 -61 294 -61 280 -61 c 0,294,295
 258 -61 258 -61 241 -58 c 256,296,297
 224 -55 224 -55 208 -50 c 0,298,299
 193 -45 193 -45 186 -43 c 0,300,301
 180 -41 180 -41 168 -36 c 0,302,303
 155 -32 155 -32 146 -30 c 0,304,305
 136 -27 136 -27 126 -27 c 0,306,307
 120 -27 120 -27 116 -28 c 0,308,309
 114 -29 114 -29 98 -37 c 2,310,-1
 86 -45 l 1,311,-1
 36 149 l 1,312,-1
 56 155 l 1,155,156
EndSplineSet
EndChar
StartChar: T
Encoding: 84 84 55
Width: 512
Flags: W
LayerCount: 2
Back
Fore
SplineSet
469 485 m 1,0,1
 462 499 462 499 458 507 c 2,2,-1
 436 549 l 2,3,4
 426 565 426 565 416 581 c 0,5,6
 406 596 406 596 396 607 c 0,7,8
 387 617 387 617 374 625 c 0,9,10
 362 633 362 633 342 633 c 2,11,-1
 324 633 l 2,12,13
 302 633 302 633 291 622 c 0,14,15
 280 610 280 610 280 591 c 2,16,-1
 280 31 l 2,17,18
 280 9 280 9 290 -3 c 0,19,20
 301 -17 301 -17 323 -17 c 2,21,-1
 351 -17 l 1,22,-1
 351 -45 l 1,23,-1
 157 -45 l 1,24,-1
 158 -17 l 1,25,-1
 179 -17 l 2,26,27
 206 -17 206 -17 215 -5 c 256,28,29
 224 7 224 7 224 33 c 2,30,-1
 224 591 l 2,31,32
 224 612 224 612 214 622 c 0,33,34
 202 633 202 633 186 633 c 2,35,-1
 173 633 l 2,36,37
 151 633 151 633 131 621 c 0,38,39
 110 610 110 610 100 596 c 0,40,41
 89 582 89 582 81 568 c 0,42,43
 72 555 72 555 68 545 c 2,44,-1
 58 519 l 1,45,-1
 46 493 l 1,46,-1
 42 485 l 1,47,-1
 22 485 l 1,48,-1
 48 661 l 1,49,-1
 460 661 l 1,50,-1
 491 485 l 1,51,-1
 469 485 l 1,0,1
469 485 m 1,52,53
 462 499 462 499 458 507 c 2,54,-1
 436 549 l 2,55,56
 426 566 426 566 416 582 c 0,57,58
 406 597 406 597 396 607 c 0,59,60
 387 617 387 617 374 625 c 0,61,62
 362 633 362 633 342 633 c 2,63,-1
 324 633 l 2,64,65
 302 633 302 633 291 622 c 0,66,67
 280 610 280 610 280 591 c 2,68,-1
 280 31 l 2,69,70
 280 9 280 9 290 -4 c 0,71,72
 301 -17 301 -17 323 -17 c 2,73,-1
 351 -17 l 1,74,-1
 351 -45 l 1,75,-1
 157 -45 l 1,76,-1
 158 -17 l 1,77,-1
 179 -17 l 2,78,79
 206 -17 206 -17 215 -6 c 256,80,81
 224 5 224 5 224 33 c 2,82,-1
 224 591 l 2,83,84
 224 612 224 612 213 622 c 0,85,86
 202 633 202 633 186 633 c 2,87,-1
 173 633 l 2,88,89
 151 633 151 633 132 622 c 0,90,91
 112 611 112 611 101 596 c 256,92,93
 90 581 90 581 82 568 c 0,94,95
 72 555 72 555 68 545 c 2,96,-1
 58 519 l 1,97,-1
 46 493 l 1,98,-1
 42 485 l 1,99,-1
 22 485 l 1,100,-1
 48 661 l 1,101,-1
 460 661 l 1,102,-1
 491 485 l 1,103,-1
 469 485 l 1,52,53
EndSplineSet
EndChar
StartChar: U
Encoding: 85 85 56
Width: 512
Flags: W
LayerCount: 2
Back
Fore
SplineSet
328 661 m 1,0,-1
 484 661 l 1,1,-1
 484 633 l 1,2,-1
 464 633 l 2,3,4
 452 633 452 633 442 627 c 0,5,6
 433 621 433 621 429 614 c 0,7,8
 424 606 424 606 424 591 c 2,9,-1
 424 129 l 2,10,11
 424 113 424 113 422 91 c 256,12,13
 420 69 420 69 416 53 c 256,14,15
 412 37 412 37 400 16 c 0,16,17
 388 -6 388 -6 362 -29 c 256,18,19
 336 -52 336 -52 290 -60 c 0,20,21
 241 -69 241 -69 206 -56 c 0,22,23
 170 -43 170 -43 155 -33 c 0,24,25
 139 -23 139 -23 127 -9 c 0,26,27
 116 5 116 5 108 19 c 256,28,29
 100 33 100 33 96 53 c 256,30,31
 92 73 92 73 91 82 c 0,32,33
 90 92 90 92 90 119 c 2,34,-1
 90 595 l 2,35,36
 90 603 90 603 87 611 c 256,37,38
 84 619 84 619 79 623 c 0,39,40
 76 627 76 627 66 630 c 0,41,42
 57 633 57 633 48 633 c 2,43,-1
 25 633 l 1,44,-1
 25 661 l 1,45,-1
 210 661 l 1,46,-1
 210 633 l 1,47,-1
 206 633 l 2,48,49
 184 633 184 633 174 631 c 0,50,51
 165 629 165 629 158 625 c 256,52,53
 151 621 151 621 147 614 c 0,54,55
 144 607 144 607 144 595 c 2,56,-1
 144 128 l 2,57,58
 144 108 144 108 145 94 c 0,59,60
 146 79 146 79 150 65 c 256,61,62
 154 51 154 51 160 37 c 256,63,64
 166 23 166 23 180 10 c 0,65,66
 192 -4 192 -4 208 -13 c 0,67,68
 223 -23 223 -23 237 -25 c 256,69,70
 251 -27 251 -27 267 -26 c 0,71,72
 290 -26 290 -26 310 -20 c 0,73,74
 329 -15 329 -15 347 0 c 0,75,76
 365 13 365 13 374 29 c 0,77,78
 383 44 383 44 387 60 c 0,79,80
 390 75 390 75 392 94 c 0,81,82
 394 115 394 115 394 125 c 2,83,-1
 394 591 l 2,84,85
 394 609 394 609 388 617 c 256,86,87
 382 625 382 625 372 629 c 256,88,89
 362 633 362 633 350 633 c 2,90,-1
 328 633 l 1,91,-1
 328 661 l 1,0,-1
328 661 m 1,92,-1
 484 661 l 1,93,-1
 484 633 l 1,94,-1
 464 633 l 2,95,96
 452 633 452 633 443 628 c 0,97,98
 434 622 434 622 429 614 c 0,99,100
 424 605 424 605 424 591 c 2,101,-1
 424 129 l 2,102,103
 424 113 424 113 422 91 c 256,104,105
 420 69 420 69 416 53 c 256,106,107
 412 37 412 37 400 16 c 0,108,109
 388 -6 388 -6 362 -29 c 256,110,111
 336 -52 336 -52 290 -60 c 0,112,113
 241 -69 241 -69 206 -56 c 0,114,115
 170 -43 170 -43 155 -33 c 256,116,117
 140 -23 140 -23 128 -9 c 0,118,119
 115 5 115 5 108 20 c 0,120,121
 100 34 100 34 96 54 c 0,122,123
 92 73 92 73 91 82 c 256,124,125
 90 91 90 91 90 119 c 2,126,-1
 90 595 l 2,127,128
 90 603 90 603 87 611 c 256,129,130
 84 619 84 619 79 623 c 256,131,132
 74 627 74 627 65 630 c 256,133,134
 56 633 56 633 48 633 c 2,135,-1
 25 633 l 1,136,-1
 25 661 l 1,137,-1
 210 661 l 1,138,-1
 210 633 l 1,139,-1
 206 633 l 2,140,141
 183 633 183 633 174 631 c 0,142,143
 164 629 164 629 158 625 c 0,144,145
 151 621 151 621 148 614 c 0,146,147
 144 607 144 607 144 595 c 2,148,-1
 144 128 l 2,149,150
 144 108 144 108 145 94 c 256,151,152
 146 80 146 80 150 66 c 0,153,154
 154 51 154 51 160 37 c 0,155,156
 167 23 167 23 180 10 c 0,157,158
 192 -3 192 -3 208 -13 c 0,159,160
 223 -23 223 -23 237 -25 c 256,161,162
 251 -27 251 -27 267 -26 c 0,163,164
 291 -26 291 -26 310 -20 c 0,165,166
 330 -15 330 -15 348 0 c 0,167,168
 365 15 365 15 374 30 c 256,169,170
 383 45 383 45 386 60 c 0,171,172
 390 75 390 75 392 94 c 256,173,174
 394 113 394 113 394 125 c 2,175,-1
 394 591 l 2,176,177
 394 609 394 609 388 617 c 256,178,179
 382 625 382 625 372 629 c 256,180,181
 362 633 362 633 350 633 c 2,182,-1
 328 633 l 1,183,-1
 328 661 l 1,92,-1
EndSplineSet
EndChar
StartChar: V
Encoding: 86 86 57
Width: 512
Flags: W
LayerCount: 2
Back
Fore
SplineSet
487 633 m 1,0,-1
 478 633 l 2,1,2
 456 633 456 633 446 623 c 0,3,4
 436 615 436 615 428 593 c 0,5,6
 419 571 419 571 411 538 c 2,7,-1
 270 -63 l 1,8,-1
 246 -63 l 1,9,-1
 95 568 l 2,10,11
 89 590 89 590 82 604 c 0,12,13
 75 617 75 617 66 625 c 0,14,15
 56 633 56 633 38 633 c 2,16,-1
 27 633 l 1,17,-1
 27 661 l 1,18,-1
 210 661 l 1,19,-1
 208 633 l 1,20,-1
 180 633 l 2,21,22
 161 633 161 633 152 628 c 0,23,24
 142 624 142 624 144 601 c 2,25,-1
 151 571 l 1,26,-1
 271 61 l 1,27,-1
 380 534 l 1,28,-1
 389 575 l 2,29,30
 395 599 395 599 394 611 c 0,31,32
 393 621 393 621 388 627 c 0,33,34
 384 633 384 633 372 633 c 2,35,-1
 340 633 l 1,36,-1
 338 661 l 1,37,-1
 486 661 l 1,38,-1
 487 633 l 1,0,-1
487 633 m 1,39,-1
 478 633 l 2,40,41
 456 633 456 633 446 624 c 256,42,43
 436 615 436 615 427 593 c 256,44,45
 418 571 418 571 411 538 c 2,46,-1
 270 -63 l 1,47,-1
 246 -63 l 1,48,-1
 95 568 l 2,49,50
 89 590 89 590 82 604 c 0,51,52
 75 617 75 617 66 625 c 0,53,54
 56 633 56 633 38 633 c 2,55,-1
 27 633 l 1,56,-1
 27 661 l 1,57,-1
 210 661 l 1,58,-1
 208 633 l 1,59,-1
 180 633 l 2,60,61
 161 633 161 633 152 628 c 0,62,63
 142 624 142 624 144 601 c 2,64,-1
 151 571 l 1,65,-1
 271 61 l 1,66,-1
 380 534 l 2,67,68
 384 550 384 550 389 575 c 0,69,70
 394 599 394 599 394 611 c 0,71,72
 393 621 393 621 388 627 c 0,73,74
 384 633 384 633 372 633 c 2,75,-1
 340 633 l 1,76,-1
 338 661 l 1,77,-1
 486 661 l 1,78,-1
 487 633 l 1,39,-1
EndSplineSet
EndChar
StartChar: W
Encoding: 87 87 58
Width: 512
Flags: W
LayerCount: 2
Back
Fore
SplineSet
247 500 m 1,0,-1
 236 591 l 2,1,2
 234 602 234 602 233 608 c 0,3,4
 232 615 232 615 229 621 c 0,5,6
 225 627 225 627 221 630 c 0,7,8
 216 633 216 633 204 633 c 2,9,-1
 188 633 l 1,10,-1
 188 661 l 1,11,-1
 330 661 l 1,12,-1
 330 633 l 1,13,-1
 308 633 l 2,14,15
 295 633 295 633 291 628 c 0,16,17
 286 625 286 625 288 617 c 2,18,-1
 356 121 l 1,19,-1
 422 582 l 1,20,-1
 424 604 l 2,21,22
 425 612 425 612 425 615 c 0,23,24
 425 624 425 624 421 628 c 0,25,26
 418 633 418 633 400 633 c 2,27,-1
 385 633 l 1,28,-1
 385 661 l 1,29,-1
 498 661 l 1,30,-1
 498 633 l 1,31,-1
 488 633 l 2,32,33
 474 633 474 633 468 629 c 256,34,35
 462 625 462 625 458 619 c 0,36,37
 456 613 456 613 454 601 c 2,38,-1
 450 583 l 1,39,-1
 356 -62 l 1,40,-1
 332 -62 l 1,41,-1
 262 408 l 1,42,-1
 184 -62 l 1,43,-1
 160 -62 l 1,44,-1
 60 592 l 2,45,46
 58 606 58 606 56 612 c 0,47,48
 54 619 54 619 50 623 c 256,49,50
 46 627 46 627 39 630 c 256,51,52
 32 633 32 633 23 633 c 2,53,-1
 14 633 l 1,54,-1
 14 661 l 1,55,-1
 150 661 l 1,56,-1
 150 633 l 1,57,-1
 131 633 l 2,58,59
 124 633 124 633 120 631 c 256,60,61
 116 629 116 629 114 625 c 256,62,63
 112 621 112 621 112 614 c 0,64,65
 112 608 112 608 113 597 c 2,66,-1
 184 111 l 1,67,-1
 247 500 l 1,0,-1
247 500 m 1,68,-1
 236 591 l 2,69,70
 234 602 234 602 233 608 c 0,71,72
 232 615 232 615 229 621 c 256,73,74
 226 627 226 627 221 630 c 256,75,76
 216 633 216 633 204 633 c 2,77,-1
 188 633 l 1,78,-1
 188 661 l 1,79,-1
 330 661 l 1,80,-1
 330 633 l 1,81,-1
 308 633 l 2,82,83
 295 633 295 633 290 628 c 0,84,85
 286 623 286 623 288 617 c 2,86,-1
 356 121 l 1,87,-1
 422 582 l 1,88,-1
 424 604 l 2,89,90
 425 612 425 612 425 615 c 0,91,92
 425 624 425 624 421 629 c 0,93,94
 418 633 418 633 400 633 c 2,95,-1
 385 633 l 1,96,-1
 385 661 l 1,97,-1
 498 661 l 1,98,-1
 498 633 l 1,99,-1
 488 633 l 2,100,101
 474 633 474 633 468 629 c 0,102,103
 461 625 461 625 458 619 c 0,104,105
 456 613 456 613 454 601 c 2,106,-1
 450 583 l 1,107,-1
 356 -62 l 1,108,-1
 332 -62 l 1,109,-1
 262 408 l 1,110,-1
 184 -62 l 1,111,-1
 160 -62 l 1,112,-1
 60 592 l 2,113,114
 58 606 58 606 56 612 c 256,115,116
 54 618 54 618 50 622 c 0,117,118
 46 627 46 627 39 630 c 256,119,120
 32 633 32 633 23 633 c 2,121,-1
 14 633 l 1,122,-1
 14 661 l 1,123,-1
 150 661 l 1,124,-1
 150 633 l 1,125,-1
 131 633 l 2,126,127
 124 633 124 633 120 631 c 256,128,129
 116 629 116 629 114 625 c 256,130,131
 112 621 112 621 112 614 c 0,132,133
 111 607 111 607 113 597 c 2,134,-1
 184 111 l 1,135,-1
 247 500 l 1,68,-1
EndSplineSet
EndChar
StartChar: X
Encoding: 88 88 59
Width: 512
Flags: W
LayerCount: 2
Back
Fore
SplineSet
231 307 m 1,0,-1
 124 567 l 2,1,2
 118 583 118 583 111 595 c 0,3,4
 105 609 105 609 98 616 c 0,5,6
 92 623 92 623 80 628 c 256,7,8
 68 633 68 633 56 633 c 2,9,-1
 38 633 l 1,10,-1
 38 661 l 1,11,-1
 214 661 l 1,12,-1
 214 633 l 1,13,-1
 191 633 l 2,14,15
 177 633 177 633 170 628 c 0,16,17
 164 623 164 623 164 611 c 0,18,19
 164 605 164 605 169 593 c 256,20,21
 174 581 174 581 178 572 c 2,22,-1
 263 375 l 1,23,-1
 352 568 l 2,24,25
 368 602 368 602 365 612 c 0,26,27
 363 622 363 622 357 627 c 0,28,29
 351 633 351 633 335 633 c 2,30,-1
 304 633 l 1,31,-1
 304 661 l 1,32,-1
 466 661 l 1,33,-1
 466 633 l 1,34,-1
 456 633 l 2,35,36
 442 633 442 633 431 628 c 0,37,38
 420 624 420 624 410 612 c 256,39,40
 400 600 400 600 390 576 c 2,41,-1
 279 339 l 1,42,-1
 401 57 l 2,43,44
 410 35 410 35 414 27 c 256,45,46
 418 19 418 19 424 10 c 0,47,48
 430 2 430 2 434 -3 c 0,49,50
 439 -7 439 -7 448 -11 c 0,51,52
 458 -15 458 -15 473 -15 c 2,53,-1
 486 -15 l 1,54,-1
 486 -44 l 1,55,-1
 297 -44 l 1,56,-1
 297 -15 l 1,57,-1
 320 -15 l 2,58,59
 338 -15 338 -15 344 -13 c 0,60,61
 352 -11 352 -11 355 -7 c 256,62,63
 358 -3 358 -3 358 5 c 0,64,65
 358 10 358 10 352 26 c 256,66,67
 346 42 346 42 344 45 c 2,68,-1
 252 272 l 1,69,-1
 148 59 l 1,70,-1
 134 27 l 2,71,72
 128 13 128 13 128 8 c 0,73,74
 128 -1 128 -1 132 -5 c 256,75,76
 136 -9 136 -9 145 -12 c 0,77,78
 153 -15 153 -15 172 -15 c 2,79,-1
 199 -15 l 1,80,-1
 199 -44 l 1,81,-1
 23 -44 l 1,82,-1
 23 -15 l 1,83,-1
 36 -15 l 2,84,85
 51 -15 51 -15 64 -9 c 0,86,87
 76 -3 76 -3 86 9 c 0,88,89
 96 19 96 19 106 41 c 2,90,-1
 231 307 l 1,0,-1
231 307 m 1,91,-1
 124 567 l 2,92,93
 118 583 118 583 111 596 c 256,94,95
 104 609 104 609 98 616 c 256,96,97
 92 623 92 623 81 628 c 256,98,99
 70 633 70 633 56 633 c 2,100,-1
 38 633 l 1,101,-1
 38 661 l 1,102,-1
 214 661 l 1,103,-1
 214 633 l 1,104,-1
 191 633 l 2,105,106
 177 633 177 633 170 628 c 0,107,108
 164 623 164 623 164 611 c 0,109,110
 164 605 164 605 169 593 c 256,111,112
 174 581 174 581 178 572 c 2,113,-1
 263 375 l 1,114,-1
 352 568 l 2,115,116
 368 602 368 602 366 612 c 0,117,118
 363 622 363 622 356 628 c 0,119,120
 350 633 350 633 335 633 c 2,121,-1
 304 633 l 1,122,-1
 304 661 l 1,123,-1
 466 661 l 1,124,-1
 466 633 l 1,125,-1
 456 633 l 2,126,127
 442 633 442 633 431 628 c 256,128,129
 420 623 420 623 410 612 c 0,130,131
 401 601 401 601 390 576 c 2,132,-1
 279 339 l 1,133,-1
 401 57 l 2,134,135
 410 35 410 35 414 27 c 256,136,137
 418 19 418 19 424 10 c 256,138,139
 430 1 430 1 434 -3 c 0,140,141
 439 -7 439 -7 448 -11 c 0,142,143
 458 -15 458 -15 473 -15 c 2,144,-1
 486 -15 l 1,145,-1
 486 -44 l 1,146,-1
 297 -44 l 1,147,-1
 297 -15 l 1,148,-1
 320 -15 l 2,149,150
 338 -15 338 -15 345 -13 c 256,151,152
 352 -11 352 -11 355 -7 c 256,153,154
 358 -3 358 -3 358 5 c 0,155,156
 358 10 358 10 352 26 c 256,157,158
 346 42 346 42 344 45 c 2,159,-1
 252 272 l 1,160,-1
 148 59 l 1,161,-1
 134 27 l 2,162,163
 128 13 128 13 128 8 c 0,164,165
 128 0 128 0 132 -4 c 0,166,167
 136 -9 136 -9 145 -12 c 256,168,169
 154 -15 154 -15 172 -15 c 2,170,-1
 199 -15 l 1,171,-1
 199 -44 l 1,172,-1
 23 -44 l 1,173,-1
 23 -15 l 1,174,-1
 36 -15 l 2,175,176
 51 -15 51 -15 64 -9 c 256,177,178
 77 -3 77 -3 86 9 c 0,179,180
 96 19 96 19 106 41 c 2,181,-1
 231 307 l 1,91,-1
EndSplineSet
EndChar
StartChar: Y
Encoding: 89 89 60
Width: 512
Flags: W
LayerCount: 2
Back
Fore
SplineSet
488 633 m 1,0,-1
 477 633 l 2,1,2
 460 633 460 633 450 626 c 256,3,4
 440 619 440 619 433 608 c 0,5,6
 424 596 424 596 414 570 c 2,7,-1
 286 267 l 1,8,-1
 286 33 l 2,9,10
 286 7 286 7 296 -5 c 256,11,12
 306 -17 306 -17 327 -17 c 2,13,-1
 344 -17 l 1,14,-1
 344 -45 l 1,15,-1
 174 -45 l 1,16,-1
 174 -17 l 1,17,-1
 187 -17 l 2,18,19
 213 -17 213 -17 222 -6 c 0,20,21
 232 5 232 5 232 33 c 2,22,-1
 232 251 l 1,23,-1
 100 561 l 2,24,25
 88 587 88 587 79 602 c 256,26,27
 70 617 70 617 59 625 c 256,28,29
 48 633 48 633 34 633 c 2,30,-1
 24 633 l 1,31,-1
 24 661 l 1,32,-1
 194 661 l 1,33,-1
 194 633 l 1,34,-1
 166 633 l 2,35,36
 152 633 152 633 147 627 c 0,37,38
 141 621 141 621 142 611 c 0,39,40
 142 601 142 601 150 585 c 2,41,-1
 270 301 l 1,42,-1
 380 570 l 2,43,44
 388 589 388 589 390 597 c 256,45,46
 392 605 392 605 392 613 c 0,47,48
 390 625 390 625 383 628 c 0,49,50
 378 633 378 633 360 633 c 2,51,-1
 333 633 l 1,52,-1
 333 661 l 1,53,-1
 488 661 l 1,54,-1
 488 633 l 1,0,-1
488 633 m 1,55,-1
 477 633 l 2,56,57
 461 633 461 633 450 626 c 0,58,59
 440 619 440 619 433 608 c 256,60,61
 426 597 426 597 414 570 c 2,62,-1
 286 267 l 1,63,-1
 286 33 l 2,64,65
 286 8 286 8 296 -4 c 0,66,67
 306 -17 306 -17 327 -17 c 2,68,-1
 344 -17 l 1,69,-1
 344 -45 l 1,70,-1
 174 -45 l 1,71,-1
 174 -17 l 1,72,-1
 187 -17 l 2,73,74
 213 -17 213 -17 222 -7 c 0,75,76
 232 5 232 5 232 33 c 2,77,-1
 232 251 l 1,78,-1
 100 561 l 2,79,80
 88 587 88 587 79 602 c 256,81,82
 70 617 70 617 59 625 c 256,83,84
 48 633 48 633 34 633 c 2,85,-1
 24 633 l 1,86,-1
 24 661 l 1,87,-1
 194 661 l 1,88,-1
 194 633 l 1,89,-1
 166 633 l 2,90,91
 152 633 152 633 147 627 c 256,92,93
 142 621 142 621 142 612 c 0,94,95
 142 602 142 602 150 585 c 2,96,-1
 270 301 l 1,97,-1
 380 570 l 2,98,99
 388 590 388 590 390 598 c 0,100,101
 392 605 392 605 392 613 c 0,102,103
 390 625 390 625 384 629 c 256,104,105
 378 633 378 633 360 633 c 2,106,-1
 333 633 l 1,107,-1
 333 661 l 1,108,-1
 488 661 l 1,109,-1
 488 633 l 1,55,-1
EndSplineSet
EndChar
StartChar: Z
Encoding: 90 90 61
Width: 512
Flags: W
LayerCount: 2
Back
Fore
SplineSet
473 153 m 1,0,-1
 429 -45 l 1,1,-1
 40 -45 l 1,2,-1
 40 -21 l 1,3,-1
 400 633 l 1,4,-1
 272 633 l 2,5,6
 265 633 265 633 243 630 c 0,7,8
 221 628 221 628 214 626 c 0,9,10
 206 624 206 624 193 618 c 256,11,12
 180 612 180 612 171 607 c 0,13,14
 163 601 163 601 152 590 c 0,15,16
 142 579 142 579 132 565 c 256,17,18
 122 551 122 551 109 527 c 0,19,20
 95 503 95 503 93 497 c 2,21,-1
 84 475 l 1,22,-1
 64 475 l 1,23,-1
 98 661 l 1,24,-1
 465 661 l 1,25,-1
 465 639 l 1,26,-1
 102 -16 l 1,27,-1
 261 -16 l 2,28,29
 283 -16 283 -16 304 -11 c 0,30,31
 326 -6 326 -6 344 4 c 256,32,33
 362 14 362 14 378 29 c 0,34,35
 394 45 394 45 408 67 c 256,36,37
 422 89 422 89 436 115 c 2,38,-1
 454 153 l 1,39,-1
 473 153 l 1,0,-1
473 153 m 1,40,-1
 429 -45 l 1,41,-1
 40 -45 l 1,42,-1
 40 -21 l 1,43,-1
 400 633 l 1,44,-1
 272 633 l 2,45,46
 265 633 265 633 243 630 c 256,47,48
 221 627 221 627 214 626 c 0,49,50
 206 624 206 624 193 618 c 0,51,52
 180 613 180 613 171 607 c 256,53,54
 162 601 162 601 152 590 c 256,55,56
 142 579 142 579 132 565 c 256,57,58
 122 551 122 551 109 527 c 256,59,60
 96 503 96 503 93 497 c 2,61,-1
 84 475 l 1,62,-1
 64 475 l 1,63,-1
 98 661 l 1,64,-1
 465 661 l 1,65,-1
 465 639 l 1,66,-1
 102 -16 l 1,67,-1
 261 -16 l 2,68,69
 283 -16 283 -16 304 -11 c 0,70,71
 326 -6 326 -6 344 4 c 0,72,73
 363 14 363 14 378 29 c 0,74,75
 394 44 394 44 408 67 c 0,76,77
 424 89 424 89 436 115 c 2,78,-1
 454 153 l 1,79,-1
 473 153 l 1,40,-1
EndSplineSet
EndChar
StartChar: bracketleft
Encoding: 91 91 62
Width: 512
Flags: W
LayerCount: 2
Back
Fore
SplineSet
481 -173 m 1,0,-1
 232 -173 l 1,1,-1
 232 787 l 1,2,-1
 481 787 l 1,3,-1
 481 749 l 1,4,-1
 271 749 l 1,5,-1
 271 -135 l 1,6,-1
 481 -135 l 1,7,-1
 481 -173 l 1,0,-1
481 -173 m 1,8,-1
 232 -173 l 1,9,-1
 232 787 l 1,10,-1
 481 787 l 1,11,-1
 481 749 l 1,12,-1
 271 749 l 1,13,-1
 271 -135 l 1,14,-1
 481 -135 l 1,15,-1
 481 -173 l 1,8,-1
EndSplineSet
EndChar
StartChar: backslash
Encoding: 92 92 63
Width: 512
Flags: W
LayerCount: 2
Back
Fore
SplineSet
474 -133 m 1,0,-1
 438 -151 l 1,1,-1
 37 752 l 1,2,-1
 69 771 l 1,3,-1
 474 -133 l 1,0,-1
474 -133 m 1,4,-1
 438 -151 l 1,5,-1
 37 752 l 1,6,-1
 69 771 l 1,7,-1
 474 -133 l 1,4,-1
EndSplineSet
EndChar
StartChar: bracketright
Encoding: 93 93 64
Width: 512
Flags: W
LayerCount: 2
Back
Fore
SplineSet
280 -173 m 1,0,-1
 30 -173 l 1,1,-1
 30 -135 l 1,2,-1
 240 -135 l 1,3,-1
 240 749 l 1,4,-1
 30 749 l 1,5,-1
 30 787 l 1,6,-1
 280 787 l 1,7,-1
 280 -173 l 1,0,-1
280 -173 m 1,8,-1
 30 -173 l 1,9,-1
 30 -135 l 1,10,-1
 240 -135 l 1,11,-1
 240 749 l 1,12,-1
 30 749 l 1,13,-1
 30 787 l 1,14,-1
 280 787 l 1,15,-1
 280 -173 l 1,8,-1
EndSplineSet
EndChar
StartChar: underscore
Encoding: 95 95 66
Width: 512
Flags: W
LayerCount: 2
Back
Fore
SplineSet
512 -205 m 1,0,-1
 0 -205 l 1,1,-1
 0 -169 l 1,2,-1
 512 -169 l 1,3,-1
 512 -205 l 1,0,-1
512 -205 m 1,4,-1
 0 -205 l 1,5,-1
 0 -169 l 1,6,-1
 512 -169 l 1,7,-1
 512 -205 l 1,4,-1
EndSplineSet
EndChar
StartChar: grave
Encoding: 96 96 67
Width: 512
Flags: W
LayerCount: 2
Back
Fore
SplineSet
173 811 m 2,0,-1
 411 717 l 2,1,2
 421 713 421 713 419 703 c 256,3,4
 417 693 417 693 405 695 c 2,5,-1
 151 725 l 2,6,7
 125 728 125 728 110 744 c 0,8,9
 96 760 96 760 101 784 c 256,10,11
 106 808 106 808 126 814 c 0,12,13
 147 821 147 821 173 811 c 2,0,-1
173 811 m 2,14,-1
 411 717 l 2,15,16
 421 713 421 713 419 703 c 256,17,18
 417 693 417 693 405 695 c 2,19,-1
 151 725 l 2,20,21
 125 728 125 728 110 744 c 256,22,23
 95 760 95 760 101 784 c 0,24,25
 106 807 106 807 127 814 c 0,26,27
 147 821 147 821 173 811 c 2,14,-1
EndSplineSet
EndChar
